<?xml version="1.0" encoding="UTF-8"?>
<svg version="1.1" xmlns="http://www.w3.org/2000/svg" width="101" height="59">
<path d="M0 0 C0.77150391 -0.00386719 1.54300781 -0.00773438 2.33789062 -0.01171875 C8.05904908 -0.00172546 8.05904908 -0.00172546 10.3125 1.125 C10.3125 2.115 10.3125 3.105 10.3125 4.125 C15.2625 4.62 15.2625 4.62 20.3125 5.125 C20.8075 6.61 20.8075 6.61 21.3125 8.125 C22.21613281 8.19976562 23.11976562 8.27453125 24.05078125 8.3515625 C33.69754155 9.42693906 33.69754155 9.42693906 36.625 12.75 C37.68955221 17.9759836 38.2908963 22.16820741 35.8125 27.125 C35.3175 27.785 34.8225 28.445 34.3125 29.125 C35.7975 29.62 35.7975 29.62 37.3125 30.125 C37.3125 30.785 37.3125 31.445 37.3125 32.125 C21.86291555 39.84979223 -4.96603976 37.5224072 -21.875 37.5 C-23.12112564 37.50231125 -23.12112564 37.50231125 -24.39242554 37.50466919 C-32.69243194 37.50291868 -40.64631139 37.44368184 -48.6875 35.125 C-48.6875 34.135 -48.6875 33.145 -48.6875 32.125 C-47.6975 32.125 -46.7075 32.125 -45.6875 32.125 C-45.6875 31.465 -45.6875 30.805 -45.6875 30.125 C-47.0075 29.465 -48.3275 28.805 -49.6875 28.125 C-50.26548165 18.29931193 -50.26548165 18.29931193 -46.6875 14.125 C-42.69373741 10.34711647 -39.55955001 9.88010856 -34.125 9.3125 C-27.25211053 8.52619485 -22.40252501 6.24722829 -16.52734375 2.68359375 C-11.17684248 -0.2529262 -5.95454275 -0.03030302 0 0 Z " fill="#C4C4C2" transform="translate(56.6875,12.875)"/>
<path d="M0 0 C0.495 0.99 0.495 0.99 1 2 C3.02463255 2.65213292 3.02463255 2.65213292 5 3 C5.33 2.34 5.66 1.68 6 1 C6.99 1.66 7.98 2.32 9 3 C9 3.66 9 4.32 9 5 C-6.44958445 12.72479223 -33.27853976 10.3974072 -50.1875 10.375 C-51.43362564 10.37731125 -51.43362564 10.37731125 -52.70492554 10.37966919 C-61.00493194 10.37791868 -68.95881139 10.31868184 -77 8 C-77 7.01 -77 6.02 -77 5 C-76.01 5 -75.02 5 -74 5 C-74 4.34 -74 3.68 -74 3 C-74.66 2.67 -75.32 2.34 -76 2 C-69.50292798 1.05687664 -63.49366413 0.84041712 -57 2 C-56.67 2.33 -56.34 2.66 -56 3 C-53.30764224 3.23678716 -50.63501844 3.42198025 -47.9375 3.5625 C-46.79958008 3.62727539 -46.79958008 3.62727539 -45.63867188 3.69335938 C-43.75934562 3.79973633 -41.87969756 3.90039934 -40 4 C-39.505 5.485 -39.505 5.485 -39 7 C-37.68528432 6.71848913 -36.37324233 6.42446661 -35.0625 6.125 C-34.33160156 5.96257813 -33.60070313 5.80015625 -32.84765625 5.6328125 C-30.79299706 5.17038477 -30.79299706 5.17038477 -30 3 C-27.85449219 2.60522461 -27.85449219 2.60522461 -25.046875 2.40234375 C-24.03496094 2.32306641 -23.02304687 2.24378906 -21.98046875 2.16210938 C-20.91441406 2.08798828 -19.84835938 2.01386719 -18.75 1.9375 C-16.66127131 1.78244713 -14.57272037 1.6249767 -12.484375 1.46484375 C-11.08783691 1.36610962 -11.08783691 1.36610962 -9.66308594 1.26538086 C-6.4104271 0.9412481 -3.26269908 0 0 0 Z " fill="#020202" transform="translate(85,40)"/>
<path d="M0 0 C1.9453125 -0.29296875 1.9453125 -0.29296875 4.125 -0.1875 C5.40375 -0.125625 6.6825 -0.06375 8 0 C8.33 1.65 8.66 3.3 9 5 C6.69 5 4.38 5 2 5 C2.33 6.65 2.66 8.3 3 10 C5.97953359 9.85982174 8.95849304 9.71313658 11.9375 9.5625 C13.21270508 9.50352539 13.21270508 9.50352539 14.51367188 9.44335938 C15.32255859 9.40146484 16.13144531 9.35957031 16.96484375 9.31640625 C17.7137085 9.27974854 18.46257324 9.24309082 19.23413086 9.20532227 C21.02461326 9.18228937 21.02461326 9.18228937 22 8 C26.22490676 7.55437089 29.84455052 7.32363933 33.5625 9.5 C34.036875 9.995 34.51125 10.49 35 11 C35.0825 10.113125 35.165 9.22625 35.25 8.3125 C36.11484695 4.49275928 37.1606973 2.68156366 40 0 C42.5625 -0.5625 42.5625 -0.5625 45 0 C47.12216661 2.20806383 47.94437822 3.51052835 48.29296875 6.578125 C48.25816406 7.45984375 48.22335938 8.3415625 48.1875 9.25 C48.14689453 10.58804688 48.14689453 10.58804688 48.10546875 11.953125 C48.07066406 12.62859375 48.03585938 13.3040625 48 14 C47.34 14 46.68 14 46 14 C45.67 14.99 45.34 15.98 45 17 C42.29120665 18.35439668 39.99066732 18.06501451 37 18 C36.505 17.01 36.505 17.01 36 16 C33.30847736 15.7137306 30.69902132 15.53256862 28 15.4375 C20.11929275 15.11929275 20.11929275 15.11929275 19 14 C16.41242474 13.78732258 13.84206806 13.6232145 11.25 13.5 C6.76138639 13.28202776 2.38978041 13.036956 -2 12 C-2.05422947 10.5629191 -2.09289723 9.12524538 -2.125 7.6875 C-2.14820313 6.88699219 -2.17140625 6.08648437 -2.1953125 5.26171875 C-2 3 -2 3 0 0 Z " fill="#5E5E5E" transform="translate(9,29)"/>
<path d="M0 0 C0 0.66 0 1.32 0 2 C8.25 2 16.5 2 25 2 C25 2.33 25 2.66 25 3 C13.615 3.99 13.615 3.99 2 5 C8.93 5 15.86 5 23 5 C23.495 5.99 23.495 5.99 24 7 C20.95243795 8.52378103 17.80775193 8.03861267 14.47265625 7.95703125 C12.94337232 7.93464473 11.41407452 7.91318913 9.88476562 7.89257812 C7.47040621 7.85544927 5.05674822 7.81235898 2.64282227 7.75317383 C0.31516264 7.69874372 -2.01170738 7.6696069 -4.33984375 7.64453125 C-5.06179428 7.62074905 -5.78374481 7.59696686 -6.52757263 7.57246399 C-10.63607716 7.54289559 -10.63607716 7.54289559 -13.90454102 9.8190918 C-15.23862962 12.47507876 -16.15863919 15.15231725 -17 18 C-17.7734375 17.566875 -17.7734375 17.566875 -18.5625 17.125 C-25.76741402 13.79965507 -32.14898874 13.76795041 -40 14 C-37.08322302 11.08322302 -34.36573654 10.06199088 -30.24609375 9.875 C-28.85583984 9.936875 -28.85583984 9.936875 -27.4375 10 C-23.66549046 10.16741235 -21.20969894 10.09612992 -18 8 C-17.67 7.34 -17.34 6.68 -17 6 C-17.63292969 6.16371094 -18.26585938 6.32742187 -18.91796875 6.49609375 C-23.06751093 7.17453601 -27.11641498 7.10555375 -31.3125 7.0625 C-32.14845703 7.05798828 -32.98441406 7.05347656 -33.84570312 7.04882812 C-35.89716649 7.03710548 -37.94859273 7.01917203 -40 7 C-40.33 6.34 -40.66 5.68 -41 5 C-30.80469312 3.50170575 -20.60950902 2.01974558 -10.375 0.8125 C-9.67189697 0.72887207 -8.96879395 0.64524414 -8.24438477 0.55908203 C-5.47455155 0.24000054 -2.79116498 0 0 0 Z " fill="#D7D7D6" transform="translate(61,22)"/>
<path d="M0 0 C0 0.66 0 1.32 0 2 C7.92 2 15.84 2 24 2 C24 2.33 24 2.66 24 3 C22.27230429 3.20325832 20.5446056 3.40649138 18.81689453 3.60961914 C17.30089515 3.78807824 15.78494535 3.96695904 14.26904297 4.14624023 C10.24421719 4.6216297 6.21881891 5.08997765 2.19140625 5.54296875 C1.42562256 5.6301416 0.65983887 5.71731445 -0.12915039 5.80712891 C-1.60330546 5.97475215 -3.07774755 6.13987393 -4.55249023 6.30224609 C-7.51978839 6.64211912 -10.15612146 7.05204049 -13 8 C-5.41 8 2.18 8 10 8 C9.34 9.32 8.68 10.64 8 12 C4.15512535 13.28162488 0.80839723 12.97825059 -3.2109375 12.83984375 C-6.19699672 13.01131214 -8.3018135 13.74902262 -11 15 C-10.34773438 14.98839844 -9.69546875 14.97679687 -9.0234375 14.96484375 C-4.2238086 14.91529006 0.27784685 15.00586249 5 16 C5 16.33 5 16.66 5 17 C2.94921875 17.22786458 0.8984375 17.45572917 -1.15234375 17.68359375 C-3.01140229 17.81886614 -3.01140229 17.81886614 -4 19 C-5.34267413 19.08631874 -6.68974322 19.10706473 -8.03515625 19.09765625 C-8.84404297 19.09443359 -9.65292969 19.09121094 -10.48632812 19.08789062 C-11.33646484 19.07951172 -12.18660156 19.07113281 -13.0625 19.0625 C-13.91650391 19.05798828 -14.77050781 19.05347656 -15.65039062 19.04882812 C-17.76695663 19.03700373 -19.88348685 19.01906769 -22 19 C-22.66 17.02 -23.32 15.04 -24 13 C-21.36 13.33 -18.72 13.66 -16 14 C-16.33 12.68 -16.66 11.36 -17 10 C-19.64 9.67 -22.28 9.34 -25 9 C-20.44403905 4.28693695 -17.4729059 2.74175367 -10.9375 1.9375 C-7.31071054 1.48461917 -3.49645707 0 0 0 Z " fill="#C7C7C6" transform="translate(34,20)"/>
<path d="M0 0 C2.4375 0.5625 2.4375 0.5625 4.078125 2.26953125 C5.71159988 5.02484664 5.75027228 6.63893555 5.625 9.8125 C5.59792969 10.70453125 5.57085937 11.5965625 5.54296875 12.515625 C5.50816406 13.19109375 5.47335938 13.8665625 5.4375 14.5625 C4.7775 14.5625 4.1175 14.5625 3.4375 14.5625 C3.1075 15.5525 2.7775 16.5425 2.4375 17.5625 C-0.27129335 18.91689668 -2.57183268 18.62751451 -5.5625 18.5625 C-5.8925 17.9025 -6.2225 17.2425 -6.5625 16.5625 C-9.27696979 16.25008545 -11.90159361 16.04913408 -14.625 15.9375 C-15.76291992 15.87949219 -15.76291992 15.87949219 -16.92382812 15.8203125 C-18.80297195 15.72576438 -20.68270336 15.64303244 -22.5625 15.5625 C-22.5625 15.2325 -22.5625 14.9025 -22.5625 14.5625 C-17.6125 14.5625 -12.6625 14.5625 -7.5625 14.5625 C-7.48 13.180625 -7.3975 11.79875 -7.3125 10.375 C-6.73451986 5.28556378 -5.48694861 1.20445213 0 0 Z " fill="#484848" transform="translate(51.5625,28.4375)"/>
<path d="M0 0 C3.53571429 0.53571429 3.53571429 0.53571429 5 2 C5 3.66666667 5 5.33333333 5 7 C5.495 7.99 5.495 7.99 6 9 C5.0625 11.125 5.0625 11.125 4 13 C1.525 12.505 1.525 12.505 -1 12 C-1 11.34 -1 10.68 -1 10 C-1.928125 10.309375 -2.85625 10.61875 -3.8125 10.9375 C-11.96155624 13.25406639 -20.59240308 13.16413964 -29 13 C-29.02712066 11.56260487 -29.04645067 10.12506137 -29.0625 8.6875 C-29.07410156 7.88699219 -29.08570313 7.08648437 -29.09765625 6.26171875 C-29 4 -29 4 -28 1 C-27.34 1.33 -26.68 1.66 -26 2 C-26.57584432 4.38564077 -27.22227595 6.66682784 -28 9 C-15.625 8.01 -15.625 8.01 -3 7 C-2.67 5.35 -2.34 3.7 -2 2 C-1.34 1.34 -0.68 0.68 0 0 Z " fill="#898989" transform="translate(86,30)"/>
<path d="M0 0 C0.9178125 0.06574219 1.835625 0.13148437 2.78125 0.19921875 C5.02319405 0.36269384 7.26138548 0.54660588 9.5 0.75 C6.625 6.625 6.625 6.625 5.5 7.75 C3.64630389 7.83737645 1.78932459 7.85698153 -0.06640625 7.84765625 C-1.19111328 7.84443359 -2.31582031 7.84121094 -3.47460938 7.83789062 C-4.65861328 7.82951172 -5.84261719 7.82113281 -7.0625 7.8125 C-8.25037109 7.80798828 -9.43824219 7.80347656 -10.66210938 7.79882812 C-13.60812226 7.78699675 -16.55403681 7.77051287 -19.5 7.75 C-19.12921903 5.350013 -18.8932329 4.08894909 -17.02148438 2.47558594 C-11.18154812 -0.52721816 -6.45535482 -0.59111534 0 0 Z " fill="#272625" transform="translate(53.5,14.25)"/>
<path d="M0 0 C0.74507812 0.00193359 1.49015625 0.00386719 2.2578125 0.00585938 C3.02609375 0.01810547 3.794375 0.03035156 4.5859375 0.04296875 C5.36195312 0.04361328 6.13796875 0.04425781 6.9375 0.04492188 C12.67956349 0.08978175 12.67956349 0.08978175 14.9609375 1.23046875 C14.9609375 2.22046875 14.9609375 3.21046875 14.9609375 4.23046875 C18.2609375 4.56046875 21.5609375 4.89046875 24.9609375 5.23046875 C25.4559375 6.71546875 25.4559375 6.71546875 25.9609375 8.23046875 C27.9409375 8.56046875 29.9209375 8.89046875 31.9609375 9.23046875 C31.9609375 9.56046875 31.9609375 9.89046875 31.9609375 10.23046875 C24.3709375 10.56046875 16.7809375 10.89046875 8.9609375 11.23046875 C8.9609375 10.57046875 8.9609375 9.91046875 8.9609375 9.23046875 C8.3009375 8.90046875 7.6409375 8.57046875 6.9609375 8.23046875 C7.9509375 6.58046875 8.9409375 4.93046875 9.9609375 3.23046875 C4.0209375 2.90046875 -1.9190625 2.57046875 -8.0390625 2.23046875 C-3.53530839 -0.0214083 -3.53530839 -0.0214083 0 0 Z " fill="#A6A6A5" transform="translate(52.0390625,12.76953125)"/>
<path d="M0 0 C8.25 0 16.5 0 25 0 C25 0.33 25 0.66 25 1 C24.09507813 1.07347656 24.09507813 1.07347656 23.171875 1.1484375 C22.37265625 1.22320313 21.5734375 1.29796875 20.75 1.375 C19.56664062 1.47941406 19.56664062 1.47941406 18.359375 1.5859375 C15.87914019 2.0212105 14.14017625 2.68369691 12 4 C11.67 4.66 11.34 5.32 11 6 C14.63 6 18.26 6 22 6 C21.67 6.66 21.34 7.32 21 8 C17.07226248 9.14170067 13.25421021 9.10357788 9.1875 9.0625 C8.02605469 9.05347656 6.86460938 9.04445313 5.66796875 9.03515625 C4.78753906 9.02355469 3.90710937 9.01195312 3 9 C3.185625 7.865625 3.37125 6.73125 3.5625 5.5625 C3.706875 4.386875 3.85125 3.21125 4 2 C3.67 1.67 3.34 1.34 3 1 C2.67 1.99 2.34 2.98 2 4 C1.34 2.68 0.68 1.36 0 0 Z " fill="#BFBFBE" transform="translate(55,30)"/>
<path d="M0 0 C0 0.33 0 0.66 0 1 C-11.385 1.99 -11.385 1.99 -23 3 C-16.07 3 -9.14 3 -2 3 C-1.505 3.99 -1.505 3.99 -1 5 C-5.21751282 5.04946113 -9.43487168 5.08574827 -13.65258789 5.10986328 C-15.08718812 5.119917 -16.52176789 5.13356194 -17.95629883 5.15087891 C-20.01909438 5.17515549 -22.08161885 5.18648919 -24.14453125 5.1953125 C-25.38565674 5.20578613 -26.62678223 5.21625977 -27.90551758 5.22705078 C-31 5 -31 5 -34 3 C-34 2.34 -34 1.68 -34 1 C-22.66560627 -0.17759935 -11.3815148 -0.10492107 0 0 Z " fill="#E3E3E2" transform="translate(86,24)"/>
<path d="M0 0 C-0.8125 1.9375 -0.8125 1.9375 -2 4 C-5.13723892 5.04574631 -7.28038753 5.06992517 -10.5625 5 C-14.43123651 4.81633753 -14.43123651 4.81633753 -18 6 C-20.3329866 6.04022391 -22.66706666 6.04320247 -25 6 C-25 4.35 -25 2.7 -25 1 C-21.77093849 0.83125405 -18.54173589 0.66537263 -15.3125 0.5 C-14.40048828 0.45230469 -13.48847656 0.40460937 -12.54882812 0.35546875 C-11.66259766 0.31035156 -10.77636719 0.26523437 -9.86328125 0.21875 C-9.05157471 0.17685547 -8.23986816 0.13496094 -7.40356445 0.09179688 C-4.93328996 -0.00254779 -2.47182511 -0.01538879 0 0 Z " fill="#818181" transform="translate(44,28)"/>
<path d="M0 0 C1.31097656 0.01353516 1.31097656 0.01353516 2.6484375 0.02734375 C3.30070312 0.03894531 3.95296875 0.05054687 4.625 0.0625 C4.625 0.3925 4.625 0.7225 4.625 1.0625 C3.5525 1.165625 2.48 1.26875 1.375 1.375 C-2.27650273 1.75638661 -2.27650273 1.75638661 -4.375 3.5625 C-9.26100849 7.22700637 -16.91796938 6.1867477 -22.8125 6.125 C-23.63943359 6.12048828 -24.46636719 6.11597656 -25.31835938 6.11132812 C-27.33727146 6.09965811 -29.35614574 6.08172718 -31.375 6.0625 C-31.705 5.4025 -32.035 4.7425 -32.375 4.0625 C-31.46790283 3.93403687 -31.46790283 3.93403687 -30.54248047 3.80297852 C-27.77821329 3.41106968 -25.01410597 3.01804417 -22.25 2.625 C-21.29867188 2.49029297 -20.34734375 2.35558594 -19.3671875 2.21679688 C-15.57820267 1.67739278 -11.79983641 1.13793824 -8.03125 0.46875 C-5.30924583 0.05244348 -2.75102914 -0.03717607 0 0 Z " fill="#E6E5E4" transform="translate(52.375,22.9375)"/>
<path d="M0 0 C-0.804375 0.763125 -1.60875 1.52625 -2.4375 2.3125 C-5.16799024 4.79430898 -5.16799024 4.79430898 -6 8 C-8.31 8.33 -10.62 8.66 -13 9 C-13 8.67 -13 8.34 -13 8 C-16.3 7.67 -19.6 7.34 -23 7 C-22 4 -22 4 -19.77734375 2.8828125 C-13.40368064 0.85686614 -6.69893811 -0.36210476 0 0 Z " fill="#ADADAC" transform="translate(89,29)"/>
<path d="M0 0 C3.53571429 0.53571429 3.53571429 0.53571429 5 2 C5 3.66666667 5 5.33333333 5 7 C5.33 7.66 5.66 8.32 6 9 C5.0625 11.125 5.0625 11.125 4 13 C2.35 12.67 0.7 12.34 -1 12 C-1 11.34 -1 10.68 -1 10 C-1.66 9.67 -2.32 9.34 -3 9 C-2.25 2.25 -2.25 2.25 0 0 Z " fill="#5B5B5A" transform="translate(86,30)"/>
<path d="M0 0 C2.64 0 5.28 0 8 0 C8.33 1.65 8.66 3.3 9 5 C6.69 5 4.38 5 2 5 C2.33 6.32 2.66 7.64 3 9 C0.525 8.01 0.525 8.01 -2 7 C-1.125 2.25 -1.125 2.25 0 0 Z " fill="#C0C0BF" transform="translate(9,29)"/>
<path d="M0 0 C2.97 0 5.94 0 9 0 C8.16796875 2.48046875 8.16796875 2.48046875 6 5 C2.4333107 5.66399041 -1.07509031 5.46748787 -4.6875 5.3125 C-5.67556641 5.28994141 -6.66363281 5.26738281 -7.68164062 5.24414062 C-10.12261559 5.18517988 -12.56054868 5.10295048 -15 5 C-15 4.67 -15 4.34 -15 4 C-10.71 4 -6.42 4 -2 4 C-2 3.34 -2 2.68 -2 2 C-1.34 2 -0.68 2 0 2 C0 1.34 0 0.68 0 0 Z " fill="#433F3A" transform="translate(53,17)"/>
<path d="M0 0 C1.65 0 3.3 0 5 0 C5.33 0.99 5.66 1.98 6 3 C8.97 3.495 8.97 3.495 12 4 C12 4.33 12 4.66 12 5 C4.41 5.33 -3.18 5.66 -11 6 C-11 5.34 -11 4.68 -11 4 C-7.7 3.67 -4.4 3.34 -1 3 C-0.67 2.01 -0.34 1.02 0 0 Z " fill="#74594A" transform="translate(72,18)"/>
<path d="M0 0 C1.21816406 0.03480469 1.21816406 0.03480469 2.4609375 0.0703125 C3.68683594 0.09738281 3.68683594 0.09738281 4.9375 0.125 C5.87722656 0.15980469 5.87722656 0.15980469 6.8359375 0.1953125 C7.1659375 1.5153125 7.4959375 2.8353125 7.8359375 4.1953125 C4.78609754 5.72023248 2.1936006 5.43093798 -1.1640625 5.1953125 C-3.1015625 3.6953125 -3.1015625 3.6953125 -4.1640625 2.1953125 C-2.1640625 0.1953125 -2.1640625 0.1953125 0 0 Z " fill="#434342" transform="translate(33.1640625,36.8046875)"/>
<path d="M0 0 C1.00289062 0.10183594 2.00578125 0.20367187 3.0390625 0.30859375 C3.80992188 0.39238281 4.58078125 0.47617187 5.375 0.5625 C5.375 0.8925 5.375 1.2225 5.375 1.5625 C3.32421875 1.79036458 1.2734375 2.01822917 -0.77734375 2.24609375 C-2.63640229 2.38136614 -2.63640229 2.38136614 -3.625 3.5625 C-4.96767413 3.64881874 -6.31474322 3.66956473 -7.66015625 3.66015625 C-8.46904297 3.65693359 -9.27792969 3.65371094 -10.11132812 3.65039062 C-10.96146484 3.64201172 -11.81160156 3.63363281 -12.6875 3.625 C-13.54150391 3.62048828 -14.39550781 3.61597656 -15.27539062 3.61132812 C-17.39195663 3.59950373 -19.50848685 3.58156769 -21.625 3.5625 C-21.625 3.2325 -21.625 2.9025 -21.625 2.5625 C-20.14386719 2.36333984 -20.14386719 2.36333984 -18.6328125 2.16015625 C-17.35148437 1.98355469 -16.07015625 1.80695312 -14.75 1.625 C-12.83574219 1.36396484 -12.83574219 1.36396484 -10.8828125 1.09765625 C-2.56599959 -0.26853484 -2.56599959 -0.26853484 0 0 Z " fill="#B7B7B6" transform="translate(33.625,35.4375)"/>
<path d="M0 0 C0.33 0.99 0.66 1.98 1 3 C2.65 3.33 4.3 3.66 6 4 C6 5.32 6 6.64 6 8 C2.7 8 -0.6 8 -4 8 C-2.87548273 5.0280615 -1.77706209 2.66559313 0 0 Z " fill="#98826E" transform="translate(66,14)"/>
<path d="M0 0 C1.16144531 0.00902344 2.32289062 0.01804687 3.51953125 0.02734375 C4.39996094 0.03894531 5.28039062 0.05054688 6.1875 0.0625 C5.8575 0.7225 5.5275 1.3825 5.1875 2.0625 C2.2175 2.0625 -0.7525 2.0625 -3.8125 2.0625 C-3.8125 2.7225 -3.8125 3.3825 -3.8125 4.0625 C-5.7925 4.0625 -7.7725 4.0625 -9.8125 4.0625 C-9.8125 3.4025 -9.8125 2.7425 -9.8125 2.0625 C-10.4725 1.7325 -11.1325 1.4025 -11.8125 1.0625 C-7.81454108 0.10630267 -4.10446078 -0.0414592 0 0 Z " fill="#151514" transform="translate(56.8125,14.9375)"/>
<path d="M0 0 C2.125 0.375 2.125 0.375 4 1 C4 2.65 4 4.3 4 6 C3.360625 6.103125 2.72125 6.20625 2.0625 6.3125 C1.381875 6.539375 0.70125 6.76625 0 7 C-0.33 7.99 -0.66 8.98 -1 10 C-1.66 9.67 -2.32 9.34 -3 9 C-2.25 2.25 -2.25 2.25 0 0 Z " fill="#474747" transform="translate(86,30)"/>
<path d="M0 0 C0.66 0 1.32 0 2 0 C2.33 2.31 2.66 4.62 3 7 C2.34 7 1.68 7 1 7 C0.67 7.99 0.34 8.98 0 10 C-1.98 10 -3.96 10 -6 10 C-6 9.01 -6 8.02 -6 7 C-5.34 7 -4.68 7 -4 7 C-3.34 6.34 -2.68 5.68 -2 5 C-2 5.66 -2 6.32 -2 7 C-1.34 7 -0.68 7 0 7 C0 4.69 0 2.38 0 0 Z " fill="#575757" transform="translate(54,36)"/>
<path d="M0 0 C0.74958984 0.05220703 1.49917969 0.10441406 2.27148438 0.15820312 C4.11887082 0.28763784 5.96574371 0.42436518 7.8125 0.5625 C7.4825 1.2225 7.1525 1.8825 6.8125 2.5625 C4.3747037 2.61647335 1.93810315 2.65615616 -0.5 2.6875 C-1.53543945 2.71263672 -1.53543945 2.71263672 -2.59179688 2.73828125 C-6.35885396 2.77467794 -7.97181704 2.70628864 -11.1875 0.5625 C-7.35939179 -0.71353607 -3.95274893 -0.30033987 0 0 Z " fill="#0D0D0C" transform="translate(20.1875,41.4375)"/>
<path d="M0 0 C0.66 0.33 1.32 0.66 2 1 C3.28317892 4.84953676 3.06643637 7.94738135 3 12 C1.68 12.33 0.36 12.66 -1 13 C-0.979375 12.05125 -0.95875 11.1025 -0.9375 10.125 C-0.77448174 7.09333717 -0.77448174 7.09333717 -2 5 C-1.01 5 -0.02 5 1 5 C0.67 3.35 0.34 1.7 0 0 Z " fill="#9D9492" transform="translate(91,25)"/>
<path d="M0 0 C0.79921875 0.00902344 1.5984375 0.01804687 2.421875 0.02734375 C3.02515625 0.03894531 3.6284375 0.05054687 4.25 0.0625 C4.58 0.7225 4.91 1.3825 5.25 2.0625 C2.60541621 3.38479189 0.57238699 3.15927194 -2.375 3.125 C-3.37789062 3.11597656 -4.38078125 3.10695313 -5.4140625 3.09765625 C-6.18492188 3.08605469 -6.95578125 3.07445312 -7.75 3.0625 C-8.08 2.4025 -8.41 1.7425 -8.75 1.0625 C-5.75519083 0.1901588 -3.11424089 -0.04579766 0 0 Z " fill="#EDEDEC" transform="translate(28.75,25.9375)"/>
<path d="M0 0 C2.64 0 5.28 0 8 0 C8 0.66 8 1.32 8 2 C10.64 2.33 13.28 2.66 16 3 C16 3.33 16 3.66 16 4 C13.89611431 4.05402274 11.79183286 4.09280256 9.6875 4.125 C7.92986328 4.15980469 7.92986328 4.15980469 6.13671875 4.1953125 C3 4 3 4 0 2 C0 1.34 0 0.68 0 0 Z " fill="#F0EFEE" transform="translate(52,25)"/>
<path d="M0 0 C2.3125 -0.25 2.3125 -0.25 5 0 C6.8125 1.5625 6.8125 1.5625 8 4 C8.1875 7.75 8.1875 7.75 8 11 C7.87625 10.360625 7.7525 9.72125 7.625 9.0625 C7.41875 8.381875 7.2125 7.70125 7 7 C6.34 6.67 5.68 6.34 5 6 C5 5.34 5 4.68 5 4 C2.03 3.505 2.03 3.505 -1 3 C-0.67 2.01 -0.34 1.02 0 0 Z " fill="#303030" transform="translate(49,29)"/>
<path d="M0 0 C0.99 0.33 1.98 0.66 3 1 C3 1.99 3 2.98 3 4 C-2.28 4 -7.56 4 -13 4 C-13.33 3.34 -13.66 2.68 -14 2 C-9.38 2 -4.76 2 0 2 C0 1.34 0 0.68 0 0 Z " fill="#999898" transform="translate(41,39)"/>
<path d="M0 0 C2.64 0 5.28 0 8 0 C7.67 1.32 7.34 2.64 7 4 C4.69 4 2.38 4 0 4 C0 2.68 0 1.36 0 0 Z " fill="#444443" transform="translate(19,30)"/>
<path d="M0 0 C0.99 0.66 1.98 1.32 3 2 C1.02 2.99 1.02 2.99 -1 4 C-1 5.32 -1 6.64 -1 8 C-0.34 8.33 0.32 8.66 1 9 C0.34 10.32 -0.32 11.64 -1 13 C-3 10 -3 10 -2.75 6.5 C-2 3 -2 3 0 0 Z " fill="#5F5F5F" transform="translate(47,31)"/>
<path d="M0 0 C0.763125 0.20625 1.52625 0.4125 2.3125 0.625 C2.3125 1.945 2.3125 3.265 2.3125 4.625 C0.6625 4.625 -0.9875 4.625 -2.6875 4.625 C-2.6875 3.965 -2.6875 3.305 -2.6875 2.625 C-3.6775 2.295 -4.6675 1.965 -5.6875 1.625 C-2.6875 -0.375 -2.6875 -0.375 0 0 Z " fill="#5E5E5E" transform="translate(15.6875,29.375)"/>
<path d="M0 0 C-0.99 0.33 -1.98 0.66 -3 1 C-3 1.66 -3 2.32 -3 3 C-2.34 3.33 -1.68 3.66 -1 4 C-3.97 4 -6.94 4 -10 4 C-4.75 -1.425 -4.75 -1.425 0 0 Z " fill="#DEDDDC" transform="translate(19,25)"/>
<path d="M0 0 C2.97 0 5.94 0 9 0 C8.34 1.32 7.68 2.64 7 4 C4.36 4 1.72 4 -1 4 C0.32 3.67 1.64 3.34 3 3 C3 2.34 3 1.68 3 1 C2.01 0.67 1.02 0.34 0 0 Z " fill="#2F302E" transform="translate(53,17)"/>
<path d="M0 0 C0 0.33 0 0.66 0 1 C-6.435 1.495 -6.435 1.495 -13 2 C-8.53383165 -2.46616835 -5.62528171 -2.73227969 0 0 Z " fill="#DAD9D9" transform="translate(33,25)"/>
<path d="M0 0 C-0.33 0.99 -0.66 1.98 -1 3 C-4.47325181 4.1577506 -7.36067448 4.06866652 -11 4 C-7.63661956 0.63661956 -4.71164284 0 0 0 Z " fill="#E2E2E1" transform="translate(32,32)"/>
<path d="M0 0 C2.97851562 0.53710938 2.97851562 0.53710938 5.95703125 1.07421875 C5.95703125 1.73421875 5.95703125 2.39421875 5.95703125 3.07421875 C2.32703125 3.07421875 -1.30296875 3.07421875 -5.04296875 3.07421875 C-2.04296875 0.07421875 -2.04296875 0.07421875 0 0 Z " fill="#2A3030" transform="translate(45.04296875,17.92578125)"/>
<path d="M0 0 C3.875 0.875 3.875 0.875 5 2 C6.34747084 2.23075082 7.70377565 2.41153063 9.0625 2.5625 C10.361875 2.706875 11.66125 2.85125 13 3 C13 3.33 13 3.66 13 4 C11.20841511 4.02696365 9.41671527 4.04637917 7.625 4.0625 C6.62726562 4.07410156 5.62953125 4.08570313 4.6015625 4.09765625 C2 4 2 4 0 3 C0 2.01 0 1.02 0 0 Z " fill="#434342" transform="translate(7,36)"/>
<path d="M0 0 C0.66 0 1.32 0 2 0 C4.125 4.625 4.125 4.625 3 8 C2.01 8 1.02 8 0 8 C-0.38063221 5.6739143 -0.71269945 3.33944736 -1 1 C-0.67 0.67 -0.34 0.34 0 0 Z " fill="#3D3D3D" transform="translate(47,36)"/>
<path d="M0 0 C4.29 0 8.58 0 13 0 C13.33 0.99 13.66 1.98 14 3 C13.01 3 12.02 3 11 3 C11 2.34 11 1.68 11 1 C7.37 1 3.74 1 0 1 C0 0.67 0 0.34 0 0 Z " fill="#111110" transform="translate(32,44)"/>
<path d="M0 0 C4.29 0.33 8.58 0.66 13 1 C13 1.33 13 1.66 13 2 C7.06 2.495 7.06 2.495 1 3 C0.67 2.01 0.34 1.02 0 0 Z " fill="#969594" transform="translate(7,39)"/>
<path d="M0 0 C0.33 0.66 0.66 1.32 1 2 C-5.625 3.25 -5.625 3.25 -9 1 C-5.8035914 -0.06546953 -3.34252724 -0.07427838 0 0 Z " fill="#2E2E2D" transform="translate(18,41)"/>
<path d="M0 0 C0.33 1.32 0.66 2.64 1 4 C-1 4 -3 4 -5 4 C-5 3.34 -5 2.68 -5 2 C-3.35 1.34 -1.7 0.68 0 0 Z " fill="#E5E5E4" transform="translate(45,30)"/>
<path d="M0 0 C0.33 0 0.66 0 1 0 C1 1.65 1 3.3 1 5 C-0.65 5.33 -2.3 5.66 -4 6 C-4.33 5.01 -4.66 4.02 -5 3 C-3.35 3 -1.7 3 0 3 C0 2.01 0 1.02 0 0 Z " fill="#959594" transform="translate(83,34)"/>
</svg>
