<?xml version="1.0" encoding="UTF-8"?>
<svg version="1.1" xmlns="http://www.w3.org/2000/svg" width="74" height="74">
<path d="M0 0 C1.5703125 2.1796875 1.5703125 2.1796875 3.125 4.875 C3.90230469 6.20144531 3.90230469 6.20144531 4.6953125 7.5546875 C6 10 6 10 7 13 C7.66 12.34 8.32 11.68 9 11 C12.125 11.375 12.125 11.375 15 12 C15 13.32 15 14.64 15 16 C13.35 16.66 11.7 17.32 10 18 C10.28875 18.6290625 10.5775 19.258125 10.875 19.90625 C11.24625 20.7621875 11.6175 21.618125 12 22.5 C12.37125 23.3353125 12.7425 24.170625 13.125 25.03125 C15.09774179 31.72448106 13.78928761 38.29802748 12.5 45 C12.35691406 45.77472656 12.21382813 46.54945312 12.06640625 47.34765625 C11.71727671 49.23295579 11.35954684 51.11665939 11 53 C7.7 53 4.4 53 1 53 C1 51.02 1 49.04 1 47 C-13.85 47 -28.7 47 -44 47 C-44 48.65 -44 50.3 -44 52 C-46 54 -46 54 -49.5 54.25 C-53 54 -53 54 -55 52 C-55.63651987 49.44808087 -56.16547736 46.9586426 -56.625 44.375 C-56.7590625 43.68792969 -56.893125 43.00085937 -57.03125 42.29296875 C-58.29825706 35.4020018 -58.92538652 29.08211968 -56 22.5 C-55.62875 21.6440625 -55.2575 20.788125 -54.875 19.90625 C-54.58625 19.2771875 -54.2975 18.648125 -54 18 C-56.475 17.01 -56.475 17.01 -59 16 C-59 14.68 -59 13.36 -59 12 C-56.125 11.375 -56.125 11.375 -53 11 C-52.34 11.66 -51.68 12.32 -51 13 C-50.61328125 12.15695313 -50.2265625 11.31390625 -49.828125 10.4453125 C-49.04695313 8.80175781 -49.04695313 8.80175781 -48.25 7.125 C-47.73953125 6.03445312 -47.2290625 4.94390625 -46.703125 3.8203125 C-44.90546433 0.84345239 -44.26159838 -0.01745076 -41 -1 C-28.88501472 -2.90071393 -11.72394467 -3.90798156 0 0 Z " fill="#F97059" transform="translate(59,11)"/>
<path d="M0 0 C1.67704758 0.00079109 3.35422529 0.02901323 5.03051758 0.0793457 C5.91411453 0.08642044 6.79771149 0.09349518 7.70808411 0.1007843 C10.53126574 0.12878169 13.35246642 0.19152825 16.17504883 0.25512695 C18.08843165 0.28020299 20.00184555 0.30301738 21.9152832 0.32348633 C26.6068021 0.37862572 31.2968396 0.46493376 35.98754883 0.56762695 C36.99239086 2.5234802 37.99128688 4.48238932 38.98754883 6.44262695 C39.54442383 7.53317383 40.10129883 8.6237207 40.67504883 9.74731445 C41.98754883 12.56762695 41.98754883 12.56762695 41.98754883 14.56762695 C24.82754883 14.56762695 7.66754883 14.56762695 -10.01245117 14.56762695 C-5.28109856 0.37356913 -5.28109856 0.37356913 0 0 Z " fill="#344858" transform="translate(21.012451171875,11.432373046875)"/>
<path d="M0 0 C9.9 0 19.8 0 30 0 C30 1.98 30 3.96 30 6 C20.1 6 10.2 6 0 6 C0 4.02 0 2.04 0 0 Z " fill="#3A5569" transform="translate(22,49)"/>
<path d="M0 0 C4.83169556 0.59163619 9.40028099 1.37656976 14 3 C16 6 16 6 16 9 C13.89695523 9.1080023 11.79233091 9.18558987 9.6875 9.25 C7.92986328 9.31960937 7.92986328 9.31960937 6.13671875 9.390625 C3 9 3 9 1.09375 7.15625 C-0.2047244 4.59640047 -0.23613445 2.83361344 0 0 Z " fill="#E0DDDF" transform="translate(5,34)"/>
<path d="M0 0 C1.51835449 0.06453369 1.51835449 0.06453369 3.06738281 0.13037109 C10.34913536 0.49137845 10.34913536 0.49137845 13.75 1.625 C13.75 2.285 13.75 2.945 13.75 3.625 C11.87296387 3.5935791 11.87296387 3.5935791 9.95800781 3.56152344 C5.31391855 3.48910606 0.66987917 3.44319382 -3.97460938 3.40527344 C-5.98446038 3.38516195 -7.99425291 3.35786885 -10.00390625 3.32324219 C-12.89337596 3.27470366 -15.78207191 3.25202678 -18.671875 3.234375 C-19.56992859 3.21372986 -20.46798218 3.19308472 -21.39324951 3.17181396 C-26.51483788 3.11531512 -26.51483788 3.11531512 -30.84863281 5.64941406 C-31.31108398 6.30135742 -31.77353516 6.95330078 -32.25 7.625 C-32.25 4.625 -32.25 4.625 -30.25 1.625 C-20.86252213 -1.50415929 -9.74150089 -0.4189729 0 0 Z " fill="#FD7354" transform="translate(45.25,9.375)"/>
<path d="M0 0 C-0.75 5.75 -0.75 5.75 -3 8 C-6.0390625 8.1953125 -6.0390625 8.1953125 -9.625 8.125 C-10.81351563 8.10695313 -12.00203125 8.08890625 -13.2265625 8.0703125 C-14.14179687 8.04710937 -15.05703125 8.02390625 -16 8 C-15.43772818 4.73882343 -14.66159685 3.01546309 -12 1 C-9.58984375 0.234375 -9.58984375 0.234375 -6.9375 -0.25 C-5.62072266 -0.50523438 -5.62072266 -0.50523438 -4.27734375 -0.765625 C-2 -1 -2 -1 0 0 Z " fill="#DFDEE0" transform="translate(69,35)"/>
<path d="M0 0 C8.25 0 16.5 0 25 0 C25 0.99 25 1.98 25 3 C16.75 3 8.5 3 0 3 C0 2.01 0 1.02 0 0 Z " fill="#445669" transform="translate(24,40)"/>
<path d="M0 0 C3.63 0.33 7.26 0.66 11 1 C11 2.65 11 4.3 11 6 C9 8 9 8 5.5 8.25 C2 8 2 8 0 6 C-0.125 2.875 -0.125 2.875 0 0 Z " fill="#2F4858" transform="translate(4,57)"/>
<path d="M0 0 C0.33 0 0.66 0 1 0 C1 2.64 1 5.28 1 8 C-2.3 8 -5.6 8 -9 8 C-9 6.02 -9 4.04 -9 2 C-6.94921875 1.77213542 -4.8984375 1.54427083 -2.84765625 1.31640625 C-0.98859771 1.18113386 -0.98859771 1.18113386 0 0 Z " fill="#314859" transform="translate(69,56)"/>
<path d="M0 0 C3.125 0.375 3.125 0.375 6 1 C6.33 2.98 6.66 4.96 7 7 C6.01 7 5.02 7 4 7 C3.67 6.34 3.34 5.68 3 5 C1.68 5.33 0.36 5.66 -1 6 C-1.625 4.125 -1.625 4.125 -2 2 C-1.34 1.34 -0.68 0.68 0 0 Z " fill="#D2CFD1" transform="translate(10,35)"/>
<path d="M0 0 C0.5625 1.9375 0.5625 1.9375 1 4 C0.67 4.33 0.34 4.66 0 5 C-2.33944736 4.71269945 -4.6739143 4.38063221 -7 4 C-7 2.68 -7 1.36 -7 0 C-4.3333581 -1.33332095 -2.83319697 -0.67102033 0 0 Z " fill="#314756" transform="translate(7,23)"/>
<path d="M0 0 C2.97 0.495 2.97 0.495 6 1 C6 2.32 6 3.64 6 5 C3.69 5.33 1.38 5.66 -1 6 C-1.33 5.01 -1.66 4.02 -2 3 C-1.34 2.01 -0.68 1.02 0 0 Z " fill="#2E4959" transform="translate(68,22)"/>
<path d="M0 0 C0.625 1.875 0.625 1.875 1 4 C0.34 4.66 -0.32 5.32 -1 6 C-3.125 5.625 -3.125 5.625 -5 5 C-5.33 3.35 -5.66 1.7 -6 0 C-3.50907189 -1.24546405 -2.58919267 -0.7767578 0 0 Z " fill="#EDE2E2" transform="translate(13,49)"/>
<path d="M0 0 C1.65 0.33 3.3 0.66 5 1 C4.67 2.65 4.34 4.3 4 6 C2.35 5.67 0.7 5.34 -1 5 C-0.67 3.35 -0.34 1.7 0 0 Z " fill="#EBEDEF" transform="translate(62,48)"/>
<path d="M0 0 C0.33 1.98 0.66 3.96 1 6 C0.21625 5.79375 -0.5675 5.5875 -1.375 5.375 C-2.674375 5.189375 -2.674375 5.189375 -4 5 C-4.66 5.66 -5.32 6.32 -6 7 C-5.37162381 3.35541809 -4.14650034 0 0 0 Z " fill="#D6CFD0" transform="translate(59,36)"/>
<path d="M0 0 C1.65 0 3.3 0 5 0 C4.67 1.32 4.34 2.64 4 4 C2.68 3.67 1.36 3.34 0 3 C0 2.01 0 1.02 0 0 Z " fill="#C0C1C4" transform="translate(61,37)"/>
<path d="M0 0 C2.475 0.495 2.475 0.495 5 1 C4.67 1.99 4.34 2.98 4 4 C2.68 3.67 1.36 3.34 0 3 C0 2.01 0 1.02 0 0 Z " fill="#BEC0C3" transform="translate(8,37)"/>
</svg>
