<?xml version="1.0" encoding="UTF-8"?>
<svg version="1.1" xmlns="http://www.w3.org/2000/svg" width="1080" height="1080">
<path d="M0 0 C3.56695759 2.77430035 6.96611348 5.64393084 10 9 C10 9.66 10 10.32 10 11 C10.66 11 11.32 11 12 11 C22.08854882 24.9294903 23.38762602 39.29721287 22 56 C21.17712208 60.63043169 19.88256577 64.69865777 18 69 C17.55269531 70.03382813 17.10539062 71.06765625 16.64453125 72.1328125 C13.88610382 78.03422024 10.66483545 83.14185442 6.515625 88.16015625 C4.83829389 90.13325232 4.83829389 90.13325232 3 93 C2.34 93 1.68 93 1 93 C1 93.66 1 94.32 1 95 C-4.47619048 100 -4.47619048 100 -7 100 C-7 100.66 -7 101.32 -7 102 C-9.22177778 103.59207606 -11.4323327 105.06065503 -13.75 106.5 C-14.70132813 107.10521484 -14.70132813 107.10521484 -15.671875 107.72265625 C-24.03202351 113 -24.03202351 113 -27.625 113 C-35.39655644 110.69731661 -41.85070332 105.54317192 -48.08984375 100.515625 C-50.13259684 98.85191694 -50.13259684 98.85191694 -53 97 C-53 96.34 -53 95.68 -53 95 C-53.83917969 94.67322266 -53.83917969 94.67322266 -54.6953125 94.33984375 C-66.13422126 87.68976628 -72.96796434 71.9417036 -76.50878906 59.83251953 C-81.01273979 42.39601523 -77.61694124 27.64067192 -68.68359375 12.30078125 C-67 10 -67 10 -64 9 C-64 8.34 -64 7.68 -64 7 C-63.34 7 -62.68 7 -62 7 C-62 6.34 -62 5.68 -62 5 C-61.34 5 -60.68 5 -60 5 C-59.67 4.01 -59.34 3.02 -59 2 C-41.54147353 -11.30173446 -18.31886785 -11.25674286 0 0 Z M-52 27 C-57.79856372 34.62968911 -59.68682166 42.69934017 -58.7890625 52.2421875 C-56.95087239 60.87821271 -52.26950128 68.05845296 -45 73 C-44.29230469 73.48726562 -43.58460938 73.97453125 -42.85546875 74.4765625 C-35.59041505 78.78981163 -28.2716477 79.13602028 -20 78 C-15.16442764 76.33086842 -11.23054005 73.82036003 -7 71 C-7 70.34 -7 69.68 -7 69 C-6.34 69 -5.68 69 -5 69 C-5 68.34 -5 67.68 -5 67 C-4.34 67 -3.68 67 -3 67 C2.48436584 58.14547042 5.21161097 50.38899608 3 40 C0.99432556 31.80358241 -3.97654348 24.67787398 -11.0625 20.0625 C-25.22827499 11.70678917 -41.14282723 15.43912159 -52 27 Z " fill="#0073BD" transform="translate(368,429)"/>
<path d="M0 0 C31.30056091 -0.74036989 31.30056091 -0.74036989 39.0625 5.4375 C39.701875 6.283125 40.34125 7.12875 41 8 C41.5775 8.70125 42.155 9.4025 42.75 10.125 C46.39593136 15.59389704 45.47076778 22.72533801 45 29 C42.97452426 37.94381755 37.57354776 44.84064558 30 49.875 C21.98247214 54.81683829 13.68696546 54.24475573 4.5625 54.125 C3.25861328 54.11597656 1.95472656 54.10695313 0.61132812 54.09765625 C-2.59263832 54.07418397 -5.79622264 54.04134727 -9 54 C-8.49116773 43.89864109 -6.76353878 34.05237937 -4.98876953 24.11474609 C-4.49503163 21.34715034 -4.01061812 18.57803388 -3.52734375 15.80859375 C-3.21668586 14.04677969 -2.90550739 12.28505733 -2.59375 10.5234375 C-2.44893188 9.69645355 -2.30411377 8.8694696 -2.15490723 8.01742554 C-1.11580034 2.23160067 -1.11580034 2.23160067 0 0 Z M13 14 C12.32570033 17.39436356 11.6619172 20.79070193 11 24.1875 C10.71382812 25.62706055 10.71382812 25.62706055 10.421875 27.09570312 C10.24140625 28.02705078 10.0609375 28.95839844 9.875 29.91796875 C9.70742188 30.77156982 9.53984375 31.6251709 9.3671875 32.50463867 C8.99404771 35.04045103 8.93587004 37.44081397 9 40 C15.2702137 40.44787241 19.86570453 39.83936254 25 36 C28.17197928 32.5607191 29.26251896 28.99778477 29.5625 24.375 C29.40215175 20.76099722 29.0254462 20.03301129 26.6875 17 C23.295162 14.4754694 20.9319665 13.86996776 16.8125 13.9375 C15.554375 13.958125 14.29625 13.97875 13 14 Z " fill="#FFFFFF" transform="translate(580,465)"/>
<path d="M0 0 C4.4144636 3.72776926 8.16146691 8.1302684 9 14 C9.04145315 16.66726168 9.01348719 19.33223449 9 22 C8.28980713 22.14099121 7.57961426 22.28198242 6.84790039 22.42724609 C3.5858919 23.07545382 0.32419492 23.72521635 -2.9375 24.375 C-4.05447266 24.59671875 -5.17144531 24.8184375 -6.32226562 25.046875 C-12.56629182 26.29201805 -18.79086839 27.59092878 -25 29 C-20.54932902 31.3486575 -16.97919608 31.46318103 -12 31 C-9.21433941 30.08742694 -9.21433941 30.08742694 -7 29 C-6.01 29 -5.02 29 -4 29 C-2.39453125 30.96875 -2.39453125 30.96875 -0.8125 33.5 C-0.28269531 34.3353125 0.24710938 35.170625 0.79296875 36.03125 C1.19128906 36.6809375 1.58960938 37.330625 2 38 C1.01405596 40.5421368 0.35642837 41.78028388 -1.99609375 43.23046875 C-12.61050676 47.39131865 -22.20346042 48.22607407 -33 44 C-38.48458009 40.82367844 -42.26784699 36.10865794 -44 30 C-45.0631898 22.06443901 -44.09185938 14.93576165 -40 8 C-30.71686591 -3.91298079 -13.37368842 -7.05158117 0 0 Z M-23 12 C-24.90206849 15.05039221 -24.90206849 15.05039221 -26 18 C-19.96251023 17.19500136 -13.98729887 16.11517502 -8 15 C-9.40510893 11.63187125 -9.70947663 11.12850072 -13.25 9.5625 C-17.7575271 8.88637094 -19.33861772 9.33717653 -23 12 Z " fill="#FFFFFF" transform="translate(533,471)"/>
<path d="M0 0 C3.9614221 2.97106658 6.9035406 6.08562181 8.5 10.875 C8.59247381 12.35186111 8.62999071 13.83275501 8.625 15.3125 C8.62886719 16.45525391 8.62886719 16.45525391 8.6328125 17.62109375 C8.5 19.875 8.5 19.875 7.5 23.875 C-1.74 23.875 -10.98 23.875 -20.5 23.875 C-19.84 25.525 -19.18 27.175 -18.5 28.875 C-14.02116304 28.42796014 -14.02116304 28.42796014 -10.5 25.875 C-7.75514407 25.72992305 -5.11519457 25.68847577 -2.375 25.75 C-1.62089844 25.75902344 -0.86679687 25.76804687 -0.08984375 25.77734375 C1.77357254 25.8009313 3.63682593 25.83680281 5.5 25.875 C4.71318411 31.74035479 1.69639528 34.90264225 -2.5 38.875 C-8.94770125 42.87257477 -16.1760163 44.03409608 -23.6171875 42.4140625 C-28.50642946 40.84581508 -32.04815954 38.51388215 -34.5 33.875 C-37.46161167 26.25360484 -36.42109083 19.36868178 -33.5 11.875 C-27.07913295 -0.33061105 -12.79883077 -4.11390989 0 0 Z M-18.5 13.875 C-18.83 14.865 -19.16 15.855 -19.5 16.875 C-15.54 16.875 -11.58 16.875 -7.5 16.875 C-7.83 15.225 -8.16 13.575 -8.5 11.875 C-12.88787365 10.49595399 -14.87953098 11.05907965 -18.5 13.875 Z " fill="#FFFFFF" transform="translate(767.5,477.125)"/>
<path d="M0 0 C5.28 0 10.56 0 16 0 C17.07446628 2.14893257 17.26102592 3.61471547 17.5 5.9921875 C17.62375 7.17361328 17.62375 7.17361328 17.75 8.37890625 C17.87375 9.61447266 17.87375 9.61447266 18 10.875 C18.16406056 12.49766144 18.33064355 14.12007024 18.5 15.7421875 C18.5721875 16.4626123 18.644375 17.18303711 18.71875 17.92529297 C19.00767912 20.34242727 19.00767912 20.34242727 20 24 C23.63 16.08 27.26 8.16 31 0 C36.61 0 42.22 0 48 0 C46.57556469 4.27330592 45.24942625 7.71337684 43.20703125 11.6328125 C42.65853516 12.68726563 42.11003906 13.74171875 41.54492188 14.828125 C40.97322266 15.91609375 40.40152344 17.0040625 39.8125 18.125 C39.26013672 19.18976563 38.70777344 20.25453125 38.13867188 21.3515625 C37.01717491 23.4981676 35.87931996 25.63630509 34.7253418 27.765625 C33.55098217 29.96711308 32.43161823 32.19862707 31.36254883 34.453125 C27.31872211 42.46853553 27.31872211 42.46853553 23.66772461 43.93994141 C21.02937749 44.18397118 18.69186935 44.06192518 16.0625 43.75 C14.75055664 43.66878906 14.75055664 43.66878906 13.41210938 43.5859375 C11.2704339 43.44549976 9.13389099 43.23023 7 43 C5.59928027 38.33775311 4.52065579 33.77430812 3.7109375 28.96484375 C3.60278717 28.32309708 3.49463684 27.6813504 3.38320923 27.02015686 C3.15775453 25.6751511 2.9343364 24.32980247 2.71289062 22.98413086 C2.37510282 20.93812281 2.02779516 18.89388386 1.6796875 16.84960938 C1.46036254 15.53394989 1.24159355 14.21819757 1.0234375 12.90234375 C0.82669434 11.72148193 0.62995117 10.54062012 0.42724609 9.32397461 C0 6 0 6 0 0 Z " fill="#FFFFFF" transform="translate(686,476)"/>
<path d="M0 0 C5.61 0 11.22 0 17 0 C18.32532684 2.65065368 17.77663679 3.83013029 17.14453125 6.70703125 C16.93594482 7.67672852 16.7273584 8.64642578 16.51245117 9.64550781 C16.28146729 10.69061523 16.0504834 11.73572266 15.8125 12.8125 C15.34494553 14.99058351 14.87882829 17.16897598 14.4140625 19.34765625 C14.05876465 21.00692139 14.05876465 21.00692139 13.69628906 22.69970703 C12.63999051 27.70638438 11.65202374 32.72493386 10.6875 37.75 C10.51645752 38.62374268 10.34541504 39.49748535 10.16918945 40.39770508 C10.01409912 41.21005615 9.85900879 42.02240723 9.69921875 42.859375 C9.49558716 43.91850098 9.49558716 43.91850098 9.2878418 44.99902344 C8.90507666 47.32294529 8.90507666 47.32294529 9 51 C11.31 51 13.62 51 16 51 C15.85866501 52.77119803 15.71176792 54.54195287 15.5625 56.3125 C15.48128906 57.29863281 15.40007812 58.28476562 15.31640625 59.30078125 C15 62 15 62 14 65 C8.99389557 67.50305222 4.31175897 67.3231801 -1 66 C-4.95332497 63.87691807 -7.61012239 61.78290099 -10 58 C-11.74853639 48.74188357 -8.54497767 38.48435132 -6.625 29.4375 C-6.30368747 27.88627451 -5.98336889 26.3348428 -5.6640625 24.78320312 C-5.05473343 21.82792167 -4.43894358 18.87411855 -3.81738281 15.92138672 C-2.96907459 11.8794547 -2.1748188 7.82790402 -1.40771484 3.76977539 C-1 2 -1 2 0 0 Z " fill="#FFFFFF" transform="translate(442,451)"/>
<path d="M0 0 C5.94 0 11.88 0 18 0 C16.50896558 10.06448236 14.91622069 19.94745769 12.49023438 29.82568359 C10.76816399 36.84195684 9.36309287 43.9057212 8 51 C10.64 51 13.28 51 16 51 C15.67 55.62 15.34 60.24 15 65 C9.4188851 67.01870113 4.80720429 67.47819746 -1 66 C-4.75916716 63.94954519 -6.62598016 62.56102976 -9 59 C-10.59494323 46.32439855 -7.4045872 34.17256314 -4.62841797 21.89404297 C-3.55649455 16.95753163 -2.71944522 11.98404949 -1.90112305 7.00024414 C-1.09660671 2.19321342 -1.09660671 2.19321342 0 0 Z " fill="#FFFFFF" transform="translate(410,451)"/>
<path d="M0 0 C5.28 0 10.56 0 16 0 C16 1.65 16 3.3 16 5 C16.50789062 4.6390625 17.01578125 4.278125 17.5390625 3.90625 C18.22742188 3.4421875 18.91578125 2.978125 19.625 2.5 C20.29789063 2.0359375 20.97078125 1.571875 21.6640625 1.09375 C24.57208177 -0.26786437 26.82696718 -0.18183569 30 0 C29.69177379 2.2922454 29.37829126 4.58378455 29.0625 6.875 C28.88847656 8.15117187 28.71445312 9.42734375 28.53515625 10.7421875 C28 14 28 14 27 16 C23.97919219 16.73942161 20.94415113 17.28224775 17.8828125 17.828125 C14.81498954 18.77001271 14.81498954 18.77001271 13.21875 21.55859375 C11.77911231 25.62372454 11.01321514 29.55894112 10.375 33.8125 C9.11317734 41.88682266 9.11317734 41.88682266 8 43 C5.46950598 43.07313567 2.96695163 43.09247527 0.4375 43.0625 C-0.62887695 43.05573242 -0.62887695 43.05573242 -1.71679688 43.04882812 C-3.47790013 43.03700864 -5.23896036 43.01907263 -7 43 C-6.42755438 33.62321499 -4.72076204 24.51454324 -2.9375 15.3125 C-2.65251169 13.82105577 -2.36800311 12.32951979 -2.08398438 10.83789062 C-1.3957159 7.22397947 -0.69768158 3.61215571 0 0 Z " fill="#FFFFFF" transform="translate(784,476)"/>
<path d="M0 0 C5.28 0 10.56 0 16 0 C16 1.65 16 3.3 16 5 C16.825 4.360625 17.65 3.72125 18.5 3.0625 C22.23191406 0.53586919 25.55723303 0.30639772 30 0 C29.74875114 3.34557695 29.39341941 6.668385 29 10 C28.896875 11.134375 28.79375 12.26875 28.6875 13.4375 C27 16 27 16 24.3046875 16.78125 C22.16528636 17.21428541 20.01085649 17.5793377 17.84765625 17.87109375 C14.71215151 18.77516674 14.71215151 18.77516674 13.2265625 22.0390625 C11.75413125 26.23681636 10.9999522 30.5535835 10.3125 34.9375 C10.18294922 35.71673828 10.05339844 36.49597656 9.91992188 37.29882812 C9.6053481 39.19792168 9.30154118 41.09879356 9 43 C3.72 43 -1.56 43 -7 43 C-5.42289147 28.5192762 -2.73907683 14.30174468 0 0 Z " fill="#FFFFFF" transform="translate(634,476)"/>
<path d="M0 0 C1.58206057 0.00667536 3.16410534 0.0186375 4.74609375 0.03515625 C5.55240234 0.03966797 6.35871094 0.04417969 7.18945312 0.04882812 C9.18753131 0.06065107 11.18557158 0.07858711 13.18359375 0.09765625 C13.37705931 5.39032115 12.69044532 10.07320868 11.43359375 15.22265625 C9.54898812 23.26097191 7.95858863 31.33106228 6.49121094 39.45556641 C6.33426758 40.30812012 6.17732422 41.16067383 6.015625 42.0390625 C5.87874268 42.79904541 5.74186035 43.55902832 5.60083008 44.34204102 C5.18359375 46.09765625 5.18359375 46.09765625 4.18359375 47.09765625 C2.84091962 47.18397499 1.49385053 47.20472098 0.1484375 47.1953125 C-0.66044922 47.19208984 -1.46933594 47.18886719 -2.30273438 47.18554688 C-3.15287109 47.17716797 -4.00300781 47.16878906 -4.87890625 47.16015625 C-5.73291016 47.15564453 -6.58691406 47.15113281 -7.46679688 47.14648438 C-9.58336288 47.13465998 -11.6998931 47.11672394 -13.81640625 47.09765625 C-13.65035889 46.30818604 -13.48431152 45.51871582 -13.31323242 44.70532227 C-12.54066687 41.02418004 -11.7712345 37.34239302 -11.00390625 33.66015625 C-10.86634918 33.00059937 -10.72879211 32.34104248 -10.58706665 31.66149902 C-8.79541963 23.05307483 -7.06891601 14.44207949 -5.66674805 5.76000977 C-4.73765182 0.12122958 -4.73765182 0.12122958 0 0 Z " fill="#FFFFFF" transform="translate(473.81640625,468.90234375)"/>
<path d="M0 0 C5.28 0 10.56 0 16 0 C15.18595634 4.99945679 14.36937887 9.99836514 13.54638672 14.99633789 C13.26756007 16.69433724 12.99019362 18.39257707 12.71435547 20.09106445 C12.31607809 22.54183626 11.91244059 24.99167594 11.5078125 27.44140625 C11.3868924 28.19273331 11.26597229 28.94406036 11.14138794 29.71815491 C11.02141449 30.43837326 10.90144104 31.15859161 10.77783203 31.90063477 C10.6756839 32.52462662 10.57353577 33.14861847 10.46829224 33.79151917 C9.80910852 36.90025019 8.87302259 39.94442095 8 43 C3.05 43 -1.9 43 -7 43 C-6.33876936 34.22366606 -5.02996939 25.66399811 -3.5 17 C-3.27178756 15.67844544 -3.04392104 14.3568311 -2.81640625 13.03515625 C-1.13886634 3.41659903 -1.13886634 3.41659903 0 0 Z " fill="#FFFFFF" transform="translate(668,476)"/>
<path d="M0 0 C2.4375 1 2.4375 1 4 2 C4 2.66 4 3.32 4 4 C4.66 4 5.32 4 6 4 C7.46847589 8.40542766 7.6837911 12.89164411 6.25 17.3125 C4.57910428 19.56820922 3.53831953 20.69829768 1 22 C-2.77113177 22.37644096 -6.55809338 22.72095331 -10 21 C-10 20.34 -10 19.68 -10 19 C-10.66 19 -11.32 19 -12 19 C-12 18.34 -12 17.68 -12 17 C-12.66 17 -13.32 17 -14 17 C-14.78545181 7.03348923 -14.78545181 7.03348923 -11.625 2.875 C-7.47477639 -0.08944544 -5.12705112 -0.2651923 0 0 Z " fill="#0074BD" transform="translate(344,465)"/>
<path d="M0 0 C2.0625 1.625 2.0625 1.625 3.0625 3.625 C3.50117925 11.52122642 3.50117925 11.52122642 1.0625 14.625 C-3.00492429 17.21336091 -6.13439796 18.32545238 -10.9375 17.625 C-13.5022293 16.12487532 -15.82933465 14.73316535 -17.9375 12.625 C-18.47753583 8.26044812 -18.75902749 4.75814137 -16.125 1.125 C-11.15826597 -2.28076048 -5.34293876 -2.50095006 0 0 Z " fill="#FFFFFF" transform="translate(488.9375,447.375)"/>
<path d="M0 0 C2.4375 1.625 2.4375 1.625 4 4 C4.66354848 7.89834732 4.33947149 9.47323389 2.1875 12.8125 C-0.67453244 15.67453244 -2.42687764 15.95831837 -6.4375 16.25 C-10 16 -10 16 -12.4375 14.9375 C-14 13 -14 13 -14.5 9.625 C-13.92869891 5.48306711 -12.96976717 3.88491668 -10 1 C-6.40735548 -0.19754817 -3.77282526 -0.33094958 0 0 Z " fill="#FFFFFF" transform="translate(683,457)"/>
<path d="M0 0 C4.29 0 8.58 0 13 0 C13.66 1.32 14.32 2.64 15 4 C15.4125 3.34 15.825 2.68 16.25 2 C17.11625 1.01 17.11625 1.01 18 0 C19.32 0 20.64 0 22 0 C21 7.42857143 21 7.42857143 20 11 C19.01 11 18.02 11 17 11 C16.67 10.34 16.34 9.68 16 9 C14.68 9 13.36 9 12 9 C11.67 9.66 11.34 10.32 11 11 C9.68 10.67 8.36 10.34 7 10 C7.66 7.69 8.32 5.38 9 3 C8.01 3.33 7.02 3.66 6 4 C4.77030122 7.51190809 4.77030122 7.51190809 4 11 C3.01 11 2.02 11 1 11 C1.33 8.36 1.66 5.72 2 3 C1.34 3 0.68 3 0 3 C0 2.01 0 1.02 0 0 Z " fill="#FFFFFF" transform="translate(542,469)"/>
</svg>
