<?xml version="1.0" encoding="UTF-8"?>
<svg version="1.1" xmlns="http://www.w3.org/2000/svg" width="24" height="24">
<path d="M0 0 C2.84057875 1.70434725 3.7082042 2.90831642 4.55859375 6.08984375 C5.16123733 9.8237488 5.26655343 12.3188079 3.875 15.875 C1.62066135 18.42991714 0.1998952 19.7478671 -3 21 C-7.29077281 21.19189503 -10.79681858 20.72190885 -14.5 18.5 C-16.72190885 14.79681858 -17.19189503 11.29077281 -17 7 C-15.7478671 3.8001048 -14.42991714 2.37933865 -11.875 0.125 C-7.716355 -1.50229587 -4.27480225 -1.1426107 0 0 Z " fill="#138CF0" transform="translate(18,2)"/>
<path d="M0 0 C1.32 0 2.64 0 4 0 C4 0.99 4 1.98 4 3 C3.34 3 2.68 3 2 3 C2 3.99 2 4.98 2 6 C2.66 6 3.32 6 4 6 C4 6.99 4 7.98 4 9 C3.01 9 2.02 9 1 9 C1 11.64 1 14.28 1 17 C0.01 17 -0.98 17 -2 17 C-2 14.36 -2 11.72 -2 9 C-2.66 9 -3.32 9 -4 9 C-4 8.01 -4 7.02 -4 6 C-3.34 6 -2.68 6 -2 6 C-1.855625 5.195625 -1.71125 4.39125 -1.5625 3.5625 C-1 1 -1 1 0 0 Z " fill="#EEF6FD" transform="translate(12,6)"/>
</svg>
