<?xml version="1.0" encoding="UTF-8"?>
<svg version="1.1" xmlns="http://www.w3.org/2000/svg" width="25" height="24">
<path d="M0 0 C3.75635569 0.75127114 5.83210307 1.24005726 9 3 C9.86625 2.2575 9.86625 2.2575 10.75 1.5 C13 0 13 0 17 0 C17 4.29 17 8.58 17 13 C15.68 13 14.36 13 13 13 C13 11.35 13 9.7 13 8 C12.01 8.66 11.02 9.32 10 10 C6.48275862 9.48275862 6.48275862 9.48275862 5 8 C4.67 9.65 4.34 11.3 4 13 C2.68 13 1.36 13 0 13 C0 8.71 0 4.42 0 0 Z " fill="#F34235" transform="translate(4,5)"/>
<path d="M0 0 C0 2.97 0 5.94 0 9 C-1.32 9 -2.64 9 -4 9 C-4.1875 5.625 -4.1875 5.625 -4 2 C-1 0 -1 0 0 0 Z " fill="#45A047" transform="translate(21,9)"/>
<path d="M0 0 C1.98 0.99 1.98 0.99 4 2 C4 4.31 4 6.62 4 9 C2.68 9 1.36 9 0 9 C0 6.03 0 3.06 0 0 Z " fill="#314EFB" transform="translate(4,9)"/>
<path d="M0 0 C1.32 0 2.64 0 4 0 C3.67 1.65 3.34 3.3 3 5 C2.01 5.33 1.02 5.66 0 6 C0 4.02 0 2.04 0 0 Z " fill="#F6D535" transform="translate(17,5)"/>
<path d="M0 0 C1.32 0 2.64 0 4 0 C4 1.98 4 3.96 4 6 C2.68 5.34 1.36 4.68 0 4 C0 2.68 0 1.36 0 0 Z " fill="#B21C23" transform="translate(4,5)"/>
</svg>
