<?xml version="1.0" encoding="UTF-8"?>
<svg version="1.1" xmlns="http://www.w3.org/2000/svg" width="2000" height="2000">
<path d="M0 0 C0.81146484 0.23106445 1.62292969 0.46212891 2.45898438 0.70019531 C40.51571218 11.84798404 71.79401247 36.40971797 91.3125 71 C98.41094178 83.99179925 103.37718121 97.66709944 107 112 C107.32226562 113.258125 107.64453125 114.51625 107.9765625 115.8125 C112.75230242 137.26190603 112.17010737 163.70175895 107 185 C106.80132324 185.85094238 106.60264648 186.70188477 106.39794922 187.57861328 C99.08630283 218.2875281 85.40289151 246.83098335 65 271 C64.56461914 271.52416504 64.12923828 272.04833008 63.68066406 272.58837891 C53.41813417 284.93933716 42.65721087 296.07210684 30 306 C28.90785637 306.88157781 27.81675404 307.76444681 26.7265625 308.6484375 C14.27279848 318.68397774 1.14185472 327.32856644 -12.94873047 334.89453125 C-14.34833617 335.64880578 -15.74303091 336.41224695 -17.13330078 337.18359375 C-19.24453458 338.35250922 -21.36936817 339.49190378 -23.5 340.625 C-24.45120728 341.15794678 -24.45120728 341.15794678 -25.42163086 341.70166016 C-30.13506049 344.1409853 -33.97553863 344.4697404 -39 343 C-41.81107009 341.87159269 -44.38485253 340.46079022 -47 338.9375 C-47.75764648 338.5055835 -48.51529297 338.07366699 -49.29589844 337.62866211 C-68.3382899 326.55745994 -86.55249759 313.96940368 -102.7734375 299.04296875 C-104.81427926 297.17040692 -106.89463697 295.36170466 -109 293.5625 C-117.54587169 286.08271291 -124.96007827 277.89129143 -132 269 C-132.84175781 267.98679687 -133.68351563 266.97359375 -134.55078125 265.9296875 C-159.81615663 235.2479924 -177.8171959 194.83398017 -178.23828125 154.64453125 C-178.2480751 153.86891342 -178.25786896 153.09329559 -178.26795959 152.29417419 C-178.43283811 135.86347132 -178.57997755 119.92535574 -174 104 C-173.78569336 103.22897949 -173.57138672 102.45795898 -173.35058594 101.66357422 C-167.46943798 81.019632 -156.92619759 62.29661421 -143 46 C-142.30261719 45.16855469 -141.60523438 44.33710937 -140.88671875 43.48046875 C-135.46765828 37.2143793 -129.5395975 32.06349136 -123 27 C-122.10925781 26.27039063 -121.21851563 25.54078125 -120.30078125 24.7890625 C-88.52607587 -0.47116354 -39.35602813 -11.37077221 0 0 Z M-97 87 C-97.62132812 87.53882813 -98.24265625 88.07765625 -98.8828125 88.6328125 C-115.68833863 104.18769483 -125.00808429 127.24897799 -126.203125 149.83984375 C-126.71313322 176.36349902 -117.86532084 199.98469307 -99.54785156 219.44775391 C-82.03394297 237.01138653 -59.17651793 246.1830534 -34.5 246.25 C-11.48188712 246.24136281 8.40958344 238.97244486 26 224 C27.03253906 223.18595703 27.03253906 223.18595703 28.0859375 222.35546875 C34.1608334 217.42111655 38.56204109 211.40487552 43 205 C43.55816406 204.19691406 44.11632812 203.39382813 44.69140625 202.56640625 C57.96847274 182.00948606 60.81466126 156.95915436 55.90698242 133.38964844 C50.38398777 109.52068623 35.08150263 88.69841357 14.37890625 75.6875 C-21.77185843 53.82577005 -65.83754756 59.10705076 -97 87 Z " fill="#0174BE" transform="translate(782,850)"/>
<path d="M0 0 C10.74120143 9.18356497 17.99922606 20.88004968 20.1484375 34.8984375 C20.36786015 38.75912665 20.33941838 42.59580096 20.2734375 46.4609375 C20.2504275 48.32282663 20.22817911 50.18472526 20.20654297 52.04663086 C20.18717448 53.66389974 20.16780599 55.28116862 20.1484375 56.8984375 C1.19215697 60.78640674 -17.81803189 64.34861642 -36.85229492 67.82983398 C-40.91777729 68.57353242 -44.9822832 69.32243631 -49.04658985 70.07252979 C-52.21080866 70.65573525 -55.37561189 71.23571717 -58.5405941 71.81476402 C-60.04189367 72.08993925 -61.5429873 72.36624061 -63.0438633 72.64371681 C-65.12084546 73.02732451 -67.19859885 73.40644312 -69.27661133 73.78442383 C-70.45363113 74.00028641 -71.63065094 74.21614899 -72.84333801 74.43855286 C-75.8515625 74.8984375 -75.8515625 74.8984375 -79.8515625 74.8984375 C-76.46372608 82.08421684 -72.21227208 85.1097459 -64.8515625 87.8984375 C-49.23400963 92.36634567 -33.70531892 87.69194293 -20.046875 80.12744141 C-19.32242187 79.72187012 -18.59796875 79.31629883 -17.8515625 78.8984375 C-15.11117047 82.94459269 -12.38756457 87.00134746 -9.67895508 91.06884766 C-8.75511071 92.45112525 -7.82674223 93.83039023 -6.89379883 95.20654297 C-5.55391308 97.18463933 -4.2306448 99.17298205 -2.91015625 101.1640625 C-2.27901161 102.08460419 -2.27901161 102.08460419 -1.63511658 103.02374268 C1.16967609 107.30166491 1.16967609 107.30166491 1.06665039 110.1965332 C-0.48172309 113.06643788 -3.20546764 114.32260768 -5.9765625 115.8359375 C-6.59821289 116.18221191 -7.21986328 116.52848633 -7.86035156 116.88525391 C-29.91934119 128.73133963 -58.70300251 131.59497494 -82.7421875 124.86328125 C-100.56683417 119.4559555 -114.60850498 109.71488592 -123.5390625 93.1484375 C-131.16358069 76.79261623 -131.57734884 55.87316729 -125.59228516 38.81640625 C-121.79507002 28.98419726 -116.95628344 19.74685974 -109.8515625 11.8984375 C-109.28308594 11.2384375 -108.71460938 10.5784375 -108.12890625 9.8984375 C-82.18453022 -18.30436617 -30.48911965 -22.47006353 0 0 Z M-70.765625 29.65234375 C-75.75052354 34.90239647 -79.8515625 41.47016178 -79.8515625 48.8984375 C-61.46926643 45.79615072 -43.14287982 42.50292343 -24.8515625 38.8984375 C-25.5932516 32.84557243 -27.385434 29.92479405 -31.8515625 25.8984375 C-43.81694704 17.05098167 -60.36759752 20.12435531 -70.765625 29.65234375 Z " fill="#FFFFFF" transform="translate(1310.8515625,995.1015625)"/>
<path d="M0 0 C16.17 0 32.34 0 49 0 C45.93064819 16.76418117 42.74794101 33.49382812 39.36647415 50.19750214 C38.1341589 56.29296293 36.91398528 62.39086165 35.69140625 68.48828125 C34.15025996 76.17037531 32.60552283 83.85170289 31.04931641 91.53076172 C29.77572936 97.81686928 28.51333649 104.1051335 27.2584343 110.39499664 C26.78171428 112.77363941 26.3008697 115.15145954 25.81575394 117.52840424 C25.14208594 120.83168424 24.48274964 124.1375265 23.82666016 127.44433594 C23.62520386 128.41468277 23.42374756 129.3850296 23.21618652 130.38478088 C22.19707687 135.60746348 21.72746634 139.79973665 23 145 C25.26533247 147.86942113 26.51722837 148.83907612 30 150 C34.87453716 150.15982089 39.18866744 149.86480443 44 149 C43.56432686 157.09751115 42.66795439 165.09478643 41.5625 173.125 C41.44028076 174.04949951 41.31806152 174.97399902 41.19213867 175.92651367 C41.06814697 176.79896729 40.94415527 177.6714209 40.81640625 178.5703125 C40.70756104 179.35164551 40.59871582 180.13297852 40.48657227 180.93798828 C40 183 40 183 38 186 C35.51777758 186.72759958 33.22290842 187.25955077 30.6875 187.6875 C29.96836426 187.8127002 29.24922852 187.93790039 28.50830078 188.06689453 C13.44558039 190.51571105 -2.17065681 189.35734003 -15.046875 180.609375 C-21.91427731 175.29101081 -26.17623662 167.46808555 -28 159 C-29.04249047 143.41696867 -26.54578718 128.96086386 -23.3984375 113.75 C-22.91793957 111.35734099 -22.43910312 108.96434779 -21.96182251 106.57104492 C-20.70874609 100.31161879 -19.43253547 94.05713352 -18.15136719 87.80340576 C-16.86858089 81.51906394 -15.60949341 75.22998111 -14.34765625 68.94140625 C-9.7201144 45.92724044 -5.00024815 22.93629186 0 0 Z " fill="#FFFFFF" transform="translate(1044,934)"/>
<path d="M0 0 C16.17 0 32.34 0 49 0 C45.93064819 16.76418117 42.74794101 33.49382812 39.36647415 50.19750214 C38.1341589 56.29296293 36.91398528 62.39086165 35.69140625 68.48828125 C34.15025996 76.17037531 32.60552283 83.85170289 31.04931641 91.53076172 C29.77572936 97.81686928 28.51333649 104.1051335 27.2584343 110.39499664 C26.78171428 112.77363941 26.3008697 115.15145954 25.81575394 117.52840424 C25.14208594 120.83168424 24.48274964 124.1375265 23.82666016 127.44433594 C23.62520386 128.41468277 23.42374756 129.3850296 23.21618652 130.38478088 C22.19707687 135.60746348 21.72746634 139.79973665 23 145 C25.26533247 147.86942113 26.51722837 148.83907612 30 150 C34.87453716 150.15982089 39.18866744 149.86480443 44 149 C43.56432686 157.09751115 42.66795439 165.09478643 41.5625 173.125 C41.44028076 174.04949951 41.31806152 174.97399902 41.19213867 175.92651367 C41.06814697 176.79896729 40.94415527 177.6714209 40.81640625 178.5703125 C40.70756104 179.35164551 40.59871582 180.13297852 40.48657227 180.93798828 C40 183 40 183 38 186 C35.51777758 186.72759958 33.22290842 187.25955077 30.6875 187.6875 C29.96836426 187.8127002 29.24922852 187.93790039 28.50830078 188.06689453 C13.44558039 190.51571105 -2.17065681 189.35734003 -15.046875 180.609375 C-21.91427731 175.29101081 -26.17623662 167.46808555 -28 159 C-29.04249047 143.41696867 -26.54578718 128.96086386 -23.3984375 113.75 C-22.91793957 111.35734099 -22.43910312 108.96434779 -21.96182251 106.57104492 C-20.70874609 100.31161879 -19.43253547 94.05713352 -18.15136719 87.80340576 C-16.86858089 81.51906394 -15.60949341 75.22998111 -14.34765625 68.94140625 C-9.7201144 45.92724044 -5.00024815 22.93629186 0 0 Z " fill="#FFFFFF" transform="translate(952,934)"/>
<path d="M0 0 C15.84 0 31.68 0 48 0 C46.875 12.375 46.875 12.375 45.9306488 17.06828308 C45.71892029 18.13517365 45.50719177 19.20206421 45.28904724 20.30128479 C44.94378746 21.99522621 44.94378746 21.99522621 44.59155273 23.72338867 C44.34756744 24.94419128 44.10358215 26.1649939 43.85220337 27.42279053 C43.18909694 30.73488549 42.52092489 34.04587854 41.85037875 37.35646987 C41.14819478 40.82960699 40.45264735 44.3040729 39.75636292 47.77839661 C38.44001901 54.34154789 37.11780266 60.90350132 35.79341608 67.46503383 C34.2845891 74.94185332 32.78239917 82.42000139 31.28073585 89.89826238 C28.19448379 105.26698935 25.09912271 120.63386239 22 136 C5.83 136 -10.34 136 -27 136 C-23.76742288 118.40217962 -20.43504549 100.83119239 -16.953125 83.28125 C-16.4917526 80.95049777 -16.03047119 78.61972752 -15.5692749 76.28894043 C-14.61580564 71.47235611 -13.66113096 66.6560128 -12.70556641 61.83984375 C-11.48026995 55.66356608 -10.25832012 49.48663145 -9.03725052 43.30951691 C-8.09156894 38.52759499 -7.14406521 33.74603555 -6.19600677 28.96458435 C-5.74407929 26.68407329 -5.2927453 24.40344453 -4.84201813 22.12269592 C-4.21718934 18.96228183 -3.58988704 15.80236874 -2.96191406 12.64257812 C-2.77699905 11.70460388 -2.59208405 10.76662964 -2.40156555 9.80023193 C-2.23071945 8.94322693 -2.05987335 8.08622192 -1.8838501 7.20324707 C-1.66268209 6.08747662 -1.66268209 6.08747662 -1.43704605 4.94916534 C-1 3 -1 3 0 0 Z " fill="#FFFFFF" transform="translate(1126,984)"/>
<path d="M0 0 C6.98870124 4.99365677 11.62202195 10.65709381 14 19 C15.21151471 29.27457666 14.03477727 37.47956076 8 46 C1.50262859 53.3636876 -5.95989479 56.59050134 -15.6875 57.25 C-24.27995576 57.08818351 -31.89716386 54.06354749 -38 48 C-45.34975577 38.73930774 -46.96434089 30.65753864 -46 19 C-44.21740315 11.62410526 -39.29355301 5.14549427 -33.203125 0.68359375 C-22.67851092 -5.62651779 -10.72259368 -6.15556304 0 0 Z " fill="#0174BE" transform="translate(764,978)"/>
<path d="M0 0 C4.01385494 3.13345751 6.51569301 6.85957904 8.125 11.6875 C8.82894089 19.91553039 8.66658548 27.57153987 4.125 34.6875 C-2.69057929 42.39778854 -9.85612461 46.11571932 -20.12109375 46.84765625 C-29.24700262 47.17510696 -37.02566071 45.18029676 -44.18359375 39.3671875 C-48.88423139 34.69911779 -50.98180734 29.05106417 -51.125 22.5 C-50.9801689 14.46845722 -48.48233895 8.34108665 -42.97265625 2.48046875 C-31.22461841 -7.56115018 -12.8815499 -8.47830248 0 0 Z " fill="#FFFFFF" transform="translate(1179.875,923.3125)"/>
<path d="M0 0 C1.98 0 3.96 0 6 0 C7.00399524 2.62353518 8.00334445 5.24867795 9 7.875 C9.28617188 8.62136719 9.57234375 9.36773438 9.8671875 10.13671875 C12 15.7734375 12 15.7734375 12 18 C14.77927327 15.36935097 17.24284831 12.78736017 19.46484375 9.66796875 C19.87283203 9.09755859 20.28082031 8.52714844 20.70117188 7.93945312 C21.53333469 6.76022715 22.35350187 5.57245417 23.16210938 4.37695312 C24.40234375 2.66796875 24.40234375 2.66796875 27 0 C30.31640625 -0.38671875 30.31640625 -0.38671875 33 0 C32.35651536 6.59571757 31.32134691 13.00816521 30 19.5 C29.82210938 20.40492188 29.64421875 21.30984375 29.4609375 22.2421875 C29.28820313 23.10070312 29.11546875 23.95921875 28.9375 24.84375 C28.70353516 26.00680664 28.70353516 26.00680664 28.46484375 27.19335938 C28 29 28 29 27 30 C25.02 30 23.04 30 21 30 C21.66 25.05 22.32 20.1 23 15 C20.20369054 18.93901789 20.20369054 18.93901789 17.43652344 22.8984375 C16.359375 24.375 16.359375 24.375 14 27 C12.68 27 11.36 27 10 27 C8.02 22.71 6.04 18.42 4 14 C3.79503906 15.07121094 3.59007812 16.14242187 3.37890625 17.24609375 C3.10697291 18.64326851 2.83482648 20.04040181 2.5625 21.4375 C2.42779297 22.14455078 2.29308594 22.85160156 2.15429688 23.58007812 C1.11328125 28.88671875 1.11328125 28.88671875 0 30 C-1.98 30 -3.96 30 -6 30 C-4.02 20.1 -2.04 10.2 0 0 Z " fill="#FFFFFF" transform="translate(1363,985)"/>
<path d="M0 0 C8.58 0 17.16 0 26 0 C25.67 1.98 25.34 3.96 25 6 C21.7 6 18.4 6 15 6 C14.8453125 7.7634375 14.8453125 7.7634375 14.6875 9.5625 C13.93619525 16.45682595 12.42053432 23.21895881 11 30 C8.69 30 6.38 30 4 30 C5.65 22.08 7.3 14.16 9 6 C6.03 6 3.06 6 0 6 C0 4.02 0 2.04 0 0 Z " fill="#FFFFFF" transform="translate(1334,985)"/>
</svg>
