<?xml version="1.0" encoding="UTF-8"?>
<svg version="1.1" xmlns="http://www.w3.org/2000/svg" width="2000" height="2000">
<path d="M0 0 C660 0 1320 0 2000 0 C2000 660 2000 1320 2000 2000 C1340 2000 680 2000 0 2000 C0 1340 0 680 0 0 Z " fill="#0C3569" transform="translate(0,0)"/>
<path d="M0 0 C0.86109375 0.639375 1.7221875 1.27875 2.609375 1.9375 C17.09204352 13.24940677 29.14898482 26.51928951 39 42 C39.57137695 42.88437744 39.57137695 42.88437744 40.15429688 43.78662109 C53.56761278 64.82224174 61.80217211 91.04895787 62 116 C62.07104576 117.74096277 62.14413039 119.481843 62.21875 121.22265625 C63.70118963 166.65981503 46.16017389 212.40922769 17 247 C16.03361251 248.17037342 15.06747096 249.34094995 14.1015625 250.51171875 C4.10842762 262.50512827 -6.65000286 273.42083555 -19 283 C-20.26583939 284.00624078 -21.53144865 285.01277109 -22.796875 286.01953125 C-36.82040945 297.0726533 -51.57916228 306.3708182 -67.375 314.6875 C-68.3561377 315.20513916 -69.33727539 315.72277832 -70.34814453 316.25610352 C-71.27224121 316.73233154 -72.19633789 317.20855957 -73.1484375 317.69921875 C-73.96489746 318.12033936 -74.78135742 318.54145996 -75.62255859 318.9753418 C-78.97568829 320.42051384 -81.58550342 321.44099199 -85.16210938 320.32592773 C-85.88205078 319.94895752 -86.60199219 319.5719873 -87.34375 319.18359375 C-88.16721924 318.7563501 -88.99068848 318.32910645 -89.83911133 317.88891602 C-90.71720459 317.40994873 -91.59529785 316.93098145 -92.5 316.4375 C-93.42127686 315.9437085 -94.34255371 315.44991699 -95.29174805 314.94116211 C-115.74094242 303.75060476 -135.00000358 289.93749665 -152 274 C-153.32803511 272.84803015 -154.66101166 271.70171992 -156 270.5625 C-164.90604628 262.78564569 -172.67495486 254.26482561 -180 245 C-180.65484375 244.21238281 -181.3096875 243.42476562 -181.984375 242.61328125 C-187.90228694 235.4526078 -193.0483 227.84805151 -198 220 C-198.37769531 219.40541992 -198.75539063 218.81083984 -199.14453125 218.19824219 C-210.70027265 199.7110976 -219.01185647 178.41970765 -223 157 C-223.15936035 156.16291504 -223.3187207 155.32583008 -223.48291016 154.46337891 C-230.73970393 114.66685282 -225.14068708 73.54380238 -202.875 39.3125 C-201.6077156 37.52413658 -200.31726171 35.75187758 -199 34 C-198.06607422 32.75283203 -198.06607422 32.75283203 -197.11328125 31.48046875 C-175.42873547 3.55007003 -144.97477908 -16.97713877 -110 -24 C-109.030625 -24.20496094 -108.06125 -24.40992188 -107.0625 -24.62109375 C-70.22609975 -31.16677762 -30.0295212 -22.47823809 0 0 Z " fill="#0173BC" transform="translate(830,873)"/>
<path d="M0 0 C17.67035193 14.88329554 31.34805918 35.4680661 34.42724609 58.71923828 C36.86801518 87.50756327 30.32183579 111.66473644 12.42724609 134.24267578 C-2.11833967 151.42758154 -25.42256548 163.67821865 -47.92041016 165.59033203 C-74.99868776 166.90636025 -99.00932885 160.17914627 -119.88525391 142.46923828 C-137.38157614 125.67865005 -148.89672404 103.06418991 -149.94384766 78.62548828 C-150.45368917 52.29523318 -143.89457371 29.32497348 -125.57275391 9.71923828 C-125.03650391 9.10435547 -124.50025391 8.48947266 -123.94775391 7.85595703 C-92.68293904 -26.14452914 -35.37183201 -28.80481694 0 0 Z " fill="#0B3569" transform="translate(805.57275390625,931.28076171875)"/>
<path d="M0 0 C1.41263387 1.18864868 2.80955318 2.39630854 4.1875 3.625 C4.80238281 4.14707031 5.41726563 4.66914062 6.05078125 5.20703125 C15.45022865 13.77282478 21.49644653 26.51593017 22.36230469 39.18212891 C22.57170413 45.00695785 22.53578329 50.80695617 22.1875 56.625 C20.59142748 58.22107252 18.70205764 58.16183217 16.50463867 58.54541016 C15.49854553 58.72318497 14.49245239 58.90095978 13.45587158 59.0841217 C12.35023865 59.27550217 11.24460571 59.46688263 10.10546875 59.6640625 C8.96011658 59.86587631 7.8147644 60.06769012 6.63470459 60.27561951 C4.16656377 60.71045817 1.69813739 61.14367843 -0.77053833 61.57546997 C-20.62947572 65.05078008 -40.46293909 68.61714913 -60.2355957 72.55517578 C-60.913703 72.68980728 -61.5918103 72.82443878 -62.29046631 72.96315002 C-64.06139198 73.31556462 -65.83163504 73.67140496 -67.60180664 74.02758789 C-70.99497823 74.65895363 -74.39292945 75.15973943 -77.8125 75.625 C-75.09546578 82.30437579 -72.45789744 85.68339934 -65.8125 88.625 C-52.57551172 93.58238189 -38.44256005 90.75466215 -25.8125 85.625 C-22.96834723 84.11084673 -20.45709971 82.47621979 -17.8125 80.625 C-17.1525 80.625 -16.4925 80.625 -15.8125 80.625 C-14.26942942 82.70892886 -12.85466858 84.78729402 -11.4609375 86.96875 C-11.04204254 87.6124353 -10.62314758 88.25612061 -10.19155884 88.91931152 C-8.85027027 90.98367926 -7.5188313 93.05419994 -6.1875 95.125 C-5.28188998 96.52255033 -4.3756481 97.91969144 -3.46875 99.31640625 C-1.24263044 102.74789217 0.97467336 106.18492847 3.1875 109.625 C-0.12723681 113.07963139 -3.53185021 115.4061111 -7.75 117.625 C-8.4109668 117.97385254 -9.07193359 118.32270508 -9.75292969 118.68212891 C-30.65162388 129.38158005 -59.53616677 131.91121669 -82.03125 125.00390625 C-97.79147434 119.49193196 -111.69600867 110.70579935 -119.8125 95.625 C-120.27269531 94.77292969 -120.73289062 93.92085937 -121.20703125 93.04296875 C-129.08415538 77.17521727 -128.44140894 58.38165035 -123.8125 41.625 C-119.56624554 29.08198594 -113.04837182 19.0471415 -103.8125 9.625 C-103.15894531 8.93535156 -102.50539063 8.24570312 -101.83203125 7.53515625 C-77.0095793 -16.71114595 -28.02750879 -21.05596038 0 0 Z " fill="#FDFDFD" transform="translate(1308.8125,994.375)"/>
<path d="M0 0 C15.84 0 31.68 0 48 0 C47.3503865 5.84652152 46.62584659 11.42263065 45.43701172 17.14550781 C45.28229904 17.90668915 45.12758636 18.66787048 44.96818542 19.45211792 C44.63387317 21.09414733 44.29772295 22.73580342 43.95989609 24.37711334 C43.41657094 27.01685165 42.87816781 29.65755553 42.34085083 32.29852295 C41.38349769 36.99987095 40.42184564 41.70032756 39.45880127 46.4005127 C37.7566241 54.70870332 36.05927323 63.01787328 34.3671875 71.328125 C34.18312096 72.23152115 33.99905441 73.1349173 33.8094101 74.06568909 C30.24344068 91.58926351 26.88372997 109.14888935 23.61526489 126.73016357 C23.23430893 128.75476096 22.84103858 130.77713528 22.42819214 132.79547119 C21.98230732 135.09108999 21.83282065 137.22562545 21.8125 139.5625 C21.79832031 140.30628906 21.78414062 141.05007813 21.76953125 141.81640625 C22.03520756 144.33357673 22.64343776 145.86825934 24 148 C27.79163027 150.52775351 30.80874031 150.22443035 35.1875 150.125 C35.93708984 150.11597656 36.68667969 150.10695313 37.45898438 150.09765625 C39.30612654 150.07412578 41.15310412 150.03825561 43 150 C43.32208664 157.90677955 42.33910806 165.34369643 41 173.125 C40.80921875 174.27226563 40.6184375 175.41953125 40.421875 176.6015625 C39.9550807 179.40232829 39.48099729 182.20164474 39 185 C24.65205199 190.24924927 5.18171544 190.06252561 -8.76953125 183.74609375 C-17.97733784 178.6797294 -23.72012376 171.84394643 -27.02416992 161.83224487 C-31.34626362 144.85867356 -25.80667404 126.63177846 -22.34598541 109.90483618 C-21.54858285 106.03172912 -20.77129435 102.15458552 -19.99169922 98.27786255 C-18.51816334 90.96572828 -17.02704577 83.65730061 -15.52928734 76.35009396 C-13.82255878 68.01890473 -12.13591113 59.68368936 -10.45078659 51.34810805 C-6.98922483 34.22753608 -3.50033793 17.11268935 0 0 Z " fill="#FCFDFD" transform="translate(1044,934)"/>
<path d="M0 0 C15.84 0 31.68 0 48 0 C47.33339343 5.99945909 46.56310084 11.72797685 45.34521484 17.60449219 C45.1807486 18.41444138 45.01628235 19.22439056 44.84683228 20.05888367 C44.49123563 21.80731654 44.13380248 23.55537673 43.77470016 25.30309296 C43.19779051 28.11086023 42.62577015 30.91958777 42.05484009 33.72857666 C41.03829823 38.72584131 40.01745889 43.72221677 38.99523926 48.71832275 C32.06045504 82.54599906 32.06045504 82.54599906 25.37919998 116.42438507 C25.07384862 118.00238145 24.7657674 119.57985252 24.45469284 121.15673065 C21.2797196 134.2150115 21.2797196 134.2150115 23.375 147 C24.85086031 149.09716677 24.85086031 149.09716677 27 150 C29.71760108 150.07181821 32.40859388 150.09299506 35.125 150.0625 C36.25615234 150.05573242 36.25615234 150.05573242 37.41015625 150.04882812 C39.27347127 150.03703499 41.13674555 150.01909942 43 150 C43.32208664 157.90677955 42.33910806 165.34369643 41 173.125 C40.80921875 174.27226563 40.6184375 175.41953125 40.421875 176.6015625 C39.9550807 179.40232829 39.48099729 182.20164474 39 185 C31.76215729 187.27989449 25.21173583 188.4989174 17.625 188.375 C16.71451904 188.36484863 15.80403809 188.35469727 14.8659668 188.34423828 C2.35218581 188.0578919 -8.49258626 185.71336036 -18.03125 177.18359375 C-26.9089746 167.87326816 -28.36118454 156.6720555 -28.19195557 144.29232788 C-27.98614431 137.84318873 -26.74808619 131.63436038 -25.4296875 125.33203125 C-25.15250394 123.95064363 -24.87668807 122.56898099 -24.60211182 121.18707275 C-23.86381102 117.49103986 -23.10680793 113.79907702 -22.34598541 110.10762405 C-21.55002201 106.22887387 -20.77187054 102.346551 -19.99169922 98.46459961 C-18.5166068 91.13856311 -17.02587832 83.81580341 -15.52928734 76.49413204 C-13.82413407 68.14815832 -12.13677472 59.79861809 -10.45078659 51.44875526 C-6.98675635 34.29515547 -3.49844159 17.14661724 0 0 Z " fill="#FCFDFD" transform="translate(952,934)"/>
<path d="M0 0 C15.84 0 31.68 0 48 0 C46.82718327 7.62330874 45.65985103 15.13990982 44.1081543 22.67626953 C43.93057587 23.55163361 43.75299744 24.42699768 43.57003784 25.32888794 C43.1889396 27.20541846 42.80644434 29.08166575 42.42264366 30.95764542 C41.80917069 33.95636909 41.19954164 36.95585356 40.59077454 39.95553589 C39.29310613 46.34605623 37.99044404 52.73555359 36.6875 59.125 C34.97999649 67.50198032 33.27535572 75.87953698 31.57421875 84.2578125 C31.26756098 85.76644238 31.26756098 85.76644238 30.9547081 87.30554962 C28.29507653 100.40159904 25.70743437 113.50400273 23.37223816 126.66238403 C23.20017349 127.62570648 23.02810883 128.58902893 22.85083008 129.58154297 C22.70825272 130.39750946 22.56567535 131.21347595 22.41877747 132.0541687 C22 134 22 134 21 136 C5.49 136 -10.02 136 -26 136 C-23.75034303 120.25240123 -23.75034303 120.25240123 -22.69067383 115.03100586 C-22.45291229 113.84887512 -22.21515076 112.66674438 -21.97018433 111.4487915 C-21.71834381 110.21658875 -21.4665033 108.98438599 -21.20703125 107.71484375 C-20.93695043 106.37774533 -20.6672772 105.04056452 -20.39797974 103.70330811 C-19.83148132 100.89320784 -19.26284385 98.08355377 -18.69235229 95.27426147 C-17.2096677 87.97125844 -15.74173889 80.66528086 -14.2734375 73.359375 C-14.12911474 72.64184744 -13.98479198 71.92431988 -13.83609581 71.18504906 C-11.18764558 58.01297405 -8.63287825 44.82507233 -6.1809082 31.61499023 C-4.21815425 21.05305857 -2.10772574 10.53862869 0 0 Z " fill="#FDFDFD" transform="translate(1126,984)"/>
<path d="M0 0 C7.88406958 4.95013893 12.3229301 11.71488404 15.21484375 20.390625 C16.15286105 30.49353259 14.47521267 38.55877955 8.21484375 46.640625 C1.909789 53.22679684 -5.69577977 56.69871056 -14.78515625 57.140625 C-23.87453273 56.69871056 -31.4801015 53.22679684 -37.78515625 46.640625 C-43.30776338 39.51119575 -45.52136433 32.27904472 -45.1640625 23.27734375 C-44.09439401 15.12801372 -39.73404942 8.89574993 -33.78515625 3.390625 C-23.98523054 -3.86924644 -11.21696629 -5.30052983 0 0 Z " fill="#0173BC" transform="translate(762.78515625,977.609375)"/>
<path d="M0 0 C0.928125 0.598125 1.85625 1.19625 2.8125 1.8125 C7.6934703 6.6934703 10.10156343 12.37243898 10.25 19.25 C10.08962452 27.42914957 7.03424961 33.05222596 1.40625 38.9453125 C-6.56898 45.75533033 -15.8640951 47.00516972 -25.99609375 46.48046875 C-33.23009599 45.8067885 -38.58283857 42.84346096 -43.5 37.5625 C-48.28565453 31.24922128 -48.80851463 24.71763961 -48 17 C-46.20163041 8.80474528 -41.86417544 3.66943093 -35 -1 C-25.34595558 -6.63310647 -9.23535466 -6.05219387 0 0 Z " fill="#FCFCFD" transform="translate(1178,923)"/>
<path d="M0 0 C3.51646484 3.15749239 6.13505075 6.64845174 8 11 C8 11.99 8 12.98 8 14 C-10.92437988 18.04834375 -29.90295277 21.85062531 -49 25 C-47.37652838 14.93447593 -43.17590471 6.84420169 -35.11328125 0.40625 C-25.08985082 -6.26368522 -10.19249179 -6.42651596 0 0 Z " fill="#10386B" transform="translate(1279,1020)"/>
<path d="M0 0 C1.2065625 0.0309375 1.2065625 0.0309375 2.4375 0.0625 C3.4438655 2.49754509 4.44276413 4.93520864 5.4375 7.375 C5.72367188 8.06529297 6.00984375 8.75558594 6.3046875 9.46679688 C7.52660744 12.47795674 8.4375 14.78136984 8.4375 18.0625 C12.81929207 13.90762216 16.26282781 9.39987675 19.6875 4.43945312 C20.9375 2.73046875 20.9375 2.73046875 23.4375 0.0625 C26.25 -0.32421875 26.25 -0.32421875 28.4375 0.0625 C27.79713063 6.68863779 26.72778836 13.10962709 25.375 19.625 C25.18873047 20.53830078 25.00246094 21.45160156 24.81054688 22.39257812 C24.35641897 24.61664045 23.898687 26.83989276 23.4375 29.0625 C21.7875 29.0625 20.1375 29.0625 18.4375 29.0625 C18.58257078 27.72908348 18.7286103 26.39577236 18.875 25.0625 C18.95621094 24.32 19.03742188 23.5775 19.12109375 22.8125 C19.53377702 19.22572198 19.98594379 15.64459298 20.4375 12.0625 C19.67824219 13.073125 18.91898438 14.08375 18.13671875 15.125 C17.1333056 16.43787702 16.12937231 17.75035661 15.125 19.0625 C14.62548828 19.73023438 14.12597656 20.39796875 13.61132812 21.0859375 C13.12470703 21.71757813 12.63808594 22.34921875 12.13671875 23 C11.69158936 23.58652344 11.24645996 24.17304687 10.7878418 24.77734375 C9.4375 26.0625 9.4375 26.0625 6.4375 26.0625 C5.5980118 23.96078133 4.76610344 21.85603375 3.9375 19.75 C3.4734375 18.57824219 3.009375 17.40648437 2.53125 16.19921875 C1.4375 13.0625 1.4375 13.0625 1.4375 10.0625 C0.7775 10.0625 0.1175 10.0625 -0.5625 10.0625 C-0.61148437 10.84753906 -0.66046875 11.63257813 -0.7109375 12.44140625 C-1.1245036 18.25272303 -1.68032148 23.541443 -3.5625 29.0625 C-5.2125 29.0625 -6.8625 29.0625 -8.5625 29.0625 C-4.82342292 0.11764446 -4.82342292 0.11764446 0 0 Z " fill="#F3F5F7" transform="translate(1366.5625,985.9375)"/>
<path d="M0 0 C7.92 0 15.84 0 24 0 C24 1.32 24 2.64 24 4 C20.7 4.33 17.4 4.66 14 5 C13.80664062 6.31355469 13.61328125 7.62710938 13.4140625 8.98046875 C13.15135817 10.71619377 12.88831977 12.45186824 12.625 14.1875 C12.49867187 15.05181641 12.37234375 15.91613281 12.2421875 16.80664062 C11.58107215 21.12041829 10.89484883 25.02081745 9 29 C7.35 29 5.7 29 4 29 C4.50548338 20.45907394 6.06734291 12.32622708 8 4 C5.03 4 2.06 4 -1 4 C-0.67 2.68 -0.34 1.36 0 0 Z " fill="#F3F5F7" transform="translate(1335,986)"/>
</svg>
