<?xml version="1.0" standalone="no"?>
<!DOCTYPE svg PUBLIC "-//W3C//DTD SVG 20010904//EN"
 "http://www.w3.org/TR/2001/REC-SVG-20010904/DTD/svg10.dtd">
<svg version="1.0" xmlns="http://www.w3.org/2000/svg"
 width="2000.000000pt" height="2000.000000pt" viewBox="0 0 2000.000000 2000.000000"
 preserveAspectRatio="xMidYMid meet">

<g transform="translate(0.000000,2000.000000) scale(0.100000,-0.100000)"
fill="#000000" stroke="none">
<path d="M9231 10969 c-6 -18 -11 -50 -11 -71 0 -26 -7 -46 -21 -61 -32 -34
-49 -84 -49 -143 0 -62 13 -70 30 -19 14 43 41 59 86 52 29 -5 34 -3 34 14 0
15 -7 19 -32 19 l-31 0 22 24 c49 53 191 62 191 12 0 -26 50 -49 94 -43 l42 6
-4 -92 c-2 -51 0 -110 5 -132 8 -35 12 -40 38 -41 63 -1 76 -12 73 -56 -3 -45
-33 -76 -78 -80 -15 -2 -34 -16 -49 -38 -13 -19 -41 -54 -63 -77 -23 -26 -38
-53 -38 -68 0 -14 0 -28 0 -32 0 -22 104 -36 270 -37 151 0 187 3 265 22 146
37 196 38 300 5 123 -38 197 -38 253 1 40 27 78 73 69 82 -2 3 -26 0 -52 -6
-65 -15 -100 -5 -150 41 -49 46 -100 69 -150 69 -22 0 -34 4 -30 10 12 20 119
11 183 -15 75 -31 148 -33 200 -6 47 24 119 101 128 137 7 28 6 30 -57 75 -19
13 -20 18 -9 38 7 13 24 34 39 46 l26 23 -37 17 c-50 25 -74 16 -158 -60 -92
-83 -107 -84 -154 -7 -80 132 -134 151 -326 117 -116 -21 -193 -22 -224 -2
-16 11 -35 45 -57 104 -40 106 -93 167 -154 179 -22 4 -76 2 -120 -4 -79 -11
-130 -6 -188 17 -16 6 -43 11 -62 11 -28 0 -35 -5 -44 -31z m53 -48 c9 -71 1
-90 -33 -72 -24 13 -28 58 -10 110 17 47 33 33 43 -38z m36 40 c0 -10 3 -39 6
-65 6 -38 4 -46 -10 -46 -12 0 -16 9 -16 34 0 18 -3 48 -6 65 -5 24 -3 31 10
31 9 0 16 -8 16 -19z m192 -83 c1 -24 2 -58 3 -75 2 -37 -9 -41 -37 -16 -21
19 -22 41 -6 94 15 53 37 51 40 -3z m43 -29 c5 -39 3 -65 -3 -71 -12 -12 -18
8 -25 85 -3 34 -1 47 8 47 8 0 16 -22 20 -61z"/>
<path d="M9402 10698 c3 -7 14 -14 25 -16 12 -2 29 -12 39 -23 18 -20 44 -26
44 -9 0 23 -50 60 -80 60 -21 0 -30 -4 -28 -12z"/>
<path d="M9202 10629 c-1 -28 2 -39 12 -39 21 0 29 17 22 44 -10 42 -33 39
-34 -5z"/>
<path d="M9390 10580 c0 -34 3 -41 17 -38 26 5 28 37 4 59 l-21 20 0 -41z"/>
<path d="M9224 10529 c-15 -17 -16 -22 -4 -29 19 -12 27 -5 32 25 6 30 -3 32
-28 4z"/>
<path d="M9254 10398 c3 -31 6 -33 41 -35 36 -1 85 20 85 37 0 4 -22 5 -50 2
-40 -4 -51 -1 -56 12 -11 28 -24 17 -20 -16z"/>
<path d="M9321 10172 c-1 -7 -6 -10 -13 -6 -7 4 -8 3 -4 -4 4 -7 13 -12 21
-12 8 0 17 5 21 12 4 6 3 8 -4 4 -5 -3 -13 0 -15 6 -4 10 -6 10 -6 0z"/>
<path d="M9032 10021 c-7 -4 -35 -66 -62 -137 -27 -71 -62 -161 -78 -200 -25
-60 -30 -85 -31 -170 -2 -92 19 -726 24 -732 1 -1 9 0 18 4 11 4 17 21 19 57
2 29 8 52 16 55 7 2 12 -5 12 -20 0 -18 -2 -20 -10 -8 -6 9 -10 10 -10 3 0 -6
5 -15 11 -19 6 -3 9 -19 7 -35 -5 -32 6 -39 57 -39 34 0 34 0 41 58 l6 59 52
-4 c117 -9 111 -5 109 -75 l-2 -63 82 0 82 0 0 49 c0 30 5 51 12 53 9 3 12
-11 10 -51 -2 -34 1 -57 7 -58 36 -5 78 -8 130 -8 33 0 65 -5 71 -10 10 -8 13
15 14 106 3 176 30 378 77 557 13 51 13 63 -2 113 -25 86 -16 237 20 334 38
102 38 111 -3 122 -31 9 -35 6 -69 -33 -148 -173 -311 -279 -427 -279 -54 0
-123 36 -152 80 -19 27 -23 47 -23 104 0 39 7 96 15 126 8 30 15 58 15 63 0 9
-22 9 -38 -2z"/>
<path d="M8846 9765 c-4 -14 -11 -25 -16 -25 -6 0 -10 -7 -10 -15 0 -8 -4 -15
-10 -15 -5 0 -10 -5 -10 -10 0 -22 49 26 55 53 9 36 0 47 -9 12z"/>
<path d="M9778 9733 c6 -2 18 -2 25 0 6 3 1 5 -13 5 -14 0 -19 -2 -12 -5z"/>
<path d="M9711 9706 c-17 -18 -19 -26 -10 -31 8 -5 10 -4 5 3 -4 7 -3 12 3 12
5 0 11 -3 14 -7 2 -5 2 -2 1 5 -2 7 3 15 11 18 8 4 15 10 15 15 0 16 -16 10
-39 -15z"/>
<path d="M9812 9719 c-27 -10 -57 -38 -49 -45 2 -3 12 2 20 11 9 8 19 15 24
15 4 0 17 7 27 15 22 17 13 18 -22 4z"/>
<path d="M8845 9690 c-4 -6 -12 -7 -18 -4 -8 5 -8 3 1 -7 6 -7 12 -22 12 -33
0 -15 3 -17 12 -8 8 8 8 15 0 25 -9 10 -9 16 0 25 7 7 9 12 6 12 -4 0 -10 -5
-13 -10z"/>
<path d="M8774 9636 c-15 -32 -17 -43 -7 -39 8 3 17 19 20 35 4 21 8 26 14 16
5 -7 9 -8 9 -3 0 6 -4 16 -8 22 -6 9 -15 -1 -28 -31z"/>
<path d="M8824 9627 c4 -33 3 -37 -10 -26 -8 6 -17 9 -21 5 -3 -3 0 -6 8 -7 8
0 6 -4 -6 -9 -17 -7 -16 -8 9 -7 34 2 39 12 26 52 -10 29 -10 28 -6 -8z"/>
<path d="M9740 9639 c0 -5 5 -7 10 -4 6 3 10 8 10 11 0 2 -4 4 -10 4 -5 0 -10
-5 -10 -11z"/>
<path d="M11848 9638 c-21 -7 -29 -18 -34 -46 -30 -171 -198 -949 -209 -966
-10 -16 -215 -958 -215 -990 0 -3 -45 -6 -100 -6 l-99 0 -5 33 c-26 158 -49
273 -65 329 l-19 67 83 56 c141 94 205 182 205 285 0 72 -25 123 -89 185 -94
92 -211 144 -282 125 -78 -21 -129 -87 -215 -280 -77 -172 -100 -282 -74 -345
6 -16 -1 -29 -33 -62 -32 -33 -44 -57 -58 -112 -32 -126 -129 -294 -238 -412
l-58 -64 -38 18 -37 18 -169 -166 c-197 -192 -196 -192 -317 -131 -110 55
-382 255 -528 387 -85 76 -74 74 -324 76 -124 1 -234 3 -245 4 -11 1 -101 -1
-200 -6 l-180 -7 -37 95 c-37 94 -37 95 -21 143 8 28 17 105 20 177 7 153 -7
205 -60 230 -81 39 -321 66 -462 52 -104 -9 -120 -26 -164 -162 l-32 -103 -66
0 c-53 0 -64 3 -60 14 3 8 11 34 17 58 70 263 284 807 465 1183 40 83 55 124
51 141 l-6 24 -163 0 c-193 0 -174 9 -328 -156 -233 -250 -627 -733 -924
-1134 l-64 -86 -118 -28 c-156 -38 -497 -133 -713 -200 -374 -114 -665 -219
-1020 -368 -92 -39 -448 -213 -462 -226 -4 -4 6 -8 22 -9 92 -7 134 -76 133
-218 -2 -200 -107 -427 -282 -609 -89 -93 -285 -237 -398 -293 -76 -38 -102
-46 -151 -47 -72 -1 -106 19 -137 80 l-19 39 -18 -75 c-27 -114 -50 -275 -53
-373 -2 -49 -6 -92 -10 -95 -3 -4 -3 2 1 13 7 18 6 18 -9 6 -9 -7 -17 -20 -17
-27 0 -8 -6 -11 -17 -7 -12 5 -15 2 -10 -10 3 -9 2 -19 -4 -23 -6 -4 -5 -12 3
-22 12 -15 11 -16 -5 -3 -14 11 -15 16 -5 30 25 31 -24 -11 -79 -69 -29 -30
-53 -50 -53 -46 0 14 -120 -115 -136 -147 -12 -23 -14 -89 -12 -390 l3 -362
26 -55 c43 -87 57 -100 360 -330 69 -52 181 -138 250 -190 181 -138 155 -130
412 -130 305 0 307 1 307 220 l0 130 59 0 58 0 7 -40 c9 -59 73 -244 106 -310
55 -108 155 -246 245 -335 242 -241 545 -365 896 -365 495 0 938 286 1145 737
33 74 77 209 89 276 l7 37 147 0 c103 0 152 -4 163 -13 12 -9 17 -36 21 -106
4 -76 9 -98 23 -108 14 -10 162 -12 752 -10 851 2 762 -12 762 123 0 62 4 87
16 98 14 14 95 16 739 16 644 0 725 -2 739 -16 9 -8 16 -24 16 -34 0 -10 7
-26 16 -34 13 -14 59 -16 350 -16 198 0 343 4 354 10 10 5 21 22 25 37 13 54
5 53 341 53 356 0 344 3 344 -79 0 -26 5 -52 12 -59 9 -9 132 -12 493 -12
l481 0 18 -58 c10 -31 41 -101 69 -156 181 -355 516 -603 907 -670 108 -18
293 -21 406 -5 171 24 372 103 529 209 157 106 326 301 414 478 37 74 97 248
107 310 l7 42 76 0 77 0 2 -31 c3 -42 28 -82 62 -103 25 -14 74 -16 403 -16
l374 0 34 23 c19 13 86 58 149 101 142 97 163 116 190 177 20 48 21 59 18 607
-3 614 0 583 -67 648 -17 16 -89 65 -160 109 l-130 80 -1 51 c0 45 -3 53 -22
58 -37 9 -124 93 -161 154 -46 76 -83 182 -96 276 -6 43 -11 79 -11 82 0 2 61
4 136 4 l137 0 -7 123 c-22 371 -65 680 -112 787 -33 76 -182 151 -529 263
-275 89 -770 214 -1316 332 l-77 16 33 54 c43 73 51 124 26 179 -29 68 -76 91
-181 91 l-86 0 4 55 c4 61 -15 98 -66 124 -57 29 -103 28 -167 -2 -110 -54
-361 -250 -604 -473 -122 -113 -159 -142 -171 -134 -4 2 -1 35 6 72 36 188 -5
317 -129 402 -57 38 -80 45 -370 105 -243 51 -254 54 -286 86 l-33 34 97 464
97 465 -24 23 c-18 18 -56 29 -178 54 -85 17 -162 33 -170 35 -8 2 -27 -1 -42
-7z m191 -173 c41 -9 77 -17 79 -19 5 -6 -160 -799 -168 -809 -4 -5 -51 0
-104 10 -76 14 -96 21 -96 34 0 17 157 774 165 797 3 7 14 10 27 7 13 -3 56
-12 97 -20z m-3866 -1753 c15 -37 27 -71 27 -75 0 -4 -77 -7 -170 -7 l-171 0
3 68 3 67 105 6 c58 3 121 6 141 7 35 2 36 1 62 -66z m-1796 -827 c0 -8 -4
-12 -9 -9 -5 3 -6 10 -3 15 9 13 12 11 12 -6z m6 -114 c-4 -6 -43 30 -43 40 0
5 10 -2 23 -14 13 -12 22 -24 20 -26z m-3272 -1238 c13 -16 12 -17 -3 -4 -10
7 -18 15 -18 17 0 8 8 3 21 -13z m-86 -73 c3 -5 2 -10 -4 -10 -5 0 -13 5 -16
10 -3 6 -2 10 4 10 5 0 13 -4 16 -10z m2727 -145 c457 -69 775 -498 709 -955
-61 -414 -410 -720 -823 -722 -57 0 -132 5 -168 12 -310 57 -554 277 -656 590
-24 76 -27 100 -28 230 -1 157 7 205 56 330 102 259 358 467 628 510 41 6 82
13 90 15 37 7 102 4 192 -10z m8330 -15 c280 -69 505 -278 598 -558 60 -179
53 -397 -20 -578 -177 -443 -707 -652 -1137 -449 -232 109 -408 323 -470 570
-26 105 -24 306 5 407 70 248 223 435 447 546 74 37 201 75 285 86 63 7 213
-5 292 -24z m-10537 -140 c3 -5 1 -10 -4 -10 -6 0 -11 5 -11 10 0 6 2 10 4 10
3 0 8 -4 11 -10z m-28 -82 c-3 -8 -6 -5 -6 6 -1 11 2 17 5 13 3 -3 4 -12 1
-19z m-40 -20 c-3 -8 -6 -5 -6 6 -1 11 2 17 5 13 3 -3 4 -12 1 -19z m-10 -90
c-3 -8 -6 -5 -6 6 -1 11 2 17 5 13 3 -3 4 -12 1 -19z m0 -110 c-3 -8 -6 -5 -6
6 -1 11 2 17 5 13 3 -3 4 -12 1 -19z m33 -118 c0 -11 -4 -20 -9 -20 -5 0 -7 9
-4 20 3 11 7 20 9 20 2 0 4 -9 4 -20z"/>
<path d="M9691 9569 c-1 -9 5 -31 13 -49 l13 -32 11 43 c6 24 9 45 6 48 -2 2
-4 -2 -4 -10 0 -12 -2 -11 -11 1 -8 11 -9 7 -4 -17 4 -18 4 -33 1 -33 -3 0
-10 15 -15 33 -5 17 -10 25 -10 16z"/>
<path d="M8750 9559 c0 -5 5 -7 10 -4 6 3 10 8 10 11 0 2 -4 4 -10 4 -5 0 -10
-5 -10 -11z"/>
<path d="M8777 9546 c-4 -10 -1 -13 8 -9 8 3 12 9 9 14 -7 12 -11 11 -17 -5z"/>
<path d="M8746 9521 c-3 -5 1 -11 9 -14 9 -4 12 -1 8 9 -6 16 -10 17 -17 5z"/>
<path d="M9953 9440 c-67 -30 -132 -78 -148 -111 -11 -19 -15 -53 -14 -97 2
-62 -6 -168 -17 -219 -2 -13 -13 -23 -26 -25 -18 -2 -24 -12 -29 -40 -3 -20
-2 -35 3 -32 4 3 8 16 8 30 0 13 6 24 13 24 16 0 59 -128 46 -136 -19 -12 -49
8 -57 39 -6 22 -10 27 -14 16 -12 -31 15 -64 53 -67 47 -4 91 32 108 87 6 23
16 41 21 41 26 0 40 -15 40 -41 0 -41 24 -95 48 -108 53 -28 109 -5 142 58 16
33 23 38 45 33 18 -3 32 -16 43 -38 19 -42 27 -42 47 -4 24 46 111 80 130 50
13 -21 25 -9 31 30 5 29 11 40 24 40 55 0 65 31 24 79 l-26 31 34 0 c94 0 106
93 15 115 -27 7 -27 8 -12 31 30 46 27 48 -110 100 -36 14 -51 26 -55 44 -10
40 -54 46 -161 21 -50 -11 -95 -19 -99 -16 -5 3 -6 23 -3 45 6 40 6 40 -28 40
-19 0 -53 -9 -76 -20z m-8 -331 c33 -6 101 -8 150 -5 88 6 90 6 109 -20 15
-21 16 -30 7 -50 -6 -14 -11 -43 -11 -64 0 -32 -4 -40 -17 -39 -26 1 -88 25
-85 32 6 17 0 26 -30 40 -31 15 -63 13 -52 -4 3 -5 13 -9 23 -9 10 0 25 -7 32
-17 13 -15 11 -16 -11 -10 -14 3 -68 9 -120 13 -52 4 -106 10 -120 14 l-25 7
23 7 c12 4 22 14 22 21 0 11 -6 12 -25 5 -31 -12 -31 -11 1 51 22 43 29 50 47
45 12 -4 49 -11 82 -17z m-138 -148 c-1 -3 5 -28 12 -54 10 -33 11 -51 3 -59
-7 -7 -15 7 -26 46 -9 30 -19 62 -22 70 -4 11 0 13 15 9 11 -3 19 -8 18 -12z
m209 -68 c9 -32 19 -64 21 -70 7 -17 -39 -17 -55 -1 -7 7 -12 38 -12 70 0 79
23 80 46 1z m35 21 c4 -16 12 -43 17 -61 8 -24 7 -33 -3 -36 -8 -4 -18 15 -29
54 -19 70 -20 82 -4 77 7 -3 16 -18 19 -34z"/>
<path d="M9073 8753 c9 -2 23 -2 30 0 6 3 -1 5 -18 5 -16 0 -22 -2 -12 -5z"/>
<path d="M9178 8753 c7 -3 16 -2 19 1 4 3 -2 6 -13 5 -11 0 -14 -3 -6 -6z"/>
<path d="M9115 8739 c-11 -16 -1 -19 13 -3 7 8 8 14 3 14 -5 0 -13 -5 -16 -11z"/>
<path d="M9033 8733 c9 -2 23 -2 30 0 6 3 -1 5 -18 5 -16 0 -22 -2 -12 -5z"/>
<path d="M9180 8736 c0 -2 11 -6 25 -8 14 -3 25 -1 25 3 0 5 -11 9 -25 9 -14
0 -25 -2 -25 -4z"/>
<path d="M9368 8733 c6 -2 18 -2 25 0 6 3 1 5 -13 5 -14 0 -19 -2 -12 -5z"/>
<path d="M10045 8690 c-38 -23 -105 -37 -105 -21 0 6 -7 11 -16 11 -9 0 -14
-3 -12 -7 2 -5 10 -25 18 -45 15 -39 34 -49 44 -23 3 8 11 15 18 15 9 0 8 -3
-2 -10 -8 -5 -10 -10 -5 -10 27 0 105 73 105 99 0 15 -9 13 -45 -9z"/>
<path d="M10308 8683 c-10 -2 -18 -11 -18 -19 0 -8 -9 -34 -20 -56 -24 -50
-24 -54 -6 -38 16 13 76 103 76 113 0 7 -5 7 -32 0z"/>
<path d="M9632 8660 c0 -14 2 -19 5 -12 2 6 2 18 0 25 -3 6 -5 1 -5 -13z"/>
<path d="M9601 8594 c0 -11 3 -14 6 -6 3 7 2 16 -1 19 -3 4 -6 -2 -5 -13z"/>
<path d="M9627 8603 c-4 -3 -7 -16 -6 -27 0 -19 1 -19 10 3 10 24 8 36 -4 24z"/>
<path d="M9651 8600 c0 -8 4 -22 9 -30 12 -18 12 -2 0 25 -6 13 -9 15 -9 5z"/>
<path d="M8842 8560 c0 -14 2 -19 5 -12 2 6 2 18 0 25 -3 6 -5 1 -5 -13z"/>
<path d="M8861 8554 c0 -11 3 -14 6 -6 3 7 2 16 -1 19 -3 4 -6 -2 -5 -13z"/>
<path d="M8861 8484 c0 -11 3 -14 6 -6 3 7 2 16 -1 19 -3 4 -6 -2 -5 -13z"/>
<path d="M9702 8380 c0 -14 2 -19 5 -12 2 6 2 18 0 25 -3 6 -5 1 -5 -13z"/>
<path d="M8774 8312 c4 -6 -3 -31 -15 -55 -12 -23 -28 -55 -36 -72 l-15 -30
21 25 c11 14 21 30 21 37 0 6 10 28 21 48 18 29 19 39 9 48 -10 9 -11 9 -6 -1z"/>
<path d="M9710 8240 c-9 -6 -10 -10 -3 -10 6 0 15 5 18 10 8 12 4 12 -15 0z"/>
<path d="M9588 8223 c6 -2 18 -2 25 0 6 3 1 5 -13 5 -14 0 -19 -2 -12 -5z"/>
<path d="M9668 8223 c7 -3 16 -2 19 1 4 3 -2 6 -13 5 -11 0 -14 -3 -6 -6z"/>
<path d="M9548 8213 c7 -3 16 -2 19 1 4 3 -2 6 -13 5 -11 0 -14 -3 -6 -6z"/>
<path d="M9618 8203 c7 -3 16 -2 19 1 4 3 -2 6 -13 5 -11 0 -14 -3 -6 -6z"/>
<path d="M9172 8098 c-12 -24 -29 -72 -39 -108 -9 -36 -21 -66 -25 -68 -13 -6
-9 -22 6 -22 8 0 28 8 46 18 26 14 30 22 26 44 -4 22 2 33 32 58 21 19 26 26
12 17 l-26 -15 -2 56 c-1 31 -4 57 -6 59 -2 2 -13 -15 -24 -39z"/>
<path d="M8684 8079 c-3 -6 -1 -16 5 -22 9 -9 10 -7 5 7 -6 15 -4 17 6 11 9
-5 11 -4 6 3 -9 15 -13 15 -22 1z"/>
<path d="M8660 7976 c0 -3 9 -10 20 -16 11 -6 20 -8 20 -6 0 3 -9 10 -20 16
-11 6 -20 8 -20 6z"/>
<path d="M9030 7900 c-18 -12 -2 -12 25 0 13 6 15 9 5 9 -8 0 -22 -4 -30 -9z"/>
<path d="M8940 7826 c6 -6 18 -5 32 1 21 10 21 10 -9 9 -19 -1 -28 -5 -23 -10z"/>
<path d="M8537 7701 c-3 -11 1 -22 8 -24 8 -4 10 3 7 19 -5 29 -8 30 -15 5z"/>
<path d="M9450 7630 c0 -8 145 -109 231 -161 45 -27 97 -52 117 -55 33 -6 39
-4 81 43 46 51 119 147 127 168 4 8 -72 11 -276 11 -154 -1 -280 -3 -280 -6z"/>
</g>
</svg>
