<?xml version="1.0" standalone="no"?>
<!DOCTYPE svg PUBLIC "-//W3C//DTD SVG 20010904//EN"
 "http://www.w3.org/TR/2001/REC-SVG-20010904/DTD/svg10.dtd">
<svg version="1.0" xmlns="http://www.w3.org/2000/svg"
 width="100.000000pt" height="100.000000pt" viewBox="0 0 100.000000 100.000000"
 preserveAspectRatio="xMidYMid meet">

<g transform="translate(0.000000,100.000000) scale(0.100000,-0.100000)"
fill="#000000" stroke="none">
<path d="M600 744 c0 -3 7 -12 15 -20 17 -18 20 -34 5 -34 -5 0 -10 4 -10 10
0 16 -38 32 -46 18 -4 -7 -3 -8 4 -4 7 4 12 3 12 -2 0 -16 -13 -21 -31 -12
-14 8 -21 6 -29 -10 -6 -11 -15 -18 -20 -15 -5 3 -14 -4 -20 -15 -6 -11 -15
-18 -20 -15 -5 3 -11 1 -15 -5 -3 -5 -1 -11 4 -11 21 -3 26 -4 39 -12 6 -5 12
-5 12 -1 0 3 7 1 15 -6 8 -7 15 -9 15 -6 0 4 9 2 19 -4 13 -7 22 -7 26 0 3 5
1 11 -4 11 -20 3 -26 5 -46 16 -11 6 -23 11 -27 12 -5 1 -8 4 -8 9 0 11 23 10
39 -2 8 -6 15 -9 15 -8 1 2 13 -2 28 -9 15 -6 25 -16 22 -20 -3 -5 0 -9 6 -9
7 0 9 8 5 20 -4 11 -2 20 4 20 6 0 11 -5 11 -10 0 -7 6 -7 19 -1 10 6 21 8 23
5 3 -3 8 2 11 10 5 12 2 13 -19 6 -32 -12 -34 -12 -34 1 0 5 5 7 10 4 6 -3 10
-2 10 3 0 5 -12 10 -26 10 -17 0 -24 -5 -20 -14 3 -7 1 -16 -3 -19 -5 -3 -11
1 -14 8 -7 18 18 48 34 42 8 -3 20 -1 28 4 12 8 12 12 -2 26 -10 9 -17 21 -17
26 0 5 -4 9 -10 9 -5 0 -10 -3 -10 -6z m-21 -63 c-18 -25 -25 -28 -40 -18 -22
14 -16 27 11 22 10 -2 24 3 31 11 21 26 20 15 -2 -15z"/>
<path d="M640 744 c0 -3 5 -14 11 -25 7 -15 7 -24 -1 -34 -7 -9 -8 -15 0 -20
5 -3 10 -1 10 5 0 6 5 8 11 4 8 -4 9 1 4 16 -5 17 -4 20 5 15 8 -5 11 -3 8 6
-3 8 -11 14 -19 14 -8 1 -13 6 -11 13 1 7 -2 12 -8 12 -5 0 -10 -3 -10 -6z"/>
<path d="M333 623 c-7 -3 -13 -9 -13 -14 0 -6 4 -7 10 -4 5 3 17 -9 26 -28 17
-36 65 -72 80 -59 4 4 2 -1 -5 -11 -11 -14 -17 -15 -30 -5 -31 24 -50 46 -44
52 4 3 1 6 -5 6 -16 0 -15 -16 3 -33 8 -8 11 -18 7 -22 -4 -5 -1 -5 6 -1 14 8
17 -10 3 -19 -5 -3 -13 4 -16 16 -5 14 -12 18 -23 14 -10 -4 -23 -8 -30 -8 -7
0 -11 -5 -9 -11 3 -6 10 -10 16 -8 6 1 11 -2 11 -8 0 -5 -24 -11 -52 -11 l-53
-1 50 -13 c42 -10 52 -10 62 2 6 8 9 22 5 31 -5 15 -3 14 12 -1 12 -12 22 -15
28 -9 6 6 23 6 45 0 35 -9 58 -3 36 10 -6 4 -11 16 -10 27 1 11 -3 19 -8 18
-15 -2 -61 34 -53 42 4 4 21 -3 37 -15 17 -12 31 -18 31 -14 0 3 6 1 14 -5 10
-9 16 -8 26 4 10 13 9 15 -8 15 -12 0 -23 4 -26 9 -4 5 -14 8 -23 7 -18 -3
-52 24 -46 37 2 4 -1 7 -7 7 -7 0 -9 -8 -5 -20 9 -28 -12 -25 -22 4 -4 12 -14
21 -20 19z"/>
<path d="M400 610 c0 -6 3 -9 8 -8 4 1 18 -4 32 -12 14 -7 26 -13 28 -12 1 1
3 2 5 1 14 -6 59 -4 63 3 3 5 2 8 -3 7 -15 -4 -63 13 -58 20 2 4 -2 8 -10 8
-8 0 -11 -5 -8 -10 4 -6 1 -7 -8 -1 -21 13 -49 15 -49 4z"/>
<path d="M634 605 c-20 -15 -11 -18 20 -6 11 4 15 10 9 14 -5 3 -19 0 -29 -8z"/>
<path d="M300 534 c0 -8 6 -11 15 -8 8 4 15 9 15 13 0 4 -7 8 -15 8 -8 0 -15
-6 -15 -13z"/>
<path d="M410 456 c0 -8 5 -18 10 -21 6 -3 10 3 10 14 0 12 -4 21 -10 21 -5 0
-10 -6 -10 -14z"/>
<path d="M502 394 c-8 -8 -11 -23 -7 -32 5 -14 7 -14 15 -2 9 13 10 13 10 0 0
-33 -16 -41 -71 -38 l-54 3 -3 36 c-3 33 -6 37 -32 35 -15 0 -26 -4 -24 -7 2
-4 -15 -7 -38 -7 -49 1 -119 -31 -142 -64 -24 -35 -20 -67 9 -74 14 -3 25 -9
25 -13 0 -4 13 -6 29 -3 21 3 35 -3 54 -22 30 -30 62 -33 96 -9 33 23 327 29
349 7 27 -28 59 -27 106 2 35 23 45 36 48 62 4 29 0 36 -21 45 -14 6 -46 11
-69 11 -37 1 -48 -4 -68 -29 -13 -16 -24 -24 -24 -17 0 8 13 26 30 42 l29 28
-57 15 c-105 29 -129 31 -142 10 -11 -17 -11 -17 -6 0 5 15 2 17 -14 12 -15
-5 -18 -3 -14 9 8 20 3 20 -14 0z m-128 -67 c14 -10 8 -12 -43 -12 -47 0 -57
2 -49 12 6 7 25 13 42 13 18 0 40 -6 50 -13z m246 -7 c24 -24 25 -38 4 -68
-18 -26 -50 -28 -76 -5 -22 20 -23 51 -1 75 21 24 48 23 73 -2z m-260 -30 c23
-23 24 -33 10 -61 -12 -22 -59 -26 -78 -7 -17 17 -15 54 4 72 21 21 40 20 64
-4z m441 1 c20 -16 22 -23 14 -47 -8 -21 -18 -30 -38 -32 -52 -6 -76 41 -40
80 21 23 35 23 64 -1z m-343 -18 c-10 -2 -28 -2 -40 0 -13 2 -5 4 17 4 22 1
32 -1 23 -4z m0 -30 c-10 -2 -28 -2 -40 0 -13 2 -5 4 17 4 22 1 32 -1 23 -4z"/>
<path d="M571 296 c-20 -22 -21 -24 -4 -28 23 -6 45 1 38 12 -3 5 -13 6 -23 3
-15 -6 -15 -4 2 15 26 30 15 28 -13 -2z"/>
</g>
</svg>
