<?xml version="1.0" standalone="no"?>
<!DOCTYPE svg PUBLIC "-//W3C//DTD SVG 20010904//EN"
 "http://www.w3.org/TR/2001/REC-SVG-20010904/DTD/svg10.dtd">
<svg version="1.0" xmlns="http://www.w3.org/2000/svg"
 width="45.000000pt" height="35.000000pt" viewBox="0 0 45.000000 35.000000"
 preserveAspectRatio="xMidYMid meet">

<g transform="translate(0.000000,35.000000) scale(0.100000,-0.100000)"
fill="#000000" stroke="none">
<path d="M12 338 c-17 -17 -17 -309 0 -326 17 -17 409 -17 426 0 17 17 17 309
0 326 -17 17 -409 17 -426 0z m83 -142 l11 -38 16 41 c10 24 23 41 32 41 15 0
15 -3 0 -37 -9 -21 -20 -48 -25 -60 -14 -38 -46 -29 -54 15 -3 20 -13 47 -21
60 -15 22 -14 23 7 20 17 -2 26 -13 34 -42z m110 -8 c-9 -62 -11 -68 -31 -68
-10 0 -14 6 -10 18 2 9 8 36 11 60 5 28 12 42 22 42 12 0 14 -9 8 -52z m95 37
c0 -8 -9 -15 -20 -15 -26 0 -26 -12 1 -28 13 -8 19 -21 17 -35 -2 -18 -10 -23
-46 -25 -29 -2 -42 0 -37 7 3 6 17 11 31 11 29 0 31 15 4 30 -22 12 -26 40 -8
58 17 17 58 15 58 -3z m95 -22 c3 -21 9 -47 11 -58 5 -19 0 -21 -50 -21 l-55
-1 25 55 c13 30 24 56 24 58 0 2 8 4 19 4 14 0 21 -10 26 -37z"/>
<path d="M357 186 c-4 -10 -5 -21 -2 -24 9 -9 17 6 13 25 -3 17 -4 17 -11 -1z"/>
</g>
</svg>
