<?xml version="1.0" encoding="UTF-8"?>
<svg version="1.1" xmlns="http://www.w3.org/2000/svg" width="2000" height="2000">
<path d="M0 0 C1.70489967 1.32253183 3.42343553 2.6244147 5.14892578 3.91992188 C10.85521401 8.21921511 16.40159265 12.66965508 21.83251953 17.31054688 C22.34959473 17.75205078 22.86666992 18.19355469 23.39941406 18.6484375 C33.24084105 27.15374676 42.66741642 36.08372929 51.86206055 45.27978516 C53.46206472 46.8775858 55.06995568 48.46716238 56.67822266 50.05664062 C63.1626985 56.50640625 69.0723714 63.20634178 74.77001953 70.37304688 C75.69315392 71.46308156 76.62277661 72.54770752 77.56298828 73.62304688 C146.73212229 153.06035575 183.33872257 260.94884259 185.77001953 365.37304688 C185.79193359 366.16743164 185.81384766 366.96181641 185.83642578 367.78027344 C186.54774065 396.69522288 183.9559587 425.78522791 179.77001953 454.37304688 C179.67267517 455.04021729 179.57533081 455.7073877 179.47503662 456.39477539 C170.92931231 514.32534751 153.13180841 570.65182247 127.77001953 623.37304688 C127.23650879 624.48389648 126.70299805 625.59474609 126.15332031 626.73925781 C118.09827147 643.40728097 109.40747478 659.56716419 99.77001953 675.37304688 C99.2626123 676.20594238 98.75520508 677.03883789 98.23242188 677.89697266 C79.84436591 707.89343562 59.02196321 735.99828613 36.17773438 762.72265625 C34.66819165 764.49242886 33.16618981 766.26843966 31.66455078 768.04492188 C22.50999063 778.84333493 22.50999063 778.84333493 17.43139648 783.71069336 C15.83500183 785.30802638 14.39441212 786.96128404 12.94189453 788.68945312 C7.81676465 794.58298144 2.24769503 800.04447327 -3.28149414 805.55493164 C-5.16326321 807.43134163 -7.03962785 809.31303657 -8.91552734 811.1953125 C-14.3243948 816.60718217 -19.71770014 821.97774967 -25.55004883 826.93823242 C-28.29750746 829.28481204 -30.90772825 831.77669337 -33.54248047 834.24804688 C-38.33512962 838.70684168 -43.25187875 842.93425479 -48.35888672 847.03320312 C-51.05616183 849.2313906 -53.6926359 851.48316049 -56.32055664 853.76293945 C-62.81225921 859.39310809 -69.44862172 864.7740842 -76.3203125 869.93603516 C-78.48199406 871.56268533 -80.6350808 873.20041711 -82.78857422 874.83789062 C-113.55251906 898.15481393 -145.73789384 919.19850308 -179.22998047 938.37304688 C-180.3944873 939.04134521 -180.3944873 939.04134521 -181.58251953 939.72314453 C-200.98375574 950.81270479 -220.87538907 961.14526274 -241.22998047 970.37304688 C-242.92948853 971.15687744 -242.92948853 971.15687744 -244.66333008 971.95654297 C-246.24319702 972.6577124 -246.24319702 972.6577124 -247.85498047 973.37304688 C-248.77537109 973.78554687 -249.69576172 974.19804688 -250.64404297 974.62304688 C-256.03137755 976.18553666 -260.10106292 973.62975925 -264.90966797 971.23242188 C-265.55007019 970.91433563 -266.19047241 970.59624939 -266.85028076 970.26852417 C-268.93896138 969.22739189 -271.02234648 968.17621761 -273.10498047 967.12304688 C-273.82304871 966.7616864 -274.54111694 966.40032593 -275.28094482 966.02801514 C-288.1660834 959.53657476 -300.79044217 952.68580458 -313.22998047 945.37304688 C-314.33921875 944.72706543 -315.44845703 944.08108398 -316.59130859 943.41552734 C-342.95758685 928.05018825 -368.55596163 911.33719656 -393.22998047 893.37304688 C-393.98875488 892.82245605 -394.7475293 892.27186523 -395.52929688 891.70458984 C-405.93440645 884.14083552 -416.20296706 876.43175368 -426.22998047 868.37304688 C-426.87032227 867.85887207 -427.51066406 867.34469727 -428.17041016 866.81494141 C-436.7539716 859.90950979 -445.2455965 852.90417485 -453.61914062 845.74560547 C-455.26892731 844.33986119 -456.92652791 842.94377579 -458.58544922 841.54882812 C-470.0237504 831.8918751 -481.01742794 821.73845121 -491.51123047 811.06054688 C-493.35537902 809.2499283 -495.27214997 807.55979315 -497.22998047 805.87304688 C-502.72253538 801.13289675 -507.82032984 796.06972261 -512.54248047 790.56054688 C-515.45252408 787.17104528 -518.55210583 784.00910032 -521.72998047 780.87304688 C-526.11376727 776.53480973 -530.23113177 772.06597582 -534.22998047 767.37304688 C-535.17016486 766.29515697 -536.11169831 765.21844306 -537.05419922 764.14257812 C-550.82430468 748.40258258 -563.84852233 732.22965074 -576.22998047 715.37304688 C-576.81199219 714.58188477 -577.39400391 713.79072266 -577.99365234 712.97558594 C-623.05555957 651.57170442 -658.04059257 582.22341108 -677.22998047 508.37304688 C-677.39649109 507.73234253 -677.56300171 507.09163818 -677.73455811 506.43151855 C-685.97758114 474.5605824 -691.45767718 442.18287477 -694.22998047 409.37304688 C-694.32424316 408.36209961 -694.41850586 407.35115234 -694.515625 406.30957031 C-695.65157274 392.36525291 -695.47590324 378.35378767 -695.47998047 364.37304688 C-695.48042233 363.67962189 -695.48086418 362.9861969 -695.48131943 362.27175903 C-695.48814984 341.82718767 -695.27361128 321.63917398 -692.22998047 301.37304688 C-692.05837402 300.16632324 -691.88676758 298.95959961 -691.70996094 297.71630859 C-684.50025575 247.77669741 -669.34375861 200.16999566 -646.23925781 155.33398438 C-645.56083182 154.01586207 -644.88674095 152.69550034 -644.21679688 151.37304688 C-634.76839335 132.73608212 -623.56718222 115.2204925 -611.22998047 98.37304688 C-610.73643066 97.6940332 -610.24288086 97.01501953 -609.734375 96.31542969 C-600.63259231 83.82232218 -590.74914206 72.15037462 -580.35498047 60.71679688 C-578.94767491 59.16462163 -577.55161131 57.60217283 -576.16748047 56.02929688 C-567.75489731 46.50328359 -558.84014281 37.21017789 -549.12841797 28.99414062 C-546.90098014 27.09211038 -544.75975075 25.10696968 -542.60498047 23.12304688 C-525.61436058 7.83406721 -506.61059823 -5.56661357 -487.22998047 -17.62695312 C-486.6442627 -17.995625 -486.05854492 -18.36429688 -485.45507812 -18.74414062 C-433.16546969 -51.55800312 -373.40842818 -72.66683308 -312.22998047 -80.62695312 C-311.07014648 -80.77793457 -309.9103125 -80.92891602 -308.71533203 -81.08447266 C-208.61916269 -93.44646959 -107.06120407 -70.17910125 0 0 Z M-260.22998047 -79.62695312 C-259.62982774 -50.87963758 -253.10376782 -27.79767019 -232.12524414 -7.03833008 C-215.66448818 8.5381182 -193.66627397 17.91927815 -172.62060547 25.40039062 C-169.10728105 26.67006356 -165.60859053 27.95963658 -162.15185547 29.37695312 C-161.44125977 29.66513916 -160.73066406 29.9533252 -159.99853516 30.25024414 C-157.7717099 31.66398922 -157.14177363 32.92515109 -156.22998047 35.37304688 C-156.25341797 37.73242187 -156.25341797 37.73242187 -156.60498047 40.12304688 C-156.71583984 40.92226563 -156.82669922 41.72148438 -156.94091797 42.54492188 C-157.03630859 43.14820313 -157.13169922 43.75148438 -157.22998047 44.37304688 C-171.52021896 50.9528903 -193.58895177 47.02651565 -208.22998047 42.37304688 C-209.38111328 42.01082031 -210.53224609 41.64859375 -211.71826172 41.27539062 C-241.63014894 30.7077179 -261.63181825 7.15029653 -275.22998047 -20.62695312 C-283.86368563 -39.2583625 -288.43902662 -58.36417437 -291.22998047 -78.62695312 C-303.00420464 -77.75623235 -314.6727545 -76.39608943 -326.32781982 -74.51571655 C-327.67713654 -74.2985494 -329.02712278 -74.08550136 -330.37774658 -73.87661743 C-332.29149478 -73.57850517 -334.20223691 -73.26128804 -336.11279297 -72.94335938 C-337.22025879 -72.76232666 -338.32772461 -72.58129395 -339.46875 -72.39477539 C-342.4054256 -71.57816666 -343.52595139 -71.12281337 -345.22998047 -68.62695312 C-345.98703853 -66.21539014 -345.98703853 -66.21539014 -346.37060547 -63.44726562 C-346.64070435 -61.85700562 -346.64070435 -61.85700562 -346.91625977 -60.23461914 C-347.1022876 -59.08533936 -347.28831543 -57.93605957 -347.47998047 -56.75195312 C-349.46483957 -45.22789711 -351.95268742 -33.95815543 -354.81884766 -22.62548828 C-359.71835753 -3.0802812 -363.27421378 17.98464095 -353.10498047 36.43554688 C-350.60816747 40.4882686 -347.86837287 44.11966257 -344.79248047 47.74804688 C-334.34631113 60.07238022 -329.16619401 72.27101515 -330.03466797 88.41015625 C-330.45435055 92.6279662 -331.924858 95.87241058 -334.22998047 99.37304688 C-334.66568359 100.05496094 -335.10138672 100.736875 -335.55029297 101.43945312 C-346.51998212 117.23460663 -366.08830752 124.78651205 -384.41748047 128.12304688 C-434.24020871 135.96598924 -495.72149686 123.79494341 -537.03857422 94.37304688 C-539.52073771 92.45237123 -541.88681033 90.46066993 -544.22998047 88.37304688 C-545.06013672 87.63699219 -545.89029297 86.9009375 -546.74560547 86.14257812 C-556.13290054 77.31679304 -563.1843162 66.65149649 -567.22998047 54.37304688 C-571.19835342 55.93634531 -573.64569501 58.69418756 -576.41748047 61.81054688 C-576.89435303 62.33825684 -577.37122559 62.8659668 -577.86254883 63.40966797 C-581.87416784 67.88598674 -585.69352233 72.50296349 -589.45263672 77.19335938 C-591.22998047 79.37304688 -591.22998047 79.37304688 -593.22998047 81.37304688 C-593.49810547 82.65179687 -593.76623047 83.93054688 -594.04248047 85.24804688 C-594.78435722 88.47258204 -595.15454947 89.29761588 -597.60498047 91.74804688 C-600.22998047 93.37304688 -600.22998047 93.37304688 -602.06591797 94.03710938 C-605.41956403 96.10741073 -607.26477215 99.16614647 -609.47998047 102.37304688 C-609.93888672 103.015 -610.39779297 103.65695312 -610.87060547 104.31835938 C-613.37773969 107.53658566 -613.37773969 107.53658566 -614.22998047 111.37304688 C-613.49392578 111.54320312 -612.75787109 111.71335937 -611.99951172 111.88867188 C-605.70396627 113.45216269 -600.95549141 114.73903229 -596.91748047 120.12304688 C-595.34641464 125.26471685 -595.56298903 129.03906399 -597.91748047 133.74804688 C-601.04798054 137.3015875 -603.56935512 138.2492686 -608.27612305 138.60009766 C-609.38109131 138.58962402 -610.48605957 138.57915039 -611.62451172 138.56835938 C-612.8265625 138.56191406 -614.02861328 138.55546875 -615.26708984 138.54882812 C-617.1359082 138.52369141 -617.1359082 138.52369141 -619.04248047 138.49804688 C-620.30769531 138.48902344 -621.57291016 138.48 -622.87646484 138.47070312 C-625.99449611 138.44717081 -629.11214144 138.41429233 -632.22998047 138.37304688 C-633.56590844 140.68408298 -634.89882477 142.99676443 -636.22998047 145.31054688 C-636.80232422 146.29958008 -636.80232422 146.29958008 -637.38623047 147.30859375 C-639.35507094 150.17073189 -639.35507094 150.17073189 -640.22998047 153.37304688 C-639.23144043 153.50880127 -638.23290039 153.64455566 -637.20410156 153.78442383 C-633.47893551 154.29374182 -629.75584412 154.81705157 -626.03320312 155.34448242 C-624.42565774 155.5702758 -622.81758315 155.79233573 -621.20898438 156.01049805 C-618.88894859 156.3258218 -616.57118503 156.6547873 -614.25341797 156.98632812 C-613.18430679 157.12715569 -613.18430679 157.12715569 -612.09359741 157.27082825 C-607.63732105 157.9251152 -604.09270083 159.04713483 -600.22998047 161.37304688 C-597.09304008 165.62309514 -596.81740273 169.12870956 -597.57763672 174.18554688 C-598.6587377 177.81079569 -600.5358829 179.744659 -603.22998047 182.37304688 C-606.41946582 183.96778955 -609.853308 183.56338367 -613.35498047 183.56054688 C-614.1808667 183.56119141 -615.00675293 183.56183594 -615.85766602 183.5625 C-624.9669344 183.48842038 -633.99787643 182.65837495 -643.06201172 181.81054688 C-646.80021429 181.46809568 -650.47217672 181.27096732 -654.22998047 181.37304688 C-655.07024443 183.14060214 -655.90196769 184.9122195 -656.72998047 186.68554688 C-657.42607422 188.16474609 -657.42607422 188.16474609 -658.13623047 189.67382812 C-659.41775519 192.35104814 -659.41775519 192.35104814 -659.22998047 195.37304688 C-657.96927734 195.53385742 -656.70857422 195.69466797 -655.40966797 195.86035156 C-650.70374781 196.46453905 -646.00052237 197.08785907 -641.29785156 197.71679688 C-639.26760565 197.9856437 -637.23667778 198.24939434 -635.20507812 198.5078125 C-632.27390694 198.88157636 -629.34573069 199.27399773 -626.41748047 199.66992188 C-625.51819824 199.78051941 -624.61891602 199.89111694 -623.69238281 200.00506592 C-617.06709115 200.92784781 -610.74554149 202.46442944 -606.22998047 207.68554688 C-604.9261481 211.18959636 -604.76575549 213.65924703 -605.22998047 217.37304688 C-606.68303541 220.48673603 -607.95381517 221.90068464 -611.20874023 223.10546875 C-620.88563041 225.26207122 -630.1910668 223.4661254 -639.85498047 222.06054688 C-641.60736369 221.81741262 -643.35996779 221.57586484 -645.11279297 221.3359375 C-647.59148429 220.99616995 -650.06964913 220.65435364 -652.54629517 220.29997253 C-657.7654042 219.5536242 -662.98755579 218.93396876 -668.22998047 218.37304688 C-671.40820186 225.05622269 -673.23158583 232.06022635 -675.16748047 239.18554688 C-675.3429541 239.82567719 -675.51842773 240.4658075 -675.69921875 241.12533569 C-678.53460705 251.47466483 -681.09029245 261.8576064 -683.22998047 272.37304688 C-681.95767578 272.70175781 -680.68537109 273.03046875 -679.37451172 273.36914062 C-655.98475123 279.61104869 -622.59487525 290.46138917 -607.35498047 310.93554688 C-604.86453055 315.29190664 -603.9348081 319.45901054 -605.22998047 324.37304688 C-607.75966521 327.65480006 -609.30729378 329.06548465 -613.22998047 330.37304688 C-629.75678999 331.750281 -647.22622249 323.02203632 -662.47998047 317.62304688 C-665.84241842 316.43423815 -669.20541104 315.24715464 -672.57049561 314.06585693 C-674.64991278 313.33583644 -676.72782076 312.60149939 -678.80401611 311.86236572 C-679.73639099 311.53492371 -680.66876587 311.20748169 -681.62939453 310.87011719 C-682.44796936 310.58017883 -683.26654419 310.29024048 -684.10992432 309.99151611 C-686.34190231 309.23302194 -686.34190231 309.23302194 -689.22998047 309.37304688 C-689.57062686 312.68483642 -689.90112669 315.99756724 -690.22998047 319.31054688 C-690.32537109 320.23673828 -690.42076172 321.16292969 -690.51904297 322.1171875 C-691.08739094 327.90215794 -691.32536832 333.56034963 -691.22998047 339.37304688 C-690.45098389 339.60378906 -689.6719873 339.83453125 -688.86938477 340.07226562 C-673.30557456 344.71195218 -657.95697502 349.43619818 -643.22998047 356.37304688 C-642.12396484 356.88480469 -641.01794922 357.3965625 -639.87841797 357.92382812 C-633.7246743 361.00069996 -629.11959595 364.63647562 -625.22998047 370.37304688 C-622.24641612 379.32373992 -624.60489584 388.93689313 -628.22998047 397.37304688 C-632.92103546 404.40962936 -641.0282673 407.862589 -649.10498047 409.74804688 C-662.93314359 411.86371221 -676.55197239 409.46878079 -690.22998047 407.37304688 C-682.97298838 495.28295103 -655.76802779 579.82375447 -610.85498047 655.81054688 C-610.20110352 656.917771 -609.54722656 658.02499512 -608.87353516 659.16577148 C-604.92186112 665.76917381 -600.74106941 672.13825812 -596.22998047 678.37304688 C-595.36518066 678.2091748 -594.50038086 678.04530273 -593.609375 677.87646484 C-584.41296036 676.17949867 -575.31920722 675.82283217 -566.22998047 678.37304688 C-565.44523036 682.01143373 -564.95242522 684.5588848 -566.16748047 688.12304688 C-570.8339882 693.21378258 -577.65372381 693.7858811 -584.22998047 694.37304688 C-583.63704317 698.45443192 -581.36107171 701.32506947 -578.97998047 704.56054688 C-578.54105469 705.16568115 -578.10212891 705.77081543 -577.64990234 706.39428711 C-572.49327183 713.45955225 -567.15823187 720.39075857 -561.81396484 727.31445312 C-560.27268173 729.31755103 -558.74177035 731.32811121 -557.21435547 733.34179688 C-556.7509375 733.95079834 -556.28751953 734.5597998 -555.81005859 735.18725586 C-554.94195613 736.32831344 -554.07597007 737.47098515 -553.21240234 738.61547852 C-552.24184283 739.88636133 -551.23941799 741.13281915 -550.22998047 742.37304688 C-549.89998047 742.37304688 -549.56998047 742.37304688 -549.22998047 742.37304688 C-549.20810669 741.30159424 -549.20810669 741.30159424 -549.18579102 740.20849609 C-548.2554524 699.39851881 -548.2554524 699.39851881 -535.22998047 686.37304688 C-520.93434867 674.41084841 -505.18360313 672.17323412 -487.22998047 673.37304688 C-475.25816576 674.92658002 -465.37040252 680.86441315 -457.76123047 690.14257812 C-446.47778576 706.57841213 -447.67680226 726.93689982 -451.10498047 745.68554688 C-455.65194873 769.13289569 -461.46319242 792.73614627 -468.69262695 815.50146484 C-470.43792799 820.98256336 -470.43792799 820.98256336 -469.22998047 826.37304688 C-467.16260612 828.79508976 -464.85999895 830.88782806 -462.47998047 832.99804688 C-461.85865234 833.57039063 -461.23732422 834.14273438 -460.59716797 834.73242188 C-457.29836054 837.72501089 -454.07449562 840.10184242 -450.22998047 842.37304688 C-439.74741759 794.48061524 -439.74741759 794.48061524 -430.66748047 746.31054688 C-430.51338715 745.4093512 -430.35929382 744.50815552 -430.20053101 743.57965088 C-428.55682624 733.89787831 -427.04264777 724.19950071 -425.59716797 714.48632812 C-425.33106842 712.7214212 -425.06487549 710.95652836 -424.79858398 709.19165039 C-424.3079562 705.93572923 -423.84193511 702.67778475 -423.39379883 699.41577148 C-422.25932357 691.51621979 -420.94267978 684.04568792 -416.22998047 677.37304688 C-411.99496542 674.24281836 -408.42608036 673.80619961 -403.22998047 674.37304688 C-400.31787727 675.43199349 -398.80929838 676.36098546 -397.25732422 679.07226562 C-393.73412647 687.41323147 -395.41662945 695.40710086 -397.29248047 703.95117188 C-397.51540268 704.99840424 -397.73832489 706.0456366 -397.96800232 707.12460327 C-398.45669287 709.4154787 -398.94911253 711.70556105 -399.4447937 713.99493408 C-400.24563013 717.69535928 -401.03608162 721.39787277 -401.82397461 725.10107422 C-402.98425707 730.54966216 -404.14843358 735.99739169 -405.31640625 741.44433594 C-408.25309863 755.14221963 -411.18057923 768.84203259 -414.08518028 782.54676056 C-414.95149101 786.63264287 -415.82081728 790.71782794 -416.69799805 794.8013916 C-420.19696729 811.09473584 -423.5528587 827.38883044 -426.26513672 843.83398438 C-426.48302353 845.13067047 -426.70091034 846.42735657 -426.92539978 847.76333618 C-427.11493729 848.95760223 -427.30447479 850.15186829 -427.49975586 851.38232422 C-427.74961998 852.94386734 -427.74961998 852.94386734 -428.00453186 854.53695679 C-428.23590744 857.44760674 -428.08696627 859.58647309 -427.22998047 862.37304688 C-425.3232189 864.21008584 -423.53892574 865.7003221 -421.41748047 867.24804688 C-420.494552 867.94534912 -420.494552 867.94534912 -419.55297852 868.65673828 C-418.19018857 869.68381206 -416.82282538 870.70483753 -415.45166016 871.72070312 C-413.12588381 873.45046734 -410.82140217 875.20600362 -408.51904297 876.96679688 C-400.09195351 883.38755578 -391.56373374 889.65149724 -382.85498047 895.68554688 C-382.07678955 896.23065918 -381.29859863 896.77577148 -380.49682617 897.33740234 C-374.38885287 901.51559077 -369.05770799 903.32153424 -361.72998047 904.43554688 C-330.37205727 909.8617048 -292.67787824 920.94844997 -273.35498047 947.74804688 C-269.77634845 953.13856285 -267.13471112 958.66171457 -264.81201172 964.69335938 C-262.78822889 968.12129769 -260.92057244 969.00686373 -257.22998047 970.37304688 C-251.97032262 970.18178659 -247.91782925 968.57346569 -243.22998047 966.37304688 C-243.38595703 965.65761719 -243.54193359 964.9421875 -243.70263672 964.20507812 C-245.45266802 955.24630861 -245.96511587 946.57845308 -243.04248047 937.81054688 C-240.70907055 934.67251285 -238.7524208 933.10103647 -235.22998047 931.37304688 C-229.41400723 930.5287927 -225.81994114 931.40178005 -220.98779297 934.75585938 C-216.20528851 939.15576348 -214.91168594 945.30428364 -213.22998047 951.37304688 C-203.22348097 946.92720616 -193.57141536 942.02219356 -184.04248047 936.62304688 C-183.06335693 936.0685083 -182.0842334 935.51396973 -181.07543945 934.94262695 C-173.97410152 930.93530677 -173.97410152 930.93530677 -167.22998047 926.37304688 C-167.22998047 925.71304688 -167.22998047 925.05304687 -167.22998047 924.37304688 C-174.6662279 921.62282218 -181.10130919 921.06407937 -188.97998047 921.37304688 C-201.12567462 921.8419926 -201.12567462 921.8419926 -206.22998047 918.37304688 C-208.6377537 915.483719 -209.19113446 913.67826552 -209.66748047 909.93554688 C-209.13877672 905.63038777 -208.05655279 903.64592009 -205.22998047 900.37304688 C-195.35433521 894.27956363 -184.17994348 895.93490824 -173.31591797 898.25976562 C-164.32905521 900.54259511 -155.13586674 904.17302618 -147.47998047 909.43554688 C-144.51444963 911.72220519 -144.51444963 911.72220519 -142.01513672 910.81445312 C-138.29171321 908.88746396 -134.87606425 906.61113666 -131.41748047 904.24804688 C-130.72460938 903.78011719 -130.03173828 903.3121875 -129.31787109 902.83007812 C-127.61906942 901.68192251 -125.92413183 900.52805321 -124.22998047 899.37304688 C-124.53935547 898.15617187 -124.84873047 896.93929687 -125.16748047 895.68554688 C-129.24833489 876.7894166 -124.70920066 860.6841065 -114.46826172 844.60742188 C-112.82055953 842.41048563 -111.09178805 840.39067097 -109.22998047 838.37304688 C-108.58802734 837.62925781 -107.94607422 836.88546875 -107.28466797 836.11914062 C-95.09461016 822.82702962 -79.59137618 818.98873944 -62.73974609 814.74609375 C-40.70664613 809.17059002 -24.95011389 799.02718008 -13.22998047 779.37304688 C-2.08464984 759.05425181 -0.83555106 736.46213783 -6.76611328 714.37646484 C-13.86658089 690.73889779 -29.31925688 674.17298931 -50.65771484 662.6394043 C-59.26305448 658.12523076 -67.92292121 654.11355334 -76.99951172 650.65820312 C-86.56775277 646.85173238 -93.99292562 641.61010173 -101.22998047 634.37304688 C-105.68498047 637.34304688 -105.68498047 637.34304688 -110.22998047 640.37304688 C-101.95775277 651.80818516 -88.61680272 657.26802367 -76.29248047 663.31054688 C-61.80634922 670.41514352 -48.76548738 677.90092187 -37.22998047 689.37304688 C-36.60865234 689.95957031 -35.98732422 690.54609375 -35.34716797 691.15039062 C-31.25808186 695.34032863 -28.574037 700.08105044 -25.91748047 705.24804688 C-25.57958496 705.89588135 -25.24168945 706.54371582 -24.89355469 707.21118164 C-17.17311092 722.9550233 -18.26186304 744.07252151 -23.55419922 760.44873047 C-30.46463644 780.12650004 -44.1243178 791.70294258 -62.32763672 800.63867188 C-69.47069475 803.9563844 -76.39092496 805.35145531 -84.22998047 804.37304688 C-86.85177191 803.33557385 -88.10684937 802.32856236 -90.22998047 800.37304688 C-91.43641613 796.75373989 -91.55266606 794.18073683 -91.22998047 790.37304688 C-88.59514622 785.58528393 -85.94213999 783.18905954 -81.22998047 780.49804688 C-80.07001993 779.81763784 -78.91119127 779.13529604 -77.75341797 778.45117188 C-77.16786133 778.10892578 -76.58230469 777.76667969 -75.97900391 777.4140625 C-63.14619037 769.77599481 -50.66648989 761.62334962 -46.70263672 746.36132812 C-43.96284779 729.0395221 -48.05676355 714.79605183 -58.19482422 700.62695312 C-66.93218542 689.23520371 -78.11569794 682.48443542 -90.79248047 676.18554688 C-93.08600176 675.02648332 -95.37897708 673.86633875 -97.67138672 672.70507812 C-98.77095703 672.14957275 -99.87052734 671.59406738 -101.00341797 671.02172852 C-119.80891989 661.41265206 -119.80891989 661.41265206 -126.97998047 653.37304688 C-128.09373047 652.38304687 -128.09373047 652.38304687 -129.22998047 651.37304688 C-136.18093138 651.96274849 -143.34518685 655.77487668 -149.22998047 659.37304688 C-151.13615324 662.12585742 -151.49598048 664.04181616 -152.22998047 667.37304688 C-154.95919357 669.23034507 -157.21903521 669.64650691 -160.47998047 669.62304688 C-161.18638672 669.62820313 -161.89279297 669.63335938 -162.62060547 669.63867188 C-165.22998047 669.37304688 -165.22998047 669.37304688 -168.82763672 668.18945312 C-174.34930208 666.74941105 -179.08476187 668.47298386 -184.41748047 670.06054688 C-186.46124186 670.63787419 -188.50551088 671.21340764 -190.55029297 671.78710938 C-191.52772461 672.06586914 -192.50515625 672.34462891 -193.51220703 672.63183594 C-196.91853287 673.56083389 -200.32852645 674.2555559 -203.79248047 674.93554688 C-208.9277618 676.06395738 -211.49595982 677.73477034 -215.22998047 681.37304688 C-219.38897377 682.76798935 -223.67563577 682.53470244 -228.01513672 682.54101562 C-228.89122086 682.54520508 -229.76730499 682.54939453 -230.66993713 682.55371094 C-233.54416304 682.56355769 -236.41824032 682.56348407 -239.29248047 682.56054688 C-240.27649841 682.56027496 -241.26051636 682.56000305 -242.27435303 682.5597229 C-331.24770956 682.4469568 -331.24770956 682.4469568 -345.22998047 669.37304688 C-345.76623047 668.41140625 -346.30248047 667.44976563 -346.85498047 666.45898438 C-350.14375943 662.1857354 -353.68066659 661.05347424 -358.66748047 659.31054688 C-359.93688477 658.81264648 -359.93688477 658.81264648 -361.23193359 658.3046875 C-363.58427397 657.45180293 -365.75464512 656.7415369 -368.22998047 656.37304688 C-371.00028554 657.55681557 -371.00028554 657.55681557 -373.22998047 659.37304688 C-390.95869934 662.19237036 -407.46046247 649.97157019 -421.22998047 640.37304688 C-422.03556396 639.81858887 -422.03556396 639.81858887 -422.85742188 639.25292969 C-458.58318699 614.62956896 -458.58318699 614.62956896 -462.22998047 599.37304688 C-462.22480771 597.64275879 -462.16296667 595.91164267 -462.04248047 594.18554688 C-461.88646661 590.70553566 -461.88646661 590.70553566 -463.38623047 587.68164062 C-464.56328543 586.57398749 -465.76851813 585.49594821 -466.99169922 584.43945312 C-472.07254614 579.74875849 -476.06645902 573.87479562 -480.22998047 568.37304688 C-480.74898926 567.69306641 -481.26799805 567.01308594 -481.80273438 566.3125 C-501.9528785 539.77298639 -516.34299532 509.82444371 -526.26123047 478.0715332 C-526.60025391 476.99798584 -526.93927734 475.92443848 -527.28857422 474.81835938 C-527.58691162 473.84527832 -527.88524902 472.87219727 -528.19262695 471.86962891 C-529.75630756 468.10634392 -531.96019469 466.71876276 -535.22998047 464.37304688 C-537.65500041 460.29460425 -537.72446044 456.00404202 -537.22998047 451.37304688 C-536.89998047 450.56867187 -536.56998047 449.76429688 -536.22998047 448.93554688 C-533.74121271 442.5580795 -535.38147181 434.65403512 -536.16748047 427.99804688 C-536.25449219 427.20527344 -536.34150391 426.4125 -536.43115234 425.59570312 C-536.79806497 422.38317927 -537.20458838 419.44922315 -538.22998047 416.37304688 C-541.16751229 415.60542025 -543.99708635 415.01407138 -546.97998047 414.49804688 C-558.85783336 412.20858155 -571.99832302 409.44765064 -579.78857422 399.35351562 C-584.92829045 391.5056203 -585.04261892 383.55492726 -584.22998047 374.37304688 C-582.22782063 367.48669443 -578.36324217 362.10633661 -572.22998047 358.37304688 C-562.90728348 353.76182041 -554.62226081 352.28216141 -544.35498047 351.81054688 C-543.47583984 351.76736328 -542.59669922 351.72417969 -541.69091797 351.6796875 C-539.5374225 351.57435348 -537.38371983 351.47327039 -535.22998047 351.37304688 C-535.02953125 350.46353271 -534.82908203 349.55401855 -534.62255859 348.61694336 C-533.67242508 344.34484361 -532.70641281 340.07670167 -531.72998047 335.81054688 C-531.55412415 335.039617 -531.37826782 334.26868713 -531.19708252 333.47439575 C-528.68643404 322.55695645 -525.78041752 312.00149447 -521.49365234 301.61889648 C-519.06980693 295.42362888 -519.13318754 291.63791571 -521.22998047 285.37304688 C-521.53629395 284.39489014 -521.84260742 283.4167334 -522.15820312 282.40893555 C-523.56110157 277.9736078 -525.00050786 273.5516523 -526.48388672 269.14257812 C-528.70356817 262.22335133 -530.30229296 255.66998336 -529.22998047 248.37304688 C-527.22998047 245.18554688 -527.22998047 245.18554688 -524.22998047 243.37304688 C-519.41144839 242.68468515 -517.31984766 242.82811328 -512.97998047 244.99804688 C-508.61497228 248.76782667 -506.137603 252.96811636 -504.22998047 258.37304688 C-503.56998047 258.37304688 -502.90998047 258.37304688 -502.22998047 258.37304688 C-501.78009766 257.54804687 -501.33021484 256.72304688 -500.86669922 255.87304688 C-495.93815225 246.97558536 -490.43965468 238.60146792 -484.56689453 230.30078125 C-482.75111466 227.68255666 -480.99238496 225.02739428 -479.22998047 222.37304688 C-487.68927618 221.73722196 -496.14865343 221.10249671 -504.60813141 220.46910191 C-508.53794723 220.17482777 -512.46773597 219.88020191 -516.39746094 219.5847168 C-520.20349203 219.29854646 -524.00959667 219.01337233 -527.81575012 218.72883415 C-529.253917 218.62115505 -530.69205889 218.51314169 -532.13017273 218.40475655 C-533.50251634 218.3013704 -534.87489915 218.19850308 -536.24732208 218.09617519 C-538.23784676 217.94744973 -540.22817814 217.7961444 -542.21850586 217.64480591 C-545.01898718 217.44275279 -547.81693821 217.29703694 -550.62231445 217.18209839 C-551.34382439 217.14877128 -552.06533432 217.11544416 -552.80870819 217.08110714 C-554.80933963 216.99153762 -556.81061627 216.91672957 -558.81188965 216.84288025 C-562.42427246 216.34634049 -564.34716541 215.56515538 -567.22998047 213.37304688 C-569.71036954 209.65246327 -569.6933525 207.77508117 -569.22998047 203.37304688 C-567.36289542 201.00807248 -565.90936616 199.71273972 -563.22998047 198.37304688 C-552.25450794 197.64628983 -541.46071301 199.07912802 -530.60498047 200.49804688 C-529.74923431 200.60676117 -528.89348816 200.71547546 -528.0118103 200.82748413 C-513.42511307 202.68146366 -498.92135199 204.94496542 -484.44042969 207.49267578 C-483.72041275 207.61830399 -483.00039581 207.74393219 -482.25856018 207.87336731 C-480.32744182 208.21172304 -478.39743738 208.55641937 -476.4675293 208.90161133 C-473.63541459 209.3140096 -471.08082095 209.59133432 -468.22998047 209.37304688 C-466.35397246 207.88628065 -466.35397246 207.88628065 -464.91748047 205.87304688 C-464.40572266 205.22335937 -463.89396484 204.57367187 -463.36669922 203.90429688 C-462.99158203 203.39898438 -462.61646484 202.89367187 -462.22998047 202.37304688 C-466.53290674 200.83667721 -470.72244316 199.81402535 -475.21899414 199.01611328 C-475.89160782 198.89544998 -476.5642215 198.77478668 -477.25721741 198.65046692 C-479.47009033 198.25444546 -481.68401051 197.86462414 -483.89794922 197.47460938 C-485.45819932 197.19606117 -487.0183633 196.91703018 -488.57844543 196.63754272 C-492.68862051 195.90214384 -496.79963861 195.17158417 -500.91094971 194.44256592 C-514.0230206 192.11721436 -527.13111667 189.7717543 -540.22998047 187.37304688 C-541.34842346 187.17046265 -542.46686646 186.96787842 -543.61920166 186.75915527 C-546.34348434 186.2599513 -549.06260789 185.74038347 -551.78076172 185.20898438 C-552.51240036 185.07714752 -553.244039 184.94531067 -553.99784851 184.80947876 C-558.1993347 183.95256666 -560.61699039 182.81720273 -563.22998047 179.37304688 C-563.79248047 176.43554688 -563.79248047 176.43554688 -563.22998047 173.37304688 C-560.67973681 170.27139919 -559.052988 168.64738272 -555.22998047 167.37304688 C-549.08170293 167.09167079 -543.44962127 167.85600016 -537.41748047 168.99023438 C-536.4704425 169.16306442 -535.52340454 169.33589447 -534.54766846 169.51396179 C-531.44026763 170.08415149 -528.33511447 170.66564868 -525.22998047 171.24804688 C-523.06299285 171.64903184 -520.89600059 172.04999175 -518.72900391 172.45092773 C-500.84655449 175.78378068 -483.03673087 179.44836439 -465.25341797 183.27294922 C-464.27951111 183.48071487 -463.30560425 183.68848053 -462.30218506 183.90254211 C-460.48826789 184.28994674 -458.6752449 184.68157285 -456.86334229 185.07829285 C-451.09899443 186.36576218 -451.09899443 186.36576218 -445.22998047 186.37304688 C-442.53034156 184.49537869 -442.53034156 184.49537869 -440.04248047 181.99804688 C-439.18267578 181.1859375 -438.32287109 180.37382813 -437.43701172 179.53710938 C-436.02816401 178.15569056 -434.62518114 176.76824755 -433.22998047 175.37304688 C-433.84557831 175.25966476 -434.46117615 175.14628265 -435.09542847 175.02946472 C-463.19456604 169.84651755 -491.25325463 164.54751978 -519.16748047 158.43554688 C-520.21361511 158.20902435 -521.25974976 157.98250183 -522.33758545 157.74911499 C-551.87707978 151.33181777 -551.87707978 151.33181777 -557.22998047 144.37304688 C-558.46356731 140.67228636 -558.80399679 137.22050762 -558.22998047 133.37304688 C-556.02257366 130.40446531 -554.74400674 129.54438897 -551.22998047 128.37304688 C-542.64145804 127.40954859 -534.63288246 129.70491675 -526.39013672 131.84570312 C-524.95229891 132.20937581 -523.51414494 132.57180045 -522.07569885 132.93305969 C-519.04312386 133.69630771 -516.01221214 134.46570712 -512.98248291 135.24017334 C-505.15550938 137.2388958 -497.31591736 139.18725043 -489.47607422 141.13476562 C-488.7109552 141.32509621 -487.94583618 141.51542679 -487.15753174 141.71152496 C-463.21911751 147.65991945 -438.87483843 153.40307878 -414.22998047 155.37304688 C-413.41682373 155.4576416 -412.60366699 155.54223633 -411.76586914 155.62939453 C-404.47732594 156.07838077 -399.8098216 153.56636935 -393.66748047 149.87304688 C-391.71626301 148.75902207 -389.76311922 147.64836474 -387.80810547 146.54101562 C-386.85613281 145.99622559 -385.90416016 145.45143555 -384.92333984 144.89013672 C-354.50706278 127.75754556 -318.4446839 117.99588763 -283.77392578 115.05566406 C-280.16753395 114.72658292 -278.30998358 114.42638228 -275.22998047 112.37304688 C-273.99365542 109.92955539 -272.85054962 107.49302371 -271.72998047 104.99804688 C-263.28241581 87.25097847 -248.61400305 77.07242014 -230.42529297 70.33398438 C-205.85164515 63.20829246 -178.24126738 69.18935309 -156.29394531 81.17480469 C-151.2311857 84.11400793 -146.66798515 87.55380246 -142.22998047 91.37304688 C-141.56998047 91.91058594 -140.90998047 92.448125 -140.22998047 93.00195312 C-130.77618485 101.42173985 -124.85252122 115.00117367 -123.22998047 127.37304688 C-123.11690972 130.49957642 -123.13505282 133.62002623 -123.16748047 136.74804688 C-123.17199219 137.57949219 -123.17650391 138.4109375 -123.18115234 139.26757812 C-123.19284882 141.30276585 -123.21078112 143.3379161 -123.22998047 145.37304688 C-120.91894437 146.70897484 -118.60626292 148.04189118 -116.29248047 149.37304688 C-115.633125 149.75460937 -114.97376953 150.13617187 -114.29443359 150.52929688 C-111.43229545 152.49813735 -111.43229545 152.49813735 -108.22998047 153.37304688 C-108.03887695 152.46538574 -107.84777344 151.55772461 -107.65087891 150.62255859 C-106.93055398 147.23200392 -106.19866512 143.84437055 -105.45898438 140.45800781 C-105.14219207 138.99643598 -104.82993969 137.533872 -104.52246094 136.0703125 C-104.07772634 133.95746333 -103.61637294 131.84881121 -103.15185547 129.74023438 C-102.87954102 128.4729248 -102.60722656 127.20561523 -102.32666016 125.89990234 C-101.06476114 121.84171151 -99.26569574 118.40876215 -96.22998047 115.37304688 C-90.84700175 114.90496177 -90.84700175 114.90496177 -88.41748047 116.74804688 C-82.8360339 124.38581587 -87.01117311 137.44019509 -88.22998047 146.18554688 C-88.51786716 148.27779718 -88.8037819 150.3702715 -89.0859375 152.46330261 C-89.34064049 154.3489166 -89.60153268 156.23369157 -89.86279297 158.1184082 C-90.33023013 162.24260456 -90.33023013 162.24260456 -90.22998047 166.37304688 C-87.99658548 168.6291657 -87.99658548 168.6291657 -85.04248047 170.49804688 C-84.07955078 171.160625 -83.11662109 171.82320312 -82.12451172 172.50585938 C-79.52251983 174.18433728 -76.89816242 175.80238035 -74.22998047 177.37304688 C-72.04714543 175.19021184 -72.19267039 170.67682579 -71.70654297 167.65820312 C-71.40458286 165.83852121 -71.10249527 164.01886046 -70.80029297 162.19921875 C-70.32859354 159.32971387 -69.85894105 156.45989732 -69.39208984 153.58959961 C-68.94004116 150.81983962 -68.47991974 148.05150589 -68.01904297 145.28320312 C-67.88454742 144.44112808 -67.75005188 143.59905304 -67.61148071 142.73146057 C-64.93906622 126.76106197 -64.93906622 126.76106197 -60.22998047 121.37304688 C-56.38079566 120.07580779 -52.56140229 119.82682254 -48.79248047 121.37304688 C-42.62156824 129.27181453 -44.89973288 141.42982339 -46.00366211 150.72290039 C-47.46667212 162.01928969 -49.7585935 173.08960192 -52.3359375 184.18188477 C-52.59487793 185.32004639 -52.85381836 186.45820801 -53.12060547 187.63085938 C-53.35811523 188.64293457 -53.595625 189.65500977 -53.84033203 190.69775391 C-54.23295818 193.3934916 -54.23169481 194.86372898 -53.22998047 197.37304688 C-51.32138756 199.58514691 -49.39643211 201.66640804 -47.35498047 203.74804688 C-40.8136878 210.60915209 -34.89809012 217.78007955 -29.22998047 225.37304688 C-28.80620117 225.93991211 -28.38242188 226.50677734 -27.94580078 227.09082031 C-21.91360699 235.21874938 -16.45146981 243.63967611 -11.16357422 252.26757812 C-9.53652578 255.14200606 -9.53652578 255.14200606 -8.22998047 256.37304688 C-5.62883113 256.73610516 -3.04007679 257.04306644 -0.42919922 257.31835938 C1.25083438 257.50567965 2.93076164 257.69395539 4.6105957 257.88305664 C5.50249603 257.98272736 6.39439636 258.08239807 7.31332397 258.18508911 C22.47253526 259.89829165 37.48692442 261.98744061 52.45751953 264.93554688 C53.18621246 265.07712219 53.9149054 265.21869751 54.66567993 265.36456299 C82.29352167 270.77431451 82.29352167 270.77431451 86.77001953 276.37304688 C87.83437057 280.27566736 88.16741538 282.43184617 86.58251953 286.18554688 C84.18081425 289.0841567 82.18443553 290.21698557 78.42456055 290.63183594 C77.54985107 290.6340918 76.6751416 290.63634766 75.77392578 290.63867188 C74.7579834 290.64253906 73.74204102 290.64640625 72.6953125 290.65039062 C71.58559082 290.64136719 70.47586914 290.63234375 69.33251953 290.62304688 C67.59059326 290.61724609 67.59059326 290.61724609 65.81347656 290.61132812 C53.64083374 290.49722446 41.49888815 289.8204128 29.3503418 289.08496094 C22.14945406 288.65033163 14.9882686 288.24090502 7.77001953 288.37304688 C8.45809558 292.24453788 9.51888754 295.86439125 10.76611328 299.59179688 C11.15992188 300.77128906 11.55373047 301.95078125 11.95947266 303.16601562 C12.57725586 305.00099609 12.57725586 305.00099609 13.20751953 306.87304688 C13.61550781 308.09636719 14.02349609 309.3196875 14.44384766 310.58007812 C16.1125012 315.56153978 17.77385425 320.51164519 19.77001953 325.37304688 C21.25501953 325.50259766 21.25501953 325.50259766 22.77001953 325.63476562 C38.37252099 327.20429475 38.37252099 327.20429475 42.77001953 332.37304688 C43.52001953 335.93554688 43.52001953 335.93554688 42.77001953 339.37304688 C41.20751953 341.57226562 41.20751953 341.57226562 38.77001953 343.37304688 C36.03318982 343.66419897 33.73061914 343.75627105 31.02001953 343.62304688 C30.32263672 343.605 29.62525391 343.58695313 28.90673828 343.56835938 C27.19390414 343.52143241 25.48178129 343.44969292 23.77001953 343.37304688 C23.89119141 344.44039062 24.01236328 345.50773437 24.13720703 346.60742188 C25.18647782 355.91771891 26.17682284 365.23115197 27.07226562 374.55761719 C27.14912598 375.34620117 27.22598633 376.13478516 27.30517578 376.94726562 C27.37099854 377.63393311 27.43682129 378.32060059 27.50463867 379.02807617 C27.71784262 380.91199885 28.02030982 382.78571471 28.35107422 384.65258789 C28.80541879 388.6874113 28.47497278 392.33547042 27.93798828 396.32617188 C25.54963338 411.32513654 25.54963338 411.32513654 27.83544922 425.88623047 C30.77405026 429.5363548 34.61134579 431.40989822 38.80517578 433.34179688 C42.15181563 435.09828379 44.65758665 437.67852515 47.33251953 440.31054688 C48.39703582 441.31645697 49.46344665 442.32036591 50.53173828 443.32226562 C51.0607373 443.82290527 51.58973633 444.32354492 52.13476562 444.83935547 C53.81656192 446.41669861 55.51806823 447.96975699 57.22705078 449.51757812 C62.46987077 454.27336832 67.55878777 459.01582117 72.10595703 464.45898438 C74.01493499 466.65475714 76.05932514 468.65719116 78.14501953 470.68554688 C82.27501282 474.75954026 85.90498305 479.1054321 89.52783203 483.63085938 C91.65626574 486.23392639 93.86715645 488.71313321 96.14501953 491.18554688 C101.10478986 496.64897718 105.63908487 502.40507478 110.13476562 508.24902344 C111.2909005 509.75072147 112.45041293 511.24982204 113.61230469 512.74707031 C122.62470582 524.36365317 131.22685511 536.16564503 139.42041016 548.37304688 C142.14646002 552.41280817 144.95681475 556.39364084 147.77001953 560.37304688 C150.07380574 559.49833867 150.07380574 559.49833867 150.86743164 556.62011719 C151.25680908 555.40936523 151.64618652 554.19861328 152.04736328 552.95117188 C152.25937881 552.29534119 152.47139435 551.6395105 152.68983459 550.96380615 C153.13973511 549.56607262 153.58586732 548.16712154 154.02856445 546.76708984 C154.69256072 544.67028465 155.36983174 542.5781578 156.04931641 540.48632812 C157.34547635 536.46467091 158.57060953 532.42447373 159.77001953 528.37304688 C160.10952637 527.25188477 160.4490332 526.13072266 160.79882812 524.97558594 C163.08326548 516.54133498 162.64495215 509.22875377 161.52001953 500.62304688 C161.36385121 499.28816256 161.21047685 497.95294859 161.05981445 496.61743164 C160.7663619 494.01767658 160.46590759 491.41918922 160.16015625 488.82080078 C153.79097167 432.53442745 153.79097167 432.53442745 166.11767578 416.63476562 C168.20693766 415.03941909 169.6659533 414.84873262 172.27001953 414.62304688 C173.04345703 414.54570313 173.81689453 414.46835937 174.61376953 414.38867188 C176.77001953 414.37304688 176.77001953 414.37304688 179.77001953 415.37304688 C181.31382229 408.71782995 181.3838542 401.87544948 181.65283203 395.07470703 C181.73375632 393.20906494 181.83114912 391.34409007 181.94189453 389.47998047 C182.11271346 386.52801579 182.2275058 383.57800961 182.33251953 380.62304688 C182.39576416 379.69500244 182.45900879 378.76695801 182.52416992 377.81079102 C182.58719703 375.10556848 182.54834961 372.96841981 181.77001953 370.37304688 C179.82738022 368.43461583 177.94291016 367.13566083 175.54907227 365.80126953 C173.77001953 364.37304688 173.77001953 364.37304688 173.2565918 361.91699219 C173.26898164 359.68501756 173.41758319 357.57577401 173.77001953 355.37304688 C176.08001953 355.04304688 178.39001953 354.71304687 180.77001953 354.37304688 C181.15180237 342.94077201 179.98088705 331.72654007 178.77001953 320.37304688 C178.11001953 320.37304688 177.45001953 320.37304688 176.77001953 320.37304688 C176.19251953 321.13617187 175.61501953 321.89929688 175.02001953 322.68554688 C171.75362586 326.58707264 168.51037208 328.14470275 163.46533203 328.80664062 C153.64807845 328.8173816 145.10108901 327.29790978 135.77001953 324.37304688 C135.07134766 324.15874023 134.37267578 323.94443359 133.65283203 323.72363281 C124.78494849 320.93414747 116.8124814 317.80992302 110.77001953 310.37304688 C108.07423813 305.19714659 107.91045268 299.62634419 109.38720703 294.03710938 C111.32880146 288.86525165 113.64051938 285.9454115 118.54345703 283.36914062 C119.27822266 283.04042969 120.01298828 282.71171875 120.77001953 282.37304688 C121.44291016 282.05464844 122.11580078 281.73625 122.80908203 281.40820312 C136.39270943 276.20034598 153.04315575 279.2228867 166.77001953 282.37304688 C168.43565746 282.71148327 170.10190797 283.04702127 171.77001953 283.37304688 C171.08610619 268.78699368 171.08610619 268.78699368 164.71533203 256.17382812 C163.184125 255.06795638 161.62090266 254.00496253 160.02783203 252.99023438 C155.4705951 249.72605429 152.52308317 244.63223779 150.77001953 239.37304688 C150.33613651 233.74091154 150.0728572 228.32277422 152.33251953 223.06054688 C154.72268304 216.92925787 152.81681099 211.91084428 150.37158203 206.02929688 C149.89205078 204.86527344 149.41251953 203.70125 148.91845703 202.50195312 C148.41572266 201.30441406 147.91298828 200.106875 147.39501953 198.87304688 C146.90001953 197.67550781 146.40501953 196.47796875 145.89501953 195.24414062 C143.55889602 189.60371406 141.19281457 183.9767905 138.77001953 178.37304688 C136.87838878 180.71866901 134.99784179 183.05928661 133.22705078 185.49804688 C125.73719558 195.64448687 116.25562839 202.02990312 103.77001953 204.37304688 C88.33819697 205.97964758 75.18852588 203.0170025 62.77001953 193.37304688 C53.85851217 185.34187906 47.69631877 174.10125191 46.55078125 162.07055664 C45.82436475 147.15166384 47.38774001 134.49593963 56.77001953 122.37304688 C57.49189453 121.34179688 58.21376953 120.31054688 58.95751953 119.24804688 C67.34078506 109.63665965 80.6575299 105.30535748 93.00439453 104.45117188 C93.87837891 104.4125 93.87837891 104.4125 94.77001953 104.37304688 C89.78483067 93.66594173 80.86131848 84.35971783 73.37548828 75.31933594 C71.95261208 73.59440147 70.54710276 71.85705316 69.14501953 70.11523438 C58.67327431 57.32322482 46.53337776 45.95899947 34.77001953 34.37304688 C34.15143066 35.14720947 33.5328418 35.92137207 32.89550781 36.71899414 C23.51637561 48.43052023 14.99630627 56.0260651 -0.22998047 58.37304688 C-12.86656141 59.7180706 -25.11956986 56.07621686 -35.22998047 48.37304688 C-43.75925983 40.62826092 -48.68531199 30.16599583 -49.48388672 18.74023438 C-49.9807141 6.26836146 -47.51106148 -3.38972909 -39.81591797 -13.47070312 C-38.35142549 -15.46183575 -37.25865579 -17.3862742 -36.22998047 -19.62695312 C-45.92419245 -25.08364632 -55.66189152 -30.4585112 -65.47998047 -35.68945312 C-66.36000732 -36.16616455 -67.24003418 -36.64287598 -68.14672852 -37.1340332 C-74.35672467 -40.4191351 -74.35672467 -40.4191351 -81.22998047 -41.62695312 C-84.3634108 -40.31027252 -84.3634108 -40.31027252 -87.22998047 -38.62695312 C-93.77865489 -36.48219076 -102.22653394 -36.61767825 -108.72998047 -38.81445312 C-114.1325825 -41.61222918 -117.5212662 -45.20952459 -120.22998047 -50.62695312 C-120.40376221 -51.66154663 -120.40376221 -51.66154663 -120.58105469 -52.71704102 C-121.10993339 -55.42206488 -121.73836952 -57.29647486 -123.22998047 -59.62695312 C-127.16506306 -61.86823586 -131.34372837 -62.78639324 -135.72998047 -63.81445312 C-136.98157959 -64.13704102 -138.23317871 -64.45962891 -139.52270508 -64.79199219 C-143.41348877 -65.78910042 -147.31990834 -66.70842005 -151.22998047 -67.62695312 C-152.97625732 -68.05451904 -152.97625732 -68.05451904 -154.7578125 -68.49072266 C-171.42806318 -72.56984419 -188.20005017 -75.52416809 -205.22998047 -77.62695312 C-206.18759277 -77.74554688 -207.14520508 -77.86414063 -208.13183594 -77.98632812 C-225.46654157 -80.03107487 -242.80680099 -79.84191121 -260.22998047 -79.62695312 Z M-404.22998047 -53.62695312 C-408.09788537 -48.8509611 -408.39911568 -42.87745287 -408.94287109 -36.94726562 C-410.92735925 -20.9093613 -422.83379354 -3.52082718 -429.90185547 10.78320312 C-437.9725416 27.23757933 -440.27515843 40.23010004 -438.25341797 58.56054688 C-438.22870906 61.52561592 -438.57584961 62.94248724 -440.22998047 65.37304688 C-450.29757208 70.40684268 -465.02789929 64.39481787 -474.85693359 61.17675781 C-487.78420684 56.79850848 -496.02544756 52.88122663 -502.22998047 40.37304688 C-506.9150235 29.08635231 -504.43173238 15.15825911 -499.91748047 4.18164062 C-499.04513031 2.28080944 -498.14809585 0.39096075 -497.21826172 -1.48242188 C-496.09046928 -3.53613773 -496.09046928 -3.53613773 -496.22998047 -5.62695312 C-501.52430486 -3.97512391 -505.5962362 -0.65446097 -509.97998047 2.62304688 C-510.80747803 3.23841309 -511.63497559 3.8537793 -512.48754883 4.48779297 C-518.34578494 8.87993765 -524.1110629 13.37958834 -529.79248047 17.99804688 C-530.51209961 18.5771582 -531.23171875 19.15626953 -531.97314453 19.75292969 C-532.96846191 20.57422363 -532.96846191 20.57422363 -533.98388672 21.41210938 C-534.85509155 22.12681396 -534.85509155 22.12681396 -535.74389648 22.85595703 C-537.44167791 24.5891612 -538.34716708 26.11706066 -539.22998047 28.37304688 C-537.63881896 41.95613296 -530.88071643 51.74877471 -520.72607422 60.54101562 C-505.94331246 71.93101239 -489.02402376 75.99633747 -471.22998047 80.37304688 C-469.61325439 80.78151855 -469.61325439 80.78151855 -467.96386719 81.19824219 C-445.35293745 86.89315277 -422.95114206 90.73041012 -399.60498047 90.74804688 C-398.55599075 90.7510379 -398.55599075 90.7510379 -397.48580933 90.75408936 C-380.11753006 90.78389774 -380.11753006 90.78389774 -365.29248047 82.74804688 C-362.91486156 78.85739775 -362.66538247 77.10716058 -363.47216797 72.72851562 C-366.57952888 63.07006909 -374.78821986 56.72837824 -382.44091797 50.60351562 C-389.75463006 44.62084309 -394.06217157 37.59608836 -396.22998047 28.37304688 C-397.84801424 10.76281884 -391.97198105 -3.5696153 -385.31103516 -19.55786133 C-379.73510333 -33.02864336 -373.94123489 -47.82217965 -374.22998047 -62.62695312 C-384.04440415 -62.62695312 -395.91531212 -58.70469033 -404.22998047 -53.62695312 Z M-19.60498047 7.93554688 C-21.92454451 12.84231697 -22.21882591 17.04384933 -21.22998047 22.37304688 C-19.06307439 27.04376315 -16.25840731 29.73270563 -11.91748047 32.43554688 C-7.33463498 33.60067708 -3.75915408 33.82685569 0.77001953 32.37304688 C5.78844028 29.26867275 8.64929164 25.77157847 10.49267578 20.18164062 C10.93946716 17.06437201 10.87650055 15.36096004 9.77001953 12.37304688 C7.63054339 9.99962449 5.22010037 8.12895147 2.64501953 6.24804688 C1.98123291 5.76263428 1.31744629 5.27722168 0.63354492 4.77709961 C-7.44159329 -0.68104995 -12.98780418 0.79596193 -19.60498047 7.93554688 Z M-231.22998047 114.37304688 C-220.14696128 115.82112113 -220.14696128 115.82112113 -209.35498047 113.93554688 C-204.43353227 112.09106629 -199.73998984 112.02917856 -194.54248047 111.99804688 C-193.32939209 111.97786499 -193.32939209 111.97786499 -192.09179688 111.95727539 C-184.65800296 112.01156457 -178.62482861 113.97819874 -173.22998047 119.37304688 C-172.85873047 120.54867187 -172.48748047 121.72429687 -172.10498047 122.93554688 C-170.60262975 126.53574933 -170.60262975 126.53574933 -167.60107422 127.49023438 C-164.82040171 128.23600861 -162.06363304 128.86789659 -159.22998047 129.37304688 C-159.69646556 120.82082026 -162.65903959 114.48959613 -168.91748047 108.56054688 C-173.24095901 105.02464697 -177.93699112 103.04735983 -183.22998047 101.37304688 C-183.83326172 101.1796875 -184.43654297 100.98632812 -185.05810547 100.78710938 C-201.63342847 97.62706578 -219.54262171 102.03755194 -231.22998047 114.37304688 Z M-443.41357422 189.74414062 C-446.08160006 192.23454477 -448.80188347 194.65064031 -451.54248047 197.06054688 C-455.13051527 200.28292208 -458.36885453 203.61874954 -461.47216797 207.30664062 C-463.38945387 209.56051671 -465.40060248 211.70797534 -467.41748047 213.87304688 C-513.30243888 264.89961353 -538.51592551 337.76824141 -535.08935547 406.18066406 C-532.92765819 446.23347564 -523.74520802 484.21804331 -506.22998047 520.37304688 C-505.89450195 521.07526367 -505.55902344 521.77748047 -505.21337891 522.50097656 C-494.21551295 545.26601732 -478.97976919 566.31262078 -461.70263672 584.71289062 C-459.7007615 586.86656681 -457.79810338 589.05285671 -455.91748047 591.31054688 C-446.64285215 601.95428699 -435.50095638 610.94522864 -424.22998047 619.37304688 C-423.39563477 620.00073975 -423.39563477 620.00073975 -422.54443359 620.64111328 C-363.12297402 665.06853478 -288.32924506 683.98342546 -214.99560547 673.52539062 C-186.55418162 669.16062891 -159.09093162 661.06280225 -133.22998047 648.37304688 C-132.36775879 647.95152344 -131.50553711 647.53 -130.6171875 647.09570312 C-117.82813081 640.77734197 -105.8552174 633.63539427 -94.22998047 625.37304688 C-93.65957031 624.96844238 -93.08916016 624.56383789 -92.50146484 624.14697266 C-69.24245267 607.49789343 -48.31003749 587.30616361 -31.22998047 564.37304688 C-30.80233398 563.80231445 -30.3746875 563.23158203 -29.93408203 562.64355469 C14.94039106 502.41460632 31.80085208 427.26847765 21.77001953 353.37304688 C13.47439022 300.22649403 -10.35402191 250.33448146 -46.22998047 210.37304688 C-46.70757813 209.83373535 -47.18517578 209.29442383 -47.67724609 208.73876953 C-59.64484628 195.24485497 -72.75653383 183.13288649 -87.22998047 172.37304688 C-88.16801514 171.66631836 -88.16801514 171.66631836 -89.125 170.9453125 C-174.16297985 107.23593825 -289.08725018 100.6355212 -443.41357422 189.74414062 Z M78.39501953 137.62304688 C72.91557469 143.36341766 70.36966428 149.17424485 70.48876953 157.15429688 C71.33008029 163.79130397 74.68773484 169.13780963 79.77001953 173.37304688 C86.48954818 178.2111075 91.61096725 179.14530285 99.77001953 178.37304688 C106.46625569 176.55102075 110.8624952 171.92584461 114.77001953 166.37304688 C117.51228696 160.76928299 117.8910319 154.6910433 115.89501953 148.78320312 C112.83923889 142.09868297 109.15089004 137.12672868 102.20361328 134.34570312 C93.8629625 131.71117442 85.60806818 132.03339536 78.39501953 137.62304688 Z M124.77001953 296.37304688 C123.14669619 298.76093474 123.14669619 298.76093474 122.77001953 301.37304688 C123.69503759 304.50196703 124.63522327 305.29591024 127.50048828 306.93554688 C145.15041723 314.82360688 145.15041723 314.82360688 163.77001953 315.37304688 C167.11704641 313.10545558 168.50167314 310.17808605 169.77001953 306.37304688 C169.77001953 301.8501733 168.19625119 298.90898866 165.14501953 295.62304688 C158.08309405 291.90624399 149.8771961 292.00815015 142.08251953 291.99804688 C140.57334961 291.96130859 140.57334961 291.96130859 139.03369141 291.92382812 C132.96239713 291.8998151 129.36032154 292.27107487 124.77001953 296.37304688 Z M-561.22998047 375.37304688 C-561.82810547 375.80617188 -562.42623047 376.23929688 -563.04248047 376.68554688 C-565.07809129 379.57825699 -565.22998047 381.87667747 -565.22998047 385.37304688 C-562.55464013 390.62082986 -559.51125678 391.88496747 -553.97998047 393.68554688 C-548.59757432 395.24119353 -543.96372046 395.73596465 -538.22998047 396.37304688 C-537.89998047 387.46304687 -537.56998047 378.55304688 -537.22998047 369.37304688 C-550.19811273 369.35365975 -550.19811273 369.35365975 -561.22998047 375.37304688 Z M20.77001953 463.37304688 C18.81173704 469.14482684 16.92816666 474.93939794 15.08251953 480.74804688 C14.85604736 481.44994141 14.6295752 482.15183594 14.39624023 482.875 C13.46644539 485.82130741 12.77001953 488.26352854 12.77001953 491.37304688 C13.76259766 491.78554687 14.75517578 492.19804688 15.77783203 492.62304688 C63.21616055 512.64629078 93.19847341 552.06081694 112.57080078 598.80273438 C115.94940822 607.21586751 118.92347179 615.76742405 121.77001953 624.37304688 C124.38279264 621.17426747 126.03917258 617.89117249 127.73095703 614.13085938 C128.0034024 613.52603729 128.27584778 612.92121521 128.55654907 612.29806519 C129.13214034 611.0165535 129.70519952 609.73390188 130.27587891 608.45019531 C131.12832111 606.53555266 131.99145896 604.62602056 132.85595703 602.71679688 C136.59104433 594.40056169 139.83378507 586.00520978 142.77001953 577.37304688 C142.10550781 577.08220215 141.44099609 576.79135742 140.75634766 576.49169922 C133.54835069 573.26777502 128.37393109 568.86072916 122.77001953 563.37304688 C122.28742676 562.90946777 121.80483398 562.44588867 121.30761719 561.96826172 C115.17042513 556.07189869 109.4836317 550.0237424 104.18017578 543.35351562 C101.29370659 539.78402454 98.29020259 536.32939189 95.27001953 532.87304688 C91.51681906 528.56920459 87.80635719 524.24541215 84.20751953 519.81054688 C76.46874878 510.27934025 68.64604713 500.87403106 59.77001953 492.37304688 C54.77001953 487.37304688 54.77001953 487.37304688 53.43798828 485.90039062 C44.35937469 476.17822974 32.88035252 468.71783071 20.77001953 463.37304688 Z M2.77001953 514.37304688 C2.51945801 514.8595874 2.26889648 515.34612793 2.01074219 515.84741211 C-11.17134966 541.36567018 -25.6818416 564.71779728 -45.10498047 586.02929688 C-47.05492771 588.17997398 -48.96024176 590.36129659 -50.85498047 592.56054688 C-60.46778626 603.56555213 -71.73347451 612.44387862 -83.22998047 621.37304688 C-77.76042155 632.05170953 -64.64289296 636.230728 -54.20959473 640.79675293 C-24.17517566 653.98090365 -0.03938579 668.15465094 12.6171875 700.21508789 C14.12268994 704.2304396 15.4816593 708.28328153 16.77001953 712.37304688 C16.99737793 713.08912109 17.22473633 713.80519531 17.45898438 714.54296875 C23.31212927 733.85249826 22.67401001 755.19100551 16.77001953 774.37304688 C16.42717471 775.70396622 16.0883515 777.03605262 15.77001953 778.37304688 C21.1169359 774.16377228 25.21866989 769.54157722 29.45361328 764.22460938 C31.62170774 761.55562294 33.87530314 759.02358632 36.20751953 756.49804688 C36.89475098 755.72477051 37.58198242 754.95149414 38.29003906 754.15478516 C39.98327897 752.25551606 41.71004865 750.38574801 43.46459961 748.54296875 C47.2572416 744.34677597 50.50018175 740.66837172 51.17602539 734.91943359 C50.75242108 731.09666298 49.97218092 727.46373379 49.02001953 723.74804688 C48.70261437 722.32397323 48.39051845 720.89870769 48.08325195 719.47241211 C47.406585 716.39021152 46.69123674 713.32056015 45.9453125 710.25439453 C44.72443176 705.22949844 43.60643467 700.18429005 42.49267578 695.13476562 C40.0554239 684.18070344 37.44717128 673.2707482 34.77001953 662.37304688 C34.55903625 661.51366516 34.34805298 660.65428345 34.13067627 659.76885986 C26.18347509 627.51710392 17.21688736 595.33119395 6.58203125 563.85717773 C5.76204776 561.3486594 5.47129241 559.31616645 5.45751953 556.68554688 C5.44076172 555.93917969 5.42400391 555.1928125 5.40673828 554.42382812 C5.8728531 551.79253479 6.61443289 550.92526389 8.77001953 549.37304688 C10.70751953 549.04492188 10.70751953 549.04492188 12.77001953 549.12304688 C13.45064453 549.13851562 14.13126953 549.15398438 14.83251953 549.16992188 C16.77001953 549.37304688 16.77001953 549.37304688 19.77001953 550.37304688 C20.74658203 552.52929688 20.74658203 552.52929688 21.77001953 555.37304688 C22.88461711 557.54508318 24.01133388 559.71091221 25.14501953 561.87304688 C48.35844251 607.66472668 61.52778353 658.32660731 71.77001953 708.37304688 C79.51401078 701.48621496 84.44076026 691.87421686 89.94335938 683.20751953 C91.52547262 680.75251622 93.15310271 678.34440571 94.82080078 675.94726562 C95.6585803 674.69372006 96.49586751 673.43984525 97.33251953 672.18554688 C98.05568359 671.14011719 98.77884766 670.0946875 99.52392578 669.01757812 C101.41614088 663.48329384 100.0958498 658.96013915 98.77001953 653.37304688 C98.42064331 651.87294067 98.42064331 651.87294067 98.06420898 650.3425293 C97.30325182 647.23463855 96.48664738 644.14754212 95.64501953 641.06054688 C95.34007568 639.93970703 95.03513184 638.81886719 94.72094727 637.6640625 C82.37524624 593.20325738 62.12878768 545.7277011 20.56933594 521.37939453 C12.10502716 516.35815011 12.10502716 516.35815011 2.77001953 514.37304688 Z M-514.62841797 711.10742188 C-523.16989696 723.19048972 -523.64323004 741.08872586 -524.04638672 755.45898438 C-524.22998047 759.37304688 -524.22998047 759.37304688 -524.88232422 762.72460938 C-525.4564967 766.5492624 -525.46855978 768.67433408 -524.22998047 772.37304688 C-519.99084634 778.02655251 -514.62441974 782.64652315 -509.38549805 787.34521484 C-506.06939489 790.4648833 -503.17715027 793.91027839 -500.22998047 797.37304688 C-495.91234373 802.01697251 -491.68078666 806.10256316 -486.22998047 809.37304688 C-483.85799831 799.81304727 -482.08424011 790.22095136 -480.49511719 780.50585938 C-480.1031351 778.11177603 -479.70413305 775.7189384 -479.30419922 773.32617188 C-477.35949473 761.62071042 -476.0349264 750.3801046 -475.97998047 738.49804688 C-475.95935547 737.39074219 -475.93873047 736.2834375 -475.91748047 735.14257812 C-475.86997953 725.0367544 -477.18464612 714.19097663 -484.22998047 706.37304688 C-489.20903543 702.36938765 -494.44172326 701.78039882 -500.69091797 702.06445312 C-507.10033373 702.84344366 -510.69009217 706.28427399 -514.62841797 711.10742188 Z M-54.33300781 840.859375 C-55.02088379 841.09076172 -55.70875977 841.32214844 -56.41748047 841.56054688 C-61.94678149 843.36981737 -67.45741317 844.97410819 -73.10498047 846.37304688 C-84.21234226 849.31632255 -93.18134348 853.60042778 -99.61279297 863.50195312 C-102.61553698 869.37095277 -102.66639502 874.88744168 -102.22998047 881.37304688 C-101.56998047 881.70304687 -100.90998047 882.03304687 -100.22998047 882.37304688 C-88.88545729 874.16016222 -77.77197149 865.75622938 -66.984375 856.82324219 C-65.34160383 855.46531556 -63.69215074 854.11621967 -62.03857422 852.77148438 C-57.04162105 848.70593609 -52.09808418 844.59207009 -47.22998047 840.37304688 C-49.97781592 838.99912915 -51.53260923 839.94640125 -54.33300781 840.859375 Z " fill="#0174BE" transform="translate(1258.22998046875,554.626953125)"/>
<path d="M0 0 C17.85636472 15.4018816 27.95426276 38.85759743 30 62 C31.44403846 88.98546871 22.97011821 112.92734511 5 133 C4.44957031 133.63292969 3.89914062 134.26585937 3.33203125 134.91796875 C-12.83650663 152.36402074 -36.94816332 160.7968898 -60.125 162.1875 C-86.68036483 162.75250776 -110.79522652 152.48655637 -129.8203125 134.3046875 C-147.96327243 115.27399865 -156.25422018 90.95209387 -156 65 C-155.21922113 44.36312612 -147.49289372 24.61705215 -134 9 C-133.11248047 7.89785156 -133.11248047 7.89785156 -132.20703125 6.7734375 C-117.15515659 -11.2888121 -94.44742366 -21.19713182 -71.453125 -23.72265625 C-44.82994829 -25.86094307 -20.22980867 -17.17625264 0 0 Z M-79.0625 -18.6875 C-79.77656006 -18.56987305 -80.49062012 -18.45224609 -81.22631836 -18.33105469 C-87.5130291 -17.16510952 -91.3467087 -15.19997874 -95.1875 -10.125 C-100.60587725 -3.76074224 -107.09139584 -1.31681828 -115.125 0.375 C-125.66035461 2.82696233 -131.47263449 11.13563458 -137 20 C-137 20.66 -137 21.32 -137 22 C-110.7872465 23.18550141 -72.85800885 20.76098113 -51.8671875 2.859375 C-46.92694562 -2.06019641 -42.19566775 -7.59747555 -41.875 -14.8125 C-41.91625 -15.534375 -41.9575 -16.25625 -42 -17 C-53.82918377 -21.43594392 -66.78589865 -20.77273148 -79.0625 -18.6875 Z M-11 -2 C-11.41958984 -0.76636719 -11.41958984 -0.76636719 -11.84765625 0.4921875 C-18.59433465 19.27875823 -31.11953293 31.17272519 -48.7578125 39.9140625 C-80.78485442 54.98392955 -116.09079168 58.53541731 -151 58 C-152.99427564 67.49096166 -152.07380058 76.59383307 -150 86 C-128.21967065 88.40687842 -109.33982988 88.17388976 -88.15722656 82.03271484 C-81.15565757 80.062687 -74.71868595 78.73705005 -67.6875 81.125 C-64.35247558 83.45176122 -62.79503256 85.34089516 -61 89 C-60.18525894 95.31424325 -61.38968442 99.75376017 -65 105 C-71.12179826 111.41331246 -79.90244038 114.63570296 -88.69702148 115.16113281 C-103.73391403 115.3770755 -118.11555292 114.68946828 -132.95996094 112.28125 C-135.32332875 111.95542428 -137.61753388 111.88234735 -140 112 C-137.99070311 117.56196675 -134.74520346 121.48856945 -131 126 C-130.31550781 126.83273437 -129.63101563 127.66546875 -128.92578125 128.5234375 C-113.977559 145.96750296 -92.62586112 155.66363391 -70 158 C-68.33355482 158.0271703 -66.66626132 158.03675576 -65 158 C-65.061875 156.700625 -65.12375 155.40125 -65.1875 154.0625 C-65.17745349 147.68296415 -63.55102137 142.42993347 -60.125 137.0625 C-56.70354224 133.74167335 -53.66945827 132.88963109 -49 132.625 C-40.20694588 132.84519334 -31.61798671 135.9782193 -24.48828125 141.046875 C-23.01385013 142.17976818 -23.01385013 142.17976818 -21 142 C-20.34 143.32 -19.68 144.64 -19 146 C-1.58267028 138.25896457 12.52962391 120.49364893 19.45019531 103.15087891 C22.10955946 96.20698364 24.08910898 89.41276834 25 82 C24.40832031 81.68289063 23.81664062 81.36578125 23.20703125 81.0390625 C16.70309871 77.198241 13.33295532 73.22318859 11 66 C9.94447709 60.8354772 11.09944497 56.32783318 13.578125 51.765625 C16.05973665 48.68406328 19.3541906 47.3450559 23 46 C22.55123384 44.35153231 22.09069512 42.70626545 21.625 41.0625 C21.36976563 40.14597656 21.11453125 39.22945312 20.8515625 38.28515625 C20.23339896 35.83254913 20.23339896 35.83254913 18 35 C16.41934153 35.43923234 14.85838367 35.95077334 13.3125 36.5 C8.82779687 37.9128111 5.62574107 38.32164031 1 37 C-1.58455285 35.10466125 -1.96275506 34.11173483 -3 31 C-3.86542231 23.56973131 -2.85500665 18.54494455 1.1015625 12.19140625 C2.23995259 10.05626988 2.23995259 10.05626988 1.4296875 7.98046875 C-0.31734307 5.56040181 -2.2555599 3.71752866 -4.5 1.75 C-5.69109375 0.69039062 -5.69109375 0.69039062 -6.90625 -0.390625 C-8.82414631 -2.20314159 -8.82414631 -2.20314159 -11 -2 Z " fill="#0174BE" transform="translate(1066,882)"/>
<path d="M0 0 C2.8100346 1.79363911 4.50940468 3.01880935 6 6 C7.05277694 14.42221553 3.29983341 19.25718462 -1.3762207 25.97802734 C-5.06603933 31.36725212 -8.14796388 36.84715237 -10.9375 42.75 C-11.36498535 43.65322998 -11.7924707 44.55645996 -12.23291016 45.48706055 C-24.645163 71.60595087 -24.645163 71.60595087 -26.3125 99.25 C-24.48536704 101.68617728 -22.93969835 102.30007182 -20 103 C-17.86309032 102.37182709 -17.86309032 102.37182709 -16 101 C-15.03728869 99.18460991 -15.03728869 99.18460991 -14.5625 96.9375 C-14.32144531 96.04160156 -14.08039063 95.14570312 -13.83203125 94.22265625 C-13.55746094 93.15917969 -13.28289062 92.09570312 -13 91 C-7.51906331 70.54103224 0.61609868 45.71091366 17 31.375 C20.88478872 29.59447183 22.92892621 29.79375591 27 31 C29.98565305 33.04281525 30.8348056 34.54328608 32.0625 37.9375 C32.73488905 45.90531019 27.31452591 54.3244755 24.08837891 61.4230957 C11.47080314 88.30598631 11.47080314 88.30598631 11 117 C12.5869609 119.76203675 12.5869609 119.76203675 15 121 C18.01811422 120.82246387 18.83735215 120.16264785 21 118 C21.83365323 115.66889647 22.58116327 113.36236691 23.28515625 110.9921875 C23.73335515 109.52614142 24.18176895 108.06016102 24.63037109 106.59423828 C24.86391296 105.82339905 25.09745483 105.05255981 25.33807373 104.25836182 C28.92469941 92.45836636 32.62095441 80.70357002 36.875 69.125 C37.21926025 68.15933105 37.56352051 67.19366211 37.91821289 66.19873047 C39.86689049 61.01448608 41.62742074 57.47275588 46 54 C49.63782632 52.78739123 52.17735999 52.60455448 56 53 C58.9375 55 58.9375 55 61 58 C61.79801394 65.15665691 59.71725951 71.4946831 57.75149536 78.33764648 C47.82372144 113.10016506 43.92915149 150.80934018 60.08203125 184.45703125 C61.17310749 187.47954457 61.269271 189.80847654 61 193 C59.375 195.375 59.375 195.375 57 197 C53.15937218 197.66793527 51.48684679 197.29570448 48.14453125 195.265625 C40.91542856 190.05707896 34.53424862 183.87287126 28.80859375 177.0625 C25.91875232 173.76695728 22.76401121 170.74390565 19.625 167.6875 C17.56586202 165.57933493 15.63624587 163.45172402 13.71484375 161.22265625 C9.85113987 156.76743049 5.74235558 152.5947821 1.5625 148.4375 C0.85029297 147.72142578 0.13808594 147.00535156 -0.59570312 146.26757812 C-4.66915598 142.20152482 -8.84831844 138.33177761 -13.20727539 134.57446289 C-15.5831494 132.48784823 -17.79466876 130.26493479 -20 128 C-22.93661618 125.02751675 -25.8896408 122.15619248 -29.0625 119.4375 C-45.9500908 104.87923207 -45.9500908 104.87923207 -47.2734375 93.6875 C-48.31571592 66.10720959 -33.5782248 25.57953764 -15 5 C-10.05404419 0.78705261 -6.62206104 -0.95144555 0 0 Z " fill="#0174BE" transform="translate(1345,869)"/>
<path d="M0 0 C11.76668568 8.80109823 19.83680469 21.20851566 22.40234375 35.796875 C23.83881023 52.14920855 19.97820705 65.50583905 9.37109375 78.234375 C-1.08001227 89.44280754 -14.09377896 94.66323424 -29.0859375 96.140625 C-42.78122713 96.53426207 -55.30820714 92.52118345 -65.78515625 83.671875 C-76.51296572 73.50069715 -81.22977172 61.34868724 -81.84765625 46.734375 C-81.54991378 30.7645517 -75.20659608 16.51114804 -64.1328125 5.13671875 C-46.58099694 -11.06287682 -19.98844938 -13.08806086 0 0 Z M-49.15234375 38.59375 C-52.89392861 44.29713881 -54.28761726 49.8524471 -53.16015625 56.60546875 C-51.19563336 64.2589225 -47.09154423 69.32250153 -40.59765625 73.796875 C-34.38100202 76.88461717 -26.88426586 76.90900032 -20.21875 75.1796875 C-14.13086004 72.48719605 -9.33637203 67.34385519 -6.42578125 61.40625 C-4.53386637 55.44493331 -4.52619941 48.33236909 -7.03515625 42.546875 C-10.39400393 36.83324799 -15.67451518 32.28954278 -21.53515625 29.296875 C-32.88506592 27.44382852 -41.75900228 29.30908862 -49.15234375 38.59375 Z " fill="#0174BE" transform="translate(679.59765625,988.203125)"/>
<path d="M0 0 C0.68377716 0.08797852 1.36755432 0.17595703 2.072052 0.26660156 C11.82241711 1.52691717 21.52062889 3.01138117 31.1875 4.8125 C32.22745117 5.00158936 33.26740234 5.19067871 34.33886719 5.38549805 C43.32907602 7.15116797 51.11040188 9.83484329 57.75 16.3125 C60.28150988 20.52004401 60.57307387 24.51539272 59.75 29.3125 C57.70370665 33.16866238 54.78575554 35.69078588 50.75 37.3125 C48.4606781 37.56646729 48.4606781 37.56646729 45.91577148 37.57128906 C44.9563414 37.57759338 43.99691132 37.58389771 43.00840759 37.59039307 C41.97309402 37.5863446 40.93778046 37.58229614 39.87109375 37.578125 C38.2491787 37.58099518 38.2491787 37.58099518 36.59449768 37.58392334 C34.29712696 37.58528541 31.99974855 37.58158746 29.70239258 37.57324219 C26.25258106 37.5626989 22.80330921 37.57305497 19.35351562 37.5859375 C-24.76113911 37.61581023 -24.76113911 37.61581023 -37.25 27.3125 C-41.25263619 22.87714639 -42.62763255 19.55466389 -42.52734375 13.50390625 C-41.83421455 8.02720932 -39.4527364 4.26978 -35.1875 0.875 C-24.88366419 -4.60576373 -11.10730436 -1.45750408 0 0 Z " fill="#0174BE" transform="translate(926.25,1251.6875)"/>
<path d="M0 0 C0.85980469 0.43570312 1.71960938 0.87140625 2.60546875 1.3203125 C16.09191041 8.78784298 25.03409008 21.42205691 29.37109375 36.14453125 C30.47221715 41.14404186 31.51969619 46.24660211 28.94140625 50.91796875 C27.19885807 53.09486128 25.50462671 54.74768664 23 56 C16.03874915 56.69612508 16.03874915 56.69612508 12.015625 54 C8.41279525 50.79382248 6.55223735 46.92492587 4.5 42.625 C-0.65089364 31.8608619 -0.65089364 31.8608619 -10 25 C-16.294969 24.3705031 -20.71057804 25.39772125 -26 29 C-28.02084365 30.66856145 -30.01715918 32.35035522 -32 34.0625 C-36.98558597 38.34883115 -41.21086886 41.90153188 -48.08984375 42.04296875 C-53.75631494 41.58922897 -57.12872995 39.61839572 -61.3125 36 C-63.92825091 31.34977616 -63.7709134 27.20716963 -63 22 C-60.50430635 13.18626084 -54.44132343 7.94135125 -47 3 C-32.59567147 -4.91658807 -15.09083537 -7.74999839 0 0 Z " fill="#0174BE" transform="translate(923,1385)"/>
<path d="M0 0 C2.43119623 1.87015094 3.64069173 3.28138345 5 6 C7.78034088 32.33380003 -7.46541964 68.56149397 -22 90 C-25.7895904 94.11467781 -29.18829456 95.85149955 -34.8125 96.3125 C-40.35916925 96.231081 -43.43919705 93.51861909 -47.3125 89.75 C-49.94041772 85.46746742 -50.37191301 81.69033181 -49.69921875 76.82421875 C-47.40841672 67.55192482 -41.76493044 59.32989675 -36.93066406 51.20214844 C-30.28661935 40.0266227 -25.06066853 28.44679422 -20.1171875 16.4375 C-19.81304932 15.71159668 -19.50891113 14.98569336 -19.19555664 14.23779297 C-18.62481349 12.87223831 -18.06583568 11.50167979 -17.52124023 10.12548828 C-14.19787895 2.19791927 -8.51665963 -1.26485044 0 0 Z " fill="#0174BE" transform="translate(1098,1322)"/>
<path d="M0 0 C3.22403512 2.06668918 3.85950419 3.52231425 4.9375 7.1875 C5.07584703 15.62666868 0.5504233 23.54914372 -2.9375 31.0625 C-3.41912598 32.10398193 -3.90075195 33.14546387 -4.39697266 34.21850586 C-11.72729372 49.96367597 -19.44808663 65.47017467 -27.9375 80.625 C-28.46907715 81.57898682 -29.0006543 82.53297363 -29.54833984 83.51586914 C-37.50094679 97.5003156 -37.50094679 97.5003156 -45 100 C-49.38959855 100.28515109 -52.2684226 99.45723588 -56 97.125 C-59.11752119 92.25387314 -59.05774292 88.61292697 -58 83 C-56.91676724 80.51806917 -55.80006007 78.18410456 -54.53515625 75.80078125 C-53.80185713 74.37842109 -53.06938832 72.95563264 -52.33764648 71.5324707 C-51.95357635 70.79147125 -51.56950623 70.0504718 -51.17379761 69.28701782 C-49.20235966 65.44588397 -47.31369703 61.56448809 -45.4140625 57.6875 C-44.22021122 55.2697825 -43.02427834 52.8531027 -41.828125 50.43652344 C-41.02674233 48.81359344 -40.22823218 47.18924184 -39.43261719 45.56347656 C-16.10023885 -2.07745017 -16.10023885 -2.07745017 0 0 Z " fill="#0174BE" transform="translate(1153,1319)"/>
<path d="M0 0 C10.72527979 8.08765542 18.72527549 18.05380989 20.9375 31.5625 C21.32876151 37.2408081 20.18227756 42.42744107 16.44921875 46.828125 C9.91168958 52.8003246 3.16626351 53.45780023 -5.4609375 53.3125 C-14.86231847 52.48235598 -22.56784128 47.71695607 -28.9453125 40.9296875 C-35.89267378 32.58704027 -37.61535783 25.11367697 -37.34765625 14.3125 C-36.71389069 8.2739248 -34.58637744 4.19894203 -30.125 0.125 C-20.86596151 -6.17114617 -9.51653621 -5.59002836 0 0 Z " fill="#0174BE" transform="translate(1034,1320)"/>
<path d="M0 0 C3.14775948 2.67559556 5.6458404 5.4166808 7.5 9.125 C8.07939914 16.30954936 8.07939914 16.30954936 5.8125 19.5 C1.404805 22.59729919 -2.59720502 23.40893817 -7.92578125 23.7578125 C-9.18600098 23.84184326 -10.4462207 23.92587402 -11.74462891 24.01245117 C-13.10053441 24.09251169 -14.45649313 24.1716752 -15.8125 24.25 C-16.49963074 24.29202545 -17.18676147 24.3340509 -17.89471436 24.37734985 C-69.24574394 27.4976407 -69.24574394 27.4976407 -79.31640625 19.72265625 C-82.59805352 16.48669317 -83.94073807 13.74284285 -84.25 9.125 C-83.92708134 4.6041388 -82.73449049 1.8043222 -79.5390625 -1.40625 C-61.38121593 -14.48546515 -18.70586533 -10.02099928 0 0 Z " fill="#0174BE" transform="translate(1105.5,1267.875)"/>
<path d="M0 0 C7.89659483 6.64031838 13.29622251 14.93863103 14.75 25.3125 C15.53373728 35.2398389 14.52991606 44.80221734 8.1953125 52.84375 C3.90131573 57.20737915 -1.14648405 59.09834155 -7.25 59.3125 C-15.63163996 58.25256499 -21.27245822 53.94360024 -26.640625 47.6015625 C-33.04308102 38.4951566 -34.0762554 28.13415057 -33.25 17.3125 C-31.71896028 10.5975595 -29.25221953 5.0765186 -24.25 0.3125 C-16.07623963 -4.62581356 -8.39715703 -4.3600623 0 0 Z " fill="#0174BE" transform="translate(1005.25,1397.6875)"/>
<path d="M0 0 C1.28112167 -0.00095673 2.56224335 -0.00191345 3.88218689 -0.00289917 C6.56868728 -0.00435727 9.25515398 -0.00228303 11.94165039 0.00244141 C15.34560097 0.00814334 18.74947273 0.00484457 22.15342045 -0.00113106 C25.4564529 -0.00565928 28.75946532 -0.00246851 32.0625 0 C33.26391129 -0.00202423 34.46532257 -0.00404846 35.70314026 -0.00613403 C60.23668666 0.06081716 60.23668666 0.06081716 66.96484375 5.1328125 C69.89267707 8.2436354 70.19986975 10.99743445 70.40234375 15.1328125 C70.29253669 18.64663831 70.03191779 20.01782843 68.21484375 23.1328125 C62.25267677 28.43251648 55.91074838 27.47840871 48.27734375 27.4453125 C47.60702118 27.44315735 46.93669861 27.4410022 46.24606323 27.43878174 C27.30980098 27.3415704 8.97662431 24.65204885 -9.59765625 21.1953125 C-10.26336639 21.07420105 -10.92907654 20.9530896 -11.61495972 20.82830811 C-18.96994933 19.47460383 -25.67895139 18.19307912 -32.03515625 14.1328125 C-33.70690002 11.44590003 -34.03869852 10.30638356 -33.97265625 7.0703125 C-33.03515625 4.1328125 -33.03515625 4.1328125 -30.87876892 2.4916687 C-27.61512285 0.93209424 -25.20473811 0.63732843 -21.59985352 0.45361328 C-20.36107452 0.38934143 -19.12229553 0.32506958 -17.84597778 0.2588501 C-11.89526549 0.0620386 -5.95378065 -0.01004832 0 0 Z " fill="#0174BE" transform="translate(1311.03515625,779.8671875)"/>
<path d="M0 0 C13.41749276 7.42865851 22.78657062 21.22370579 28.1875 35.25 C28.89970917 39.61402679 28.47169122 43.36399209 27.125 47.5625 C24.6254269 51.02964978 22.22732827 52.98176467 18.1875 54.25 C8.24842081 55.60470064 1.10649633 53.1400434 -6.9375 47.5 C-15.96628191 40.27697447 -23.49407301 30.33872773 -25.390625 18.703125 C-25.60292057 12.12196235 -25.05707904 7.36526192 -20.8125 2.25 C-14.56474888 -3.15608517 -7.37494094 -3.15562377 0 0 Z " fill="#0174BE" transform="translate(684.8125,819.75)"/>
<path d="M0 0 C5.95493211 3.36583119 11.17072983 8.54342606 13.6875 15 C14.55223708 22.60164222 14.53706819 29.79801702 9.6875 36 C3.33861415 42.9651434 -3.76058361 47.10078704 -13.25 47.5625 C-20.36321721 47.28159588 -26.25122554 45.20467429 -31.23046875 39.9921875 C-36.63951573 33.02852132 -37.17556705 26.7001127 -36.3125 18 C-33.75918025 9.69884836 -28.47112992 3.52779466 -21.125 -0.9375 C-13.85008557 -2.96493517 -6.97218745 -3.14598702 0 0 Z " fill="#0174BE" transform="translate(1066.3125,962)"/>
<path d="M0 0 C7.0573979 4.09653556 12.07773893 9.77621603 14.31640625 17.671875 C15.92979567 26.03216561 15.21393467 33.73336858 10.7890625 41.12109375 C6.36529243 46.18431873 1.8073657 48.81414766 -4.8984375 49.49609375 C-10.83816079 49.30521417 -16.55805775 47.37549568 -21.109375 43.5078125 C-27.07369098 36.94706492 -27.61135982 30.22189966 -27.45703125 21.59765625 C-26.88488428 13.51494508 -24.24699361 7.59358688 -18.2109375 2.12109375 C-12.81788185 -1.67855909 -6.1701333 -2.45279151 0 0 Z " fill="#0174BE" transform="translate(894.2109375,1313.87890625)"/>
<path d="M0 0 C0.680625 -0.03738281 1.36125 -0.07476563 2.0625 -0.11328125 C5.95753791 -0.18121796 7.59547734 0.25424719 10.69921875 2.6796875 C12.75 5.375 12.75 5.375 13.3125 8.875 C12.6528376 12.97956603 11.79532989 14.57009089 8.75 17.375 C3.45260106 19.56817084 -2.05950709 20.22933779 -7.6953125 21.03125 C-8.70157684 21.17904907 -9.70784119 21.32684814 -10.74459839 21.47912598 C-13.95400747 21.94955153 -17.1644317 22.41255858 -20.375 22.875 C-24.58622117 23.4876458 -28.79701168 24.10322291 -33.0078125 24.71875 C-34.51313789 24.93766907 -34.51313789 24.93766907 -36.0488739 25.16101074 C-42.02547175 26.03397415 -47.9859702 26.95614065 -53.93334961 28.01171875 C-64.23568727 29.62726079 -64.23568727 29.62726079 -68.015625 27.27734375 C-70.6013624 24.61346593 -71.24282513 22.45679346 -71.5625 18.8125 C-69.72410629 13.99765932 -66.72122461 12.66665424 -62.25 10.375 C-59.50512129 9.2817656 -56.7425575 8.51514239 -53.875 7.8125 C-53.07916504 7.60979492 -52.28333008 7.40708984 -51.46337891 7.19824219 C-34.83766378 3.1656622 -17.1391779 0.36537007 0 0 Z " fill="#0174BE" transform="translate(697.25,1134.625)"/>
<path d="M0 0 C2.66869982 2.67448611 3.89968542 4.29471392 4.43676758 8.07080078 C4.40220459 9.22563965 4.3676416 10.38047852 4.33203125 11.5703125 C4.31614456 12.21565948 4.30025787 12.86100647 4.28388977 13.52590942 C4.21841884 15.68621108 4.11461993 17.8417649 4 20 C3.96066345 20.76389038 3.9213269 21.52778076 3.88079834 22.31481934 C3.60925892 27.31068332 3.26392965 32.29896351 2.88305664 37.28759766 C2.68831116 39.86426753 2.50874678 42.44170278 2.33007812 45.01953125 C1.73914143 53.15595389 0.95782972 61.21312699 -0.41796875 69.2578125 C-0.52925613 69.92400604 -0.64054352 70.59019958 -0.75520325 71.27658081 C-1.75978472 76.74224002 -3.08019513 82.81539446 -6.8125 87.0625 C-10.02884499 88.44093357 -11.71566467 88.1632021 -15 87 C-19.24670911 82.40896313 -19.81790985 78.00075145 -20 72 C-19.74184465 67.8204104 -19.20178303 63.69488518 -18.63671875 59.546875 C-18.48467484 58.36965881 -18.33263092 57.19244263 -18.17597961 55.97955322 C-17.68973746 52.23499423 -17.18868308 48.49258526 -16.6875 44.75 C-16.36169041 42.25142445 -16.03681187 39.75272731 -15.71289062 37.25390625 C-14.15626872 25.32849914 -14.15626872 25.32849914 -13.44564819 20.21960449 C-13.13317924 17.96215914 -12.83617681 15.70254435 -12.5506897 13.44152832 C-12.39450165 12.28552124 -12.2383136 11.12951416 -12.07739258 9.93847656 C-11.94246902 8.89548401 -11.80754547 7.85249146 -11.66853333 6.77789307 C-10.94760561 3.78229055 -10.12126631 2.21446466 -8 0 C-4.60398243 -1.13200586 -3.35097244 -1.14423449 0 0 Z " fill="#0174BE" transform="translate(1245,688)"/>
<path d="M0 0 C2.2933287 2.44128539 2.86000572 3.4942086 3.3125 6.8125 C2.92510242 10.1699457 2.29810499 12.21647426 -0.0546875 14.69140625 C-4.99717641 18.06653 -11.28562512 18.88514483 -17.0625 20.0625 C-18.09455566 20.27293945 -19.12661133 20.48337891 -20.18994141 20.70019531 C-55.9691514 27.90032998 -55.9691514 27.90032998 -63.125 24.6875 C-65.88461618 22.3729832 -66.03120756 21.39419987 -66.375 17.75 C-65.99227742 13.23387359 -65.4953952 12.01638656 -62.0625 9.0625 C-54.40854038 5.63644993 -46.27738094 3.75341043 -38.125 1.9375 C-37.03509766 1.68613281 -35.94519531 1.43476562 -34.82226562 1.17578125 C-7.82666369 -4.95156274 -7.82666369 -4.95156274 0 0 Z " fill="#0174BE" transform="translate(711.0625,1178.9375)"/>
<path d="M0 0 C5.03823395 4.31848624 8.3258151 9.01912989 9.09765625 15.63671875 C9.41913616 24.92579622 5.7276188 31.17288923 -0.45703125 37.8671875 C-1.01261719 38.43695312 -1.56820313 39.00671875 -2.140625 39.59375 C-2.88699219 40.42132812 -2.88699219 40.42132812 -3.6484375 41.265625 C-6.2334856 43.56645315 -8.77857829 43.47978232 -12.140625 43.59375 C-18.15036058 41.5504399 -21.43276645 37.78138176 -24.33984375 32.35546875 C-26.865949 26.51440433 -27.52052533 21.06774568 -27.578125 14.78125 C-27.5881958 14.06412842 -27.5982666 13.34700684 -27.60864258 12.6081543 C-27.53103778 7.88196697 -26.61767159 4.60704183 -24.140625 0.59375 C-16.87916171 -6.29533056 -7.99213996 -5.49859229 0 0 Z " fill="#0174BE" transform="translate(1175.140625,1252.40625)"/>
<path d="M0 0 C7.01329893 3.15538916 11.63493703 8.15618949 15 15 C17.88114048 22.60300961 17.66580831 30.80312774 14.375 38.25 C12.01606422 42.39498716 9.27998979 45.77473016 5 48 C0.11806718 49.00578648 -3.72941021 48.52741463 -8.3125 46.625 C-15.83693661 39.27555028 -18.03980702 29.16391618 -18.375 19 C-18.27481302 13.15158503 -17.74087537 8.62381489 -14 4 C-9.76676998 0.15160907 -5.62590334 -1.32193357 0 0 Z " fill="#0174BE" transform="translate(953,1324)"/>
<path d="M0 0 C1.125 3.4375 1.125 3.4375 1 7 C-2.02304844 11.0967256 -5.52754599 12.00294294 -10.3125 12.9375 C-11.44570679 13.17291504 -11.44570679 13.17291504 -12.60180664 13.41308594 C-20.68036198 15.03459933 -28.81084923 16.39401096 -36.9375 17.75 C-37.60045074 17.86286346 -38.26340149 17.97572693 -38.94644165 18.0920105 C-58.70985715 21.43004762 -58.70985715 21.43004762 -66.1875 18.9375 C-68 17 -68 17 -68.6875 13.625 C-67.93512742 9.65794457 -66.95244117 8.57708392 -63.83520508 6.15087891 C-60.60088603 4.12259901 -57.18633218 3.25803921 -53.5 2.375 C-52.68047852 2.17044189 -51.86095703 1.96588379 -51.01660156 1.75512695 C-11.9141543 -7.56426512 -11.9141543 -7.56426512 0 0 Z " fill="#0174BE" transform="translate(696,1105)"/>
<path d="M0 0 C4.77940959 5.14859154 6.60814615 9.74820143 7.24609375 16.765625 C6.73361935 22.60783317 5.25009583 26.78123506 1.43359375 31.265625 C-2.68660863 34.66479196 -6.42306356 34.66922288 -11.5625 34.609375 C-16.39210643 34.06689191 -19.05345845 31.36921024 -22.31640625 28.015625 C-26.60626159 21.42763287 -26.6291169 14.82460653 -25.06640625 7.328125 C-22.51056548 2.30772348 -19.15058779 -1.47247107 -13.81640625 -3.546875 C-8.642969 -3.78203124 -4.1346799 -3.34526087 0 0 Z " fill="#0174BE" transform="translate(959.06640625,540.671875)"/>
<path d="M0 0 C3.77702297 2.63513231 6.60374735 5.7074947 8.6875 9.875 C9.40968508 17.01397709 9.13710235 22.13735486 4.6875 27.875 C-1.15480217 32.40576495 -6.06591403 33.70753658 -13.3125 32.875 C-17.70608303 31.52609293 -20.6256353 29.61470044 -23.75 26.25 C-26.4327506 20.45525871 -26.95975587 15.30220953 -25.3125 9.125 C-19.50145227 -0.31795256 -10.60609387 -3.60206962 0 0 Z " fill="#0174BE" transform="translate(1062.3125,483.125)"/>
<path d="M0 0 C4.27269152 3.71049526 4.56824468 7.64021781 5 13 C6.32986079 39.09102997 6.32986079 39.09102997 1.10546875 46.79296875 C-1 49 -1 49 -3.9375 50 C-7.66232206 50 -9.12027769 49.33490998 -12 47 C-15.00572872 42.95903007 -15.37544659 39.9972078 -15.36328125 35.01171875 C-15.36377975 34.34968948 -15.36427826 33.68766022 -15.36479187 33.00556946 C-15.36246034 31.60955799 -15.35278624 30.21354161 -15.33618164 28.81762695 C-15.31268564 26.70419774 -15.31561544 24.59204159 -15.32226562 22.47851562 C-15.28797642 6.08379431 -15.28797642 6.08379431 -11.5625 1.0625 C-7.64684613 -1.60014463 -4.4166105 -1.08478153 0 0 Z " fill="#0174BE" transform="translate(1280,705)"/>
<path d="M0 0 C4.437109 2.55072255 7.07125035 5.07824334 8.61328125 10.08984375 C9.29912126 14.91676839 9.13407968 18.12008115 6.80078125 22.46484375 C6.07890625 23.33109375 5.35703125 24.19734375 4.61328125 25.08984375 C4.15953125 25.66734375 3.70578125 26.24484375 3.23828125 26.83984375 C-1.10736126 30.18264568 -6.08856856 30.55459377 -11.38671875 30.08984375 C-17.44809566 28.10422028 -21.41647105 25.31388545 -24.76171875 19.83984375 C-25.86808104 14.97184968 -25.76057774 10.38975326 -23.15234375 6.0234375 C-17.3809761 -1.10152411 -8.73078427 -3.32941528 0 0 Z " fill="#0174BE" transform="translate(1098.38671875,528.91015625)"/>
<path d="M0 0 C4.46177251 2.4787625 7.53914501 4.99594391 9.0078125 10.0546875 C9.81550588 15.15862229 9.43118041 18.53719555 6.375 22.875 C2.35488922 26.91701874 -1.18791116 29.00583754 -6.9375 29.125 C-12.8892945 29.02853656 -16.21202051 27.28797949 -20.4375 23.0625 C-22.80503432 19.61266427 -23.625 18.03279543 -23.625 13.875 C-22.70915793 9.27168855 -21.55650181 5.83101502 -18.25 2.4375 C-11.98864919 -1.28949453 -7.12749178 -2.21198021 0 0 Z " fill="#0174BE" transform="translate(1234.625,634.125)"/>
<path d="M0 0 C3.6587973 2.46756097 6.07524794 4.54381257 7.2578125 8.92578125 C8.0703797 14.06915871 7.75705337 17.41280683 4.6875 21.8125 C-0.30478603 26.43036457 -4.21911668 27.11366878 -10.80859375 27.02734375 C-15.5206924 26.62302951 -18.30094069 24.79671987 -21.625 21.5625 C-23.73310246 18.12707376 -24.24297959 15.8446836 -24.3125 11.8125 C-22.50316249 6.1940309 -20.27867295 2.50745597 -15.125 -0.4375 C-9.86061072 -1.84133714 -5.13968966 -1.84253026 0 0 Z " fill="#0174BE" transform="translate(1149.3125,592.1875)"/>
<path d="M0 0 C3.04965951 2.27546339 4.73624907 4.65359588 5.76953125 8.3203125 C6.17463186 13.24059699 5.5300692 16.35422375 2.45703125 20.2578125 C-3.0147852 24.45711349 -7.41079056 25.17014932 -14.23046875 24.3203125 C-17.9164186 23.05283904 -20.52996089 21.08861144 -23.16796875 18.1953125 C-24.77060505 13.85876722 -25.01084687 9.8785959 -24.23046875 5.3203125 C-22.54530161 1.92917369 -20.17806912 -0.11624944 -16.91796875 -2.0546875 C-10.57730278 -3.52926098 -5.65807333 -3.19173367 0 0 Z " fill="#0174BE" transform="translate(1151.23046875,549.6796875)"/>
<path d="M0 0 C3.77216784 2.94229091 4.89571139 4.8276677 6.125 9.4375 C6.5225496 14.36323652 5.37467254 17.56461378 2.25 21.375 C-0.31370767 24.20280821 -2.26232085 25.26818257 -6.14453125 25.67578125 C-10.4574755 25.80165827 -13.3294369 25.68548323 -17.3125 23.875 C-20.8413563 20.51828303 -22.6314508 17.38328558 -23.0390625 12.453125 C-22.78409433 7.39298745 -20.79239681 4.4770407 -17.4453125 0.78515625 C-12.86001426 -3.14998776 -5.14301154 -2.56056319 0 0 Z " fill="#0174BE" transform="translate(1277.875,646.5625)"/>
<path d="M0 0 C3.8841544 4.1195577 4.44707376 7.48979138 4.3203125 13.00390625 C3.81039909 17.32271833 1.33266049 20.46236626 -1.9375 23.1875 C-7.32203624 24.98234541 -12.13805686 25.02057553 -17.3125 22.625 C-20.90053449 19.29325368 -22.74871719 16.14509743 -23.06640625 11.16796875 C-22.72433236 5.74661596 -20.82981232 2.90288904 -16.9375 -0.8125 C-11.66358514 -4.18194561 -5.12026774 -3.15931414 0 0 Z " fill="#0174BE" transform="translate(1195.9375,616.8125)"/>
<path d="M0 0 C3.37417486 2.1631279 4.80232022 4.53770911 5.9375 8.34765625 C6.48451721 12.11523728 5.94986019 15.10027962 4.25 18.5 C0.98046425 22.2480044 -1.3503073 23.71505766 -6.25 24.5 C-11.76914175 24.81537953 -14.99556232 23.02359062 -19.125 19.4375 C-21.50684839 15.13185098 -21.64265847 11.30958227 -20.75 6.5 C-19.04734896 3.08771984 -16.68272906 1.04000103 -13.375 -0.875 C-8.55646029 -2.02227136 -4.51182017 -2.1512054 0 0 Z " fill="#0174BE" transform="translate(974.75,604.5)"/>
<path d="M0 0 C3.14847243 1.300456 4.61740061 2.5514352 6.8125 5.125 C8.47473733 9.14936406 8.57800081 12.70404806 8 17 C6.39571169 20.68986311 4.55142572 23.08031042 1 25 C-3.53001273 26.0229061 -5.8651976 26.39281621 -10.25 24.875 C-14.49090879 21.98347128 -16.55270818 19.61025055 -17.9375 14.625 C-18.01367284 10.20697538 -17.2286913 7.81034318 -15 4 C-10.36438892 -0.30449601 -6.06166087 -0.918773 0 0 Z " fill="#0174BE" transform="translate(655,1028)"/>
<path d="M0 0 C3.98129682 2.25464121 6.54722828 4.64168485 8 9 C8.37188362 14.02042893 8.13722452 16.99733424 5 21 C2.72260535 23.55344249 1.05671938 24.80915436 -2.3359375 25.421875 C-6.67612426 25.65647969 -9.98801371 25.53925103 -13.5 22.8125 C-17.1853856 18.6664412 -18.02600055 16.63803435 -17.9375 11.0625 C-17.23065992 6.51113946 -15.21711484 4.21711484 -12 1 C-8.24063624 -0.87968188 -4.08301699 -0.65815796 0 0 Z " fill="#0174BE" transform="translate(1357,698)"/>
<path d="M0 0 C3.18500291 1.62145603 5.22111096 2.97328264 7.375 5.8125 C8.58034586 10.0312105 8.57301453 13.63113196 6.875 17.6875 C4.43743407 20.69383131 2.50995922 22.31001964 -1 24 C-5.80597244 24.43925555 -9.69029559 23.63796335 -13.5 20.625 C-16.4595402 17.51748279 -16.91356274 15.91623498 -17.3125 11.6875 C-16.94050629 7.2979742 -15.80652364 5.35223657 -13 2 C-8.80271906 -0.57281029 -4.7970332 -0.68172742 0 0 Z " fill="#0174BE" transform="translate(1312,621)"/>
<path d="M0 0 C2.62170183 3.65449346 2.77158329 5.46292617 2.0625 9.875 C0.26687595 12.62829021 -0.99004922 14.40127461 -3.9375 15.875 C-8.56963493 16.43012815 -11.91922127 16.5114242 -15.9375 14 C-18.27093332 11.5207271 -18.85350117 10.49099145 -19.3125 7.125 C-18.78378755 2.54282548 -17.22287582 1.08570819 -13.9375 -2.125 C-9.25118484 -4.46815758 -4.03327479 -2.91768815 0 0 Z " fill="#0174BE" transform="translate(1241.9375,1151.125)"/>
</svg>
