<svg width="365" height="225" viewBox="0 0 365 225" fill="none" xmlns="http://www.w3.org/2000/svg">
<path fill-rule="evenodd" clip-rule="evenodd" d="M176.108 22.6523C260.908 -5.9749 343.985 12.8689 361.666 64.7401C379.347 116.612 324.937 181.869 240.138 210.496C155.338 239.123 72.2614 220.279 54.5797 168.408C36.8987 116.537 91.3088 51.2789 176.108 22.6523Z" fill="#8ED7FF" fill-opacity="0.3"/>
<path fill-rule="evenodd" clip-rule="evenodd" d="M342.253 46.5886C352.614 43.0902 362.641 45.0266 364.648 50.9138C366.654 56.8009 359.882 64.4091 349.519 67.9069C339.157 71.4053 329.13 69.4689 327.124 63.5817C325.117 57.6946 331.891 50.0864 342.253 46.5886Z" fill="#0C3569"/>
<path fill-rule="evenodd" clip-rule="evenodd" d="M327.063 33.7341C332.33 35.5323 335.565 39.9951 334.287 43.7026C333.01 47.4095 327.704 48.9575 322.436 47.1587C317.168 45.3612 313.933 40.8983 315.212 37.1908C316.489 33.484 321.796 31.9359 327.063 33.7341Z" fill="#0C3569"/>
<path fill-rule="evenodd" clip-rule="evenodd" d="M343.558 33.6491C346.384 32.6948 349.245 33.5942 349.948 35.657C350.652 37.7204 348.931 40.1666 346.105 41.1203C343.278 42.0746 340.418 41.1752 339.714 39.1118C339.011 37.049 340.732 34.6028 343.558 33.6491Z" fill="#0C3569"/>
<path fill-rule="evenodd" clip-rule="evenodd" d="M39.989 108.592C35.8745 116.435 28.8926 120.898 24.3928 118.561C19.8937 116.224 19.5815 107.971 23.696 100.128C27.8098 92.2855 34.7924 87.822 39.2908 90.1595C43.7906 92.4964 44.1022 100.75 39.989 108.592Z" fill="#E1E2DF"/>
<path fill-rule="evenodd" clip-rule="evenodd" d="M22.8961 77.2868C27.0588 78.9131 29.4965 82.6067 28.3408 85.5367C27.1851 88.4667 22.8732 89.5227 18.7105 87.8964C14.5471 86.27 12.1094 82.5764 13.2651 79.6464C14.4215 76.7165 18.7327 75.6598 22.8961 77.2868Z" fill="#0C3569" fill-opacity="0.2"/>
<path fill-rule="evenodd" clip-rule="evenodd" d="M32.2162 68.7868C33.3401 66.453 35.6459 65.2264 37.3658 66.0475C39.0864 66.8673 39.5693 69.4247 38.4454 71.7584C37.3214 74.0915 35.0157 75.3181 33.2957 74.4977C31.5758 73.6772 31.0922 71.1199 32.2162 68.7868Z" fill="#E1E2DF"/>
<path fill-rule="evenodd" clip-rule="evenodd" d="M141.337 15.1711C213.263 39.2533 285.614 -13.0721 308.224 70.9053C321.433 119.963 221.325 136.903 162.697 144.434C104.07 151.965 52.0771 125.757 46.5683 85.8969C41.0601 46.0373 69.411 -8.9111 141.337 15.1711Z" fill="#0C3569" fill-opacity="0.2"/>
<path fill-rule="evenodd" clip-rule="evenodd" d="M136.16 102.897L138.972 131.745L154.008 136.565L154.958 103.657L136.16 102.897ZM253.028 90.4036L282.725 96.5547L282.849 85.1733L254.372 76.4503L253.028 90.4036ZM202.874 53.1835L198.634 86.8446L199.054 110.253L198.938 111.252L215.622 113.958L221.81 57.0918L202.874 53.1835ZM205.338 33.6286L203.519 48.0726L222.369 51.9633L224.054 36.4777L205.338 33.6286ZM166.763 30.4314L160.315 69.0448L160.138 75.2149L194.633 83.5722L200.986 33.1385L166.763 30.4314ZM129.586 22.0653L133.698 77.6276H133.696L135.655 97.7226L155.107 98.5083L155.977 68.376L162.429 29.7386L129.586 22.0653ZM92.9824 56.7388L86.5558 73.2936L129.868 83.4232L129.353 78.1424L129.345 78.0717L128.437 65.806L92.9824 56.7388ZM82.1627 72.266L88.6235 55.624L62.8316 49.0282L58.4626 66.7231L82.1627 72.266ZM132.723 112.706L107.655 112.667L104.016 130.062L134.517 131.117L132.723 112.706ZM79.7529 106.38L106.025 107.516L132.221 107.556L130.393 88.8101L84.6816 78.119L77.0549 97.7655L81.1549 101.787L79.7529 106.38ZM69.3946 22.4468L64.0584 44.0582L128.038 60.4197L124.364 10.7704C125.827 11.0332 127.31 11.3294 128.816 11.6648L129.189 16.7093L163.275 24.6719L163.976 20.4711C165.429 20.6821 166.881 20.8773 168.33 21.0459L167.615 25.3269L201.632 28.0181L202.384 22.0432C203.869 21.9939 205.348 21.9377 206.819 21.8758L205.979 28.5335L224.609 31.3706L225.742 20.9568C227.224 20.8886 228.692 20.8299 230.151 20.7756L222.621 89.9735L241.13 92.3641L247.744 20.708C249.215 20.7705 250.67 20.8545 252.107 20.9657L245.835 88.913L248.723 89.5118L250.605 69.9745L282.906 79.8692L283.439 30.6525C284.922 31.6662 286.361 32.7785 287.757 33.9918L287.411 65.9052L305.981 63.4893C306.521 65.086 307.033 66.7622 307.53 68.4764L287.354 71.1013L286.915 111.682C285.505 112.556 284.044 113.408 282.533 114.24L282.668 101.788L245.36 94.0587L244.9 99.0401L238.406 122.702L242.04 129.704C240.552 130.114 239.055 130.515 237.55 130.908L233.638 123.37L240.615 97.9449L240.656 97.4914L222.064 95.0901L219.379 119.77L198.347 116.359L195.649 139.629C194.147 139.881 192.653 140.123 191.167 140.362L194.694 109.927L194.313 88.7539L159.987 80.4376L158.326 137.949L164.5 139.929L178.788 142.246C173.182 143.055 167.781 143.781 162.697 144.434C162.496 144.46 162.296 144.481 162.094 144.506L139.51 137.266L140.332 145.701C138.856 145.677 137.386 145.638 135.927 145.572L135.021 136.287L102.945 135.178L101.972 139.831C100.551 139.394 99.1513 138.932 97.7696 138.449L98.4861 135.024L88.3424 134.673C84.6804 133.004 81.2024 131.161 77.9238 129.16L99.5568 129.908L103.188 112.549L78.1999 111.468L73.6462 126.384C72.3477 125.484 71.0904 124.554 69.8693 123.599L76.0185 103.456L71.699 99.2201L80.2898 77.092L57.2339 71.7001L50.3973 99.39C49.3165 96.9204 48.428 94.3776 47.7432 91.7672L63.4643 28.092C65.2921 26.086 67.2685 24.1976 69.3946 22.4468Z" fill="white"/>
<path fill-rule="evenodd" clip-rule="evenodd" d="M75.5565 198.091C36.999 199.185 12.2847 200.869 12.2847 202.758C12.2847 204.874 43.2542 206.732 89.9531 207.792C84.6962 204.921 79.8766 201.683 75.5565 198.091Z" fill="#E1E2DF"/>
<path fill-rule="evenodd" clip-rule="evenodd" d="M180.14 196.791C140.589 196.791 104.24 197.278 75.552 198.092C79.8728 201.683 84.6917 204.921 89.948 207.792C115.999 208.384 146.943 208.726 180.14 208.726C203.724 208.726 226.166 208.552 246.53 208.24C255.114 205.099 263.364 201.585 271.235 197.746C244.997 197.142 213.723 196.791 180.14 196.791Z" fill="#0C3569"/>
<path fill-rule="evenodd" clip-rule="evenodd" d="M98.5896 116.778C83.2276 121.797 57.1958 124.481 38.3165 130.199C19.4373 135.917 12.2847 146.537 12.2847 149.57C12.2847 152.605 12.2847 163.224 12.2847 168.125C12.2847 173.027 18.5557 177.871 27.9976 183.296C37.4394 188.721 45.8214 187.614 50.6289 187.614H52.6928C51.5149 184.363 50.8707 180.858 50.8707 177.204C50.8707 160.263 64.6714 146.53 81.6949 146.53C98.7184 146.53 112.518 160.263 112.518 177.204C112.518 180.858 111.875 184.363 110.697 187.614H273.749C272.571 184.363 271.928 180.858 271.928 177.204C271.928 160.263 285.728 146.53 302.751 146.53C312.921 146.53 321.94 151.433 327.554 158.992C333.317 153.401 338.494 147.619 343.029 141.711C342.84 140.333 342.729 139.016 342.729 137.784C342.729 125.998 319.863 102.542 316.228 98.8075C312.593 95.0735 308.02 90.639 308.489 88.8882C308.958 87.1381 313.977 88.0653 314.352 86.6707C314.727 85.2767 303.212 82.9367 290.43 80.8366C277.649 78.7359 238.717 74.7682 212.802 76.1685C186.888 77.5687 172.347 81.1865 151.709 90.7559C131.071 100.325 118.758 108.61 98.5896 116.778Z" fill="#0C3569"/>
<path fill-rule="evenodd" clip-rule="evenodd" d="M192.314 163.738C159.539 163.738 132.97 164.476 132.97 165.386C132.97 166.297 159.539 167.035 192.314 167.035C225.089 167.035 251.658 166.297 251.658 165.386C251.658 164.476 225.089 163.738 192.314 163.738Z" fill="#0C3569"/>
<path fill-rule="evenodd" clip-rule="evenodd" d="M342.735 138.171C342.732 138.041 342.729 137.911 342.729 137.784C342.729 137.609 342.723 137.431 342.714 137.25C339.163 138.019 334.587 139.225 329.869 142.013C328.689 142.709 327.46 143.589 326.145 144.53C323.512 146.416 320.526 148.552 316.868 149.929C317.223 150.112 317.573 150.302 317.921 150.497C321.334 149.087 324.161 147.064 326.676 145.264C327.965 144.34 329.17 143.477 330.331 142.792C334.859 140.117 339.274 138.929 342.735 138.171Z" fill="#0C3569"/>
<path fill-rule="evenodd" clip-rule="evenodd" d="M341.631 132.584C339.625 127.165 335.141 120.667 330.456 114.791C325.388 114.087 323.216 113.988 322.784 115.37C322.216 117.195 331.788 130.3 336.871 131.903C338.381 132.379 340.041 132.562 341.631 132.584Z" fill="#0C3569"/>
<path fill-rule="evenodd" clip-rule="evenodd" d="M40.6355 129.522C39.8517 129.744 39.0774 129.968 38.3165 130.198C24.7094 134.32 17.1944 140.988 14.0579 145.526C21.7106 148.724 40.237 143.841 44.8135 142.702C50.2703 141.344 49.0111 133.721 47.4372 131.791C45.7141 130.126 43.3449 129.478 40.6355 129.522Z" fill="white"/>
<path fill-rule="evenodd" clip-rule="evenodd" d="M312.138 119.423C308.121 123.794 256.477 123.625 242.479 123.627C213.2 123.632 147.236 128.961 147.236 128.068C147.236 126.427 156.827 125.986 178.886 123.752C190.101 122.617 204.539 121.443 222.577 120.484C276.096 117.638 317.982 113.061 312.138 119.423Z" fill="#0C3569"/>
<path fill-rule="evenodd" clip-rule="evenodd" d="M36.2107 132.733C33.6314 132.733 29.3976 135.468 26.753 138.842C24.1083 142.216 24.0557 144.951 26.6343 144.951C29.2135 144.951 33.448 142.216 36.0926 138.842C38.7366 135.468 38.7899 132.733 36.2107 132.733Z" fill="#EDEEED"/>
<path fill-rule="evenodd" clip-rule="evenodd" d="M302.751 148.896C287.041 148.896 274.306 161.57 274.306 177.204C274.306 183.279 276.23 188.908 279.503 193.519C297.325 183.988 312.966 172.797 325.826 160.65C320.66 153.531 312.25 148.896 302.751 148.896Z" fill="#040606"/>
<path fill-rule="evenodd" clip-rule="evenodd" d="M81.6948 148.896C65.9851 148.896 53.25 161.57 53.25 177.204C53.25 192.838 65.9851 205.513 81.6948 205.513C97.4046 205.513 110.14 192.838 110.14 177.204C110.14 161.57 97.4046 148.896 81.6948 148.896Z" fill="#040606"/>
<path fill-rule="evenodd" clip-rule="evenodd" d="M285.604 88.7735C289.542 92.0073 295.057 107.296 296.042 112.882C296.042 112.882 232.13 116.018 222.577 117.195L224.054 82.1089C224.054 82.1089 280.877 85.049 285.604 88.7735Z" fill="white"/>
<path fill-rule="evenodd" clip-rule="evenodd" d="M222.776 112.462L222.853 110.645C223.611 110.589 224.337 110.435 224.996 110.169C226.092 109.726 227.009 108.956 227.579 107.78C228.324 106.243 228.507 104.004 227.793 100.884C226.452 95.0288 229.439 92.4191 234.067 91.3693C238.186 90.4358 243.603 90.8293 248.216 91.1647C252.106 91.447 255.394 91.6858 256.437 91.0902C258.369 89.9855 257.743 87.9846 256.577 85.9654C256.253 85.4039 255.874 84.8209 255.487 84.2462C256.251 84.3106 257.015 84.3763 257.778 84.4432C257.905 84.6485 258.029 84.8557 258.15 85.066C259.797 87.9183 260.577 90.8047 257.34 92.6559C255.808 93.5319 252.271 93.2749 248.089 92.9711C243.594 92.6446 238.315 92.2605 234.467 93.1328C230.86 93.9507 228.531 95.9699 229.565 100.487C230.379 104.044 230.13 106.681 229.216 108.567C228.431 110.185 227.176 111.242 225.68 111.848C224.779 112.212 223.794 112.409 222.776 112.462ZM285.604 88.7735C288.064 90.7933 291.139 97.5167 293.341 103.641C288.304 105.51 281.556 105.601 278.121 107.94C275.935 109.429 276.284 111.594 277.707 113.812C263.994 114.524 245.621 115.515 233.647 116.311C240.62 110.238 236.128 103.271 241.096 99.6515C248.006 94.6164 264.445 99.6515 269.149 94.2829C270.792 92.4083 271.308 89.1998 271.284 85.8182C278.622 86.705 284.251 87.7073 285.604 88.7735Z" fill="#EDEEED"/>
<path fill-rule="evenodd" clip-rule="evenodd" d="M213.714 82.1091L207.116 118.566C207.116 118.566 130.893 125.721 130.007 124.839C129.121 123.957 135.407 106.616 135.899 105.403C136.391 104.189 164.672 85.9316 213.714 82.1091Z" fill="white"/>
<path fill-rule="evenodd" clip-rule="evenodd" d="M134.035 110.559C134.423 109.449 134.783 108.439 135.082 107.61C137.337 106.575 139.594 106.745 141.48 106.887C143.007 107.001 144.215 107.092 144.606 106.31C145.005 105.516 144.236 104.22 143.398 102.808C143.084 102.279 142.762 101.737 142.474 101.184C142.984 100.909 143.522 100.626 144.09 100.334C144.355 100.861 144.664 101.382 144.964 101.887C146.065 103.743 147.074 105.444 146.236 107.117C145.297 108.99 143.553 108.859 141.345 108.693C139.221 108.533 136.547 108.333 134.035 110.559ZM213.714 82.1092L211.969 91.7518C204.225 92.4945 196.34 92.7794 195.095 96.0176C191.958 104.168 205.209 103.885 202.238 114.919C201.703 116.905 200.643 118.304 199.261 119.296C179.776 121.094 130.717 125.545 130.006 124.839C129.783 124.617 130.017 123.346 130.498 121.551C146.222 115.919 165.473 117.412 165.473 112.883C165.473 106.803 152.056 107.94 153.799 101.065C155.496 94.3647 182.998 93.6232 184.405 86.4002C193.118 84.4941 202.911 82.9511 213.714 82.1092Z" fill="#EDEEED"/>
<path fill-rule="evenodd" clip-rule="evenodd" d="M132.583 107.94C132.583 107.94 107.889 123.105 106.808 124.914C105.728 126.723 128.009 124.914 128.009 124.914C128.009 124.914 129.09 117.208 132.583 107.94Z" fill="white"/>
<path fill-rule="evenodd" clip-rule="evenodd" d="M149.668 116.829C149.407 121.504 145.651 122.698 143.042 122.386C140.435 122.075 133.966 119.838 133.966 116.829C133.966 113.821 137.721 110.498 141.817 110.498C145.912 110.498 149.898 112.653 149.668 116.829Z" fill="#0C3569"/>
<path fill-rule="evenodd" clip-rule="evenodd" d="M294.949 122.023C295.002 123.944 297.14 124.827 290.515 124.619C283.89 124.411 277.63 126.072 278.151 124.047C278.674 122.023 283.186 120.673 286.72 120.673C290.254 120.673 295.319 119.739 294.949 122.023Z" fill="white"/>
<path fill-rule="evenodd" clip-rule="evenodd" d="M209.087 127.318C209.139 129.238 211.277 130.121 204.653 129.913C198.028 129.705 191.768 131.367 192.289 129.342C192.811 127.318 197.324 125.967 200.857 125.967C204.392 125.967 209.457 125.033 209.087 127.318Z" fill="white"/>
<path d="M218.936 82.1091L215.05 117.195C213.714 122.433 210.603 153.581 210.603 178.672M296.043 112.882C296.043 112.882 301.195 132.403 298.257 137.708C295.319 143.014 287.857 143.71 277.633 153.363C267.408 163.016 267.757 175.65 264.699 177.204C261.64 178.758 210.603 178.672 210.603 178.672C210.603 178.672 132.346 181.53 130.007 179.367C127.668 177.204 127.668 153.905 127.668 147.372C127.668 140.839 127.359 128.909 129.97 124.785" stroke="#0C3569" stroke-width="3.77953" stroke-miterlimit="22.9256"/>
<path fill-rule="evenodd" clip-rule="evenodd" d="M16.3701 156.909C16.3701 157.586 37.0791 159.834 41.351 158.263C45.6229 156.693 45.2967 153.659 40.7252 153.659C36.1537 153.659 31.0644 155.525 25.7859 155.88C20.5062 156.234 16.3701 156.234 16.3701 156.909Z" fill="#0C3569"/>
<path fill-rule="evenodd" clip-rule="evenodd" d="M27.2703 166.4C27.2703 166.4 26.7321 171.175 27.1237 172.782C27.5153 174.39 28.2496 175.901 30.1593 175.852C32.069 175.804 35.0443 173.318 35.0443 169.518C35.0443 165.718 27.2703 166.4 27.2703 166.4Z" fill="white"/>
<path d="M23.793 164.94C28.7401 165.428 34.1658 164.335 35.9734 166.738C37.6013 168.901 37.2858 171.702 34.1722 175.854" stroke="#0C3569" stroke-width="2.83464" stroke-miterlimit="22.9256"/>
<path fill-rule="evenodd" clip-rule="evenodd" d="M302.751 159.164C292.74 159.164 284.624 167.241 284.624 177.204C284.624 181.446 286.096 185.346 288.558 188.426C299.367 182.031 309.259 175.02 318.078 167.568C314.865 162.517 309.202 159.164 302.751 159.164Z" fill="#252627"/>
<path fill-rule="evenodd" clip-rule="evenodd" d="M316.248 169.09C314.418 166.082 311.602 163.736 308.246 162.493C309.719 165.102 310.562 168.113 310.562 171.318C310.562 172.137 310.506 172.942 310.399 173.732C312.396 172.206 314.345 170.658 316.248 169.09Z" fill="#56595B"/>
<path fill-rule="evenodd" clip-rule="evenodd" d="M81.6949 159.164C71.6832 159.164 63.5671 167.241 63.5671 177.204C63.5671 187.168 71.6832 195.245 81.6949 195.245C91.7067 195.245 99.8227 187.168 99.8227 177.204C99.8227 167.241 91.7067 159.164 81.6949 159.164Z" fill="#252627"/>
<path fill-rule="evenodd" clip-rule="evenodd" d="M72.2751 189.788C74.9033 191.739 78.1629 192.895 81.6948 192.895C90.4023 192.895 97.4616 185.87 97.4616 177.204C97.4616 173.151 95.9175 169.459 93.3827 166.674C93.9355 168.402 94.235 170.243 94.235 172.153C94.235 182.116 86.119 190.193 76.1072 190.193C74.7922 190.193 73.5108 190.052 72.2751 189.788Z" fill="#56595B"/>
<path fill-rule="evenodd" clip-rule="evenodd" d="M44.6581 134.011C42.9495 134.011 40.1443 135.823 38.3927 138.058C36.641 140.293 36.6055 142.104 38.314 142.104C40.0225 142.104 42.8277 140.293 44.5794 138.058C46.3317 135.823 46.3666 134.011 44.6581 134.011Z" fill="#E3ED51"/>
<path fill-rule="evenodd" clip-rule="evenodd" d="M138.035 119.168C139.704 120.102 140.969 120.438 139.45 124.45C137.93 128.46 136.989 129.083 132.583 129.083C128.176 129.083 128.54 125.968 131.253 123.165C133.966 120.361 136.104 118.285 138.035 119.168Z" fill="#0C3569"/>
<path fill-rule="evenodd" clip-rule="evenodd" d="M213.407 45.2025C215.973 45.2025 218.053 45.6155 218.053 46.1246C218.053 46.6343 215.973 47.0474 213.407 47.0474C210.842 47.0474 208.761 46.6343 208.761 46.1246C208.761 45.6155 210.842 45.2025 213.407 45.2025Z" fill="#C3C5C3"/>
<path fill-rule="evenodd" clip-rule="evenodd" d="M213.407 0.000137329C220.918 0.000137329 227.007 6.05968 227.007 13.534C227.007 21.0096 213.407 46.1245 213.407 46.1245C213.407 46.1245 199.807 21.0096 199.807 13.534C199.807 6.05968 205.897 0.000137329 213.407 0.000137329Z" fill="#0C3569"/>
<path fill-rule="evenodd" clip-rule="evenodd" d="M213.407 8.91111C215.973 8.91111 218.053 10.9808 218.053 13.5338C218.053 16.0873 215.973 18.1577 213.407 18.1577C210.842 18.1577 208.761 16.0873 208.761 13.5338C208.761 10.9808 210.842 8.91111 213.407 8.91111Z" fill="#8ED7FF" fill-opacity="0.3"/>
<path fill-rule="evenodd" clip-rule="evenodd" d="M70.4107 38.0669C70.4107 38.0669 70.2304 43.9806 68.1595 45.7724C66.0893 47.5643 65.2788 37.9773 65.2788 37.9773L70.4107 38.0669Z" fill="#040606"/>
<path fill-rule="evenodd" clip-rule="evenodd" d="M59.0959 217.085C58.6111 217.084 58.1243 217.084 57.6369 217.084C25.8048 217.084 0 218.856 0 221.042C0 223.228 25.8048 225 57.6369 225C68.9433 225 79.4876 224.776 88.3874 224.39C104.543 223.689 115.274 222.451 115.274 221.042C115.274 218.889 90.2533 217.138 59.0959 217.085Z" fill="#E1E2DF"/>
<path fill-rule="evenodd" clip-rule="evenodd" d="M67.8099 72.7385C67.834 70.329 67.9133 67.6238 66.5735 65.46C65.2338 63.2967 58.9767 64.6559 54.2567 64.4867C49.5374 64.3174 38.3718 61.359 36.7058 65.2907C35.0405 69.223 36.7058 72.1037 36.7058 72.1037C36.7058 72.1037 32.5678 75.5321 30.0431 79.6791C27.5178 83.8262 25.4571 91.7351 24.0659 94.4453C22.6747 97.1561 21.335 103.885 22.1594 108.455C22.9838 113.025 22.7776 118.23 24.5299 119.923C26.2815 121.615 31.5885 123.417 39.3168 123.849C47.0457 124.281 64.0559 128.056 64.0559 117.543C64.0559 107.03 71.6096 100.242 67.8099 72.7385Z" fill="#0C3569"/>
<path fill-rule="evenodd" clip-rule="evenodd" d="M67.8098 72.7385C67.8288 70.8014 67.884 68.6729 67.2087 66.7888C64.8434 66.8223 62.0039 67.1406 59.5719 67.0535C54.8526 66.8842 43.687 63.9258 42.0216 67.8575C40.3563 71.7892 42.0216 74.6706 42.0216 74.6706C42.0216 74.6706 37.8824 78.0983 35.3583 82.2453C32.8337 86.3924 30.7723 94.3013 29.3811 97.0121C27.9899 99.7229 26.6502 106.451 27.4746 111.022C28.2812 115.492 28.1023 120.57 29.7333 122.373C32.2383 123.083 35.4789 123.635 39.3167 123.849C47.0456 124.281 64.0558 128.056 64.0558 117.543C64.0558 107.03 71.6095 100.242 67.8098 72.7385Z" fill="#0C3569"/>
<path fill-rule="evenodd" clip-rule="evenodd" d="M95.853 215.353C95.853 215.353 96.5657 221.227 90.9445 221.044C85.324 220.861 80.79 220.123 80.79 220.123V221.044H71.8711V216.86L95.853 215.353Z" fill="#642815"/>
<path fill-rule="evenodd" clip-rule="evenodd" d="M73.5231 132.837L81.5795 205.621H72.3896L58.6765 153.686L47.2882 208.5H38.0291L37.9631 132.837H73.5231Z" fill="#0C3569"/>
<path fill-rule="evenodd" clip-rule="evenodd" d="M68.9688 101.708C70.9356 107.308 74.8698 112.639 81.2951 112.101C87.7211 111.562 81.2951 94.868 81.2951 94.868L68.9688 101.708Z" fill="#FAB682"/>
<path fill-rule="evenodd" clip-rule="evenodd" d="M83.1806 100.916C82.3523 97.6153 81.295 94.8678 81.295 94.8678L75.4542 98.1086C75.3654 101.924 76.4328 105.825 81.1097 106.018L83.1806 100.916Z" fill="#F8A074"/>
<path fill-rule="evenodd" clip-rule="evenodd" d="M51.0167 58.2058L49.5374 75.7812H61.7996C61.7996 75.7812 58.9995 66.1127 58.9995 61.1515L51.0167 58.2058Z" fill="#FAB682"/>
<path fill-rule="evenodd" clip-rule="evenodd" d="M51.0167 58.2054L50.7083 61.8712C53.4804 64.7039 57.1646 67.3339 59.98 68.4189C59.4443 65.8547 58.9995 63.1293 58.9995 61.1511L51.0167 58.2054Z" fill="#F57D5C"/>
<path fill-rule="evenodd" clip-rule="evenodd" d="M68.204 34.787C68.204 34.787 72.6713 63.9321 58.1275 63.9321C43.583 63.9321 45.294 44.0317 45.294 39.0213V34.787H68.204Z" fill="#FAB682"/>
<path fill-rule="evenodd" clip-rule="evenodd" d="M43.5492 46.5677C48.049 46.9246 51.3429 43.9605 51.3429 41.5112C51.3429 39.0618 49.9631 36.6561 49.9631 36.6561C49.9631 36.6561 54.6577 41.7846 62.3974 41.6507C70.1371 41.5168 73.5617 37.5296 73.1111 32.5115C72.8198 29.2563 69.8223 26.5903 67.0628 26.5903C64.3026 26.5903 59.5027 28.6392 56.1428 28.6392C52.7829 28.6392 49.0492 27.2137 46.6864 29.2183C44.3229 31.2224 44.5031 33.2265 44.5031 33.2265C44.5031 33.2265 38.7544 34.652 38.7544 39.5961C38.7544 44.5397 42.5274 46.8924 43.4103 46.845L43.5492 46.5677Z" fill="#040606"/>
<path fill-rule="evenodd" clip-rule="evenodd" d="M56.0425 48.3556C56.5306 48.3556 56.9266 48.7674 56.9266 49.2752C56.9266 49.783 56.5306 50.1948 56.0425 50.1948C55.5545 50.1948 55.1584 49.783 55.1584 49.2752C55.1584 48.7674 55.5545 48.3556 56.0425 48.3556Z" fill="#040606"/>
<path fill-rule="evenodd" clip-rule="evenodd" d="M64.9354 48.4741C65.4234 48.4741 65.8188 48.8859 65.8188 49.3937C65.8188 49.9022 65.4234 50.314 64.9354 50.314C64.4473 50.314 64.0513 49.9022 64.0513 49.3937C64.0513 48.8859 64.4473 48.4741 64.9354 48.4741Z" fill="#040606"/>
<path fill-rule="evenodd" clip-rule="evenodd" d="M61.5869 48.5997C63.0238 51.1741 63.9879 53.2136 59.5446 53.9999C59.3333 54.0245 59.1467 53.9165 59.1289 53.7599C59.1105 53.6026 59.2673 53.4555 59.4786 53.4315C63.1964 52.7765 62.141 51.1179 60.8869 48.872C60.7993 48.7324 60.885 48.5574 61.0786 48.4829C61.2715 48.4071 61.4994 48.4595 61.5869 48.5997Z" fill="#F57D5C"/>
<path fill-rule="evenodd" clip-rule="evenodd" d="M35.1763 79.2744C36.4088 77.4517 50.0019 70.2584 50.0019 70.2584C50.0019 70.2584 52.1877 74.7661 56.379 74.7661C60.5703 74.7661 60.2777 69.7923 60.2777 69.7923C60.2777 69.7923 74.6845 73.6046 76.0408 75.0724C77.3964 76.5403 83.3749 99.3713 83.3749 99.3713C83.3749 99.3713 79.4305 102.408 71.7879 101.953C71.7879 101.953 73.6367 120.733 74.2536 124.783C74.8692 128.832 76.1886 131.753 75.8193 132.21C73.3155 135.304 65.2699 136.462 61.7209 136.939C53.1778 138.086 43.5258 136.677 35.8166 132.72C34.8304 132.214 37.3335 110.66 38.0728 106.812C38.0728 106.812 28.7662 104.585 28.7046 103.978C28.6431 103.37 34.0053 80.8939 35.1763 79.2744Z" fill="#8ED7FF" fill-opacity="0.3"/>
<path fill-rule="evenodd" clip-rule="evenodd" d="M77.2255 101.675C76.2805 101.839 75.2282 101.953 74.0706 101.988L73.5464 82.3186C77.4584 88.8935 77.3423 98.9018 77.2255 101.675Z" fill="#0C3569"/>
<path fill-rule="evenodd" clip-rule="evenodd" d="M48.5625 71.0298L48.8995 70.8485C49.4478 72.0536 50.5718 73.3989 51.963 74.4044C53.3643 75.4169 55.0316 76.0775 56.6373 75.8836C59.7839 75.5047 60.8483 73.8676 61.0888 72.226C61.2043 71.4378 61.1338 70.6477 61.0114 69.9895L61.4309 70.1032C61.5394 70.7512 61.5927 71.5079 61.4816 72.2646C61.2221 74.0337 60.0778 75.7977 56.695 76.2051C54.9592 76.4142 53.1828 75.7181 51.7015 74.6482C50.2919 73.6301 49.1464 72.2677 48.5625 71.0298Z" fill="#0C3569"/>
<path fill-rule="evenodd" clip-rule="evenodd" d="M78.9347 103.503C78.0163 107.954 79.5414 111.876 81.8465 112.007C84.151 112.138 86.3437 111.077 89.7531 104.83C93.1625 98.5835 96.3758 82.4821 96.9 81.5663C97.4249 80.6511 102.474 81.5126 103.916 79.7353C105.358 77.9586 106.342 69.7921 103.916 69.7921C101.49 69.7921 93.7096 73.0044 92.0265 79.4126C90.3433 85.8208 83.3748 90.9045 78.9347 103.503Z" fill="#FAB682"/>
<path fill-rule="evenodd" clip-rule="evenodd" d="M80.27 200.316C83.5912 201.541 81.7608 208.109 82.5744 209.333C83.3874 210.557 85.4203 211.392 88.4704 210.78C91.52 210.168 96.6703 210.725 96.6703 214.398C96.6703 218.072 95.3616 219.407 88.4704 219.407C81.5793 219.407 72.0473 219.419 71.6259 218.127C71.2045 216.835 71.1899 205.601 72.0512 204.377C72.3202 204.056 74.6152 204.713 75.5018 203.933C76.8295 202.766 77.1767 200.14 80.27 200.316Z" fill="#8ED7FF" fill-opacity="0.3"/>
<path fill-rule="evenodd" clip-rule="evenodd" d="M89.9296 210.596C88.4038 210.791 87.4271 212.005 86.8343 213.06C86.7563 213.227 86.5284 213.312 86.3234 213.249C86.1191 213.185 86.0156 212.997 86.0937 212.829C86.8622 211.463 87.9831 210.175 89.9296 209.946C90.1485 209.946 90.3256 210.092 90.3256 210.271C90.3256 210.451 90.1485 210.596 89.9296 210.596Z" fill="#040606"/>
<path fill-rule="evenodd" clip-rule="evenodd" d="M86.4638 210.938C85.2725 211.104 84.099 211.92 83.4999 212.753C83.4098 212.916 83.1756 212.989 82.9757 212.915C82.7764 212.842 82.6875 212.649 82.7776 212.485C83.5595 211.393 84.9063 210.484 86.4638 210.288C86.6827 210.288 86.8598 210.434 86.8598 210.613C86.8598 210.793 86.6827 210.938 86.4638 210.938Z" fill="#040606"/>
<path fill-rule="evenodd" clip-rule="evenodd" d="M83.4632 210.25C82.9129 210.213 81.9247 211.029 81.6226 211.306C81.509 211.46 81.266 211.51 81.0787 211.416C80.8915 211.323 80.8319 211.123 80.9448 210.969C81.5744 210.373 82.5937 209.504 83.6745 209.622C83.8852 209.671 84.0083 209.85 83.9506 210.023C83.8916 210.196 83.6739 210.298 83.4632 210.25Z" fill="#040606"/>
<path fill-rule="evenodd" clip-rule="evenodd" d="M82.4234 206.754L82.4945 206.787C83.7169 206.576 84.7088 206.174 84.7913 205.52C84.2303 205.579 83.35 206.08 82.4234 206.754ZM80.8381 206.959C80.8761 206.93 80.9136 206.901 80.9517 206.871C79.3441 206.212 77.8704 205.851 77.6419 206.583C77.9104 206.87 79.3314 207.026 80.8381 206.959ZM77.8621 210.225C78.4156 209.278 79.1664 208.416 79.9838 207.674C77.4337 207.47 75.4619 206.48 77.727 205.674C78.5831 205.368 80.0917 205.775 81.6117 206.401C84.1243 204.713 86.4967 204.286 85.3911 206.082C85.0294 206.67 84.3858 207.074 83.6077 207.332C84.6632 207.878 85.5599 208.423 86.0232 208.757C86.1616 208.896 86.1368 209.101 85.9674 209.215C85.7979 209.328 85.5485 209.308 85.4101 209.169C85.1417 208.977 83.9295 208.269 82.5377 207.589C82.1074 207.658 81.6599 207.697 81.2125 207.708C80.0479 208.692 79.0007 209.764 78.6345 210.369C78.5856 210.544 78.3737 210.653 78.1604 210.614C77.9472 210.573 77.8133 210.4 77.8621 210.225Z" fill="#040606"/>
<path fill-rule="evenodd" clip-rule="evenodd" d="M67.834 70.329C70.4443 70.9378 71.8552 72.8213 73.0553 77.1098C74.2548 81.3977 76.195 93.7998 75.5953 100.377C74.9955 106.955 72.9481 113.373 72.9481 113.373C72.9481 113.373 71.6794 100.725 71.3621 97.9431C71.0441 95.1615 67.7985 78.4134 66.3165 74.879C64.8352 71.3433 63.8471 70.8671 64.0939 70.329C64.3408 69.7921 67.834 70.329 67.834 70.329Z" fill="#0C3569"/>
<path fill-rule="evenodd" clip-rule="evenodd" d="M35.5767 217.171L33.886 217.227C33.9863 220.091 33.2488 224.122 42.2108 224.241C51.1722 224.36 50.5344 221.33 50.5706 218.144L35.5767 217.171Z" fill="#642815"/>
<path fill-rule="evenodd" clip-rule="evenodd" d="M42.645 72.3673C45.1017 71.0902 46.2714 71.243 46.5627 71.6011C46.854 71.9592 49.0296 74.7168 49.5374 79.0072C50.0457 83.2971 50.8848 92.4906 50.4805 98.2369C50.0768 103.983 43.7772 116.777 36.7058 117.543V106.506C37.2776 106.65 37.7562 106.76 38.0729 106.812C39.8214 107.099 44.1256 107.215 45.89 106.433C45.89 106.433 46.814 99.682 46.814 96.2625C46.814 93.4866 44.9767 80.6999 43.298 78.2405C41.6187 75.781 40.8102 75.2783 40.7486 74.8696C40.6864 74.461 41.0285 73.3121 42.645 72.3673Z" fill="#0C3569"/>
<path fill-rule="evenodd" clip-rule="evenodd" d="M41.6084 48.5616C41.6084 50.5082 43.2033 51.8599 45.231 51.8599C47.2588 51.8599 47.9404 49.1383 47.9404 48.5181C47.9404 47.8972 47.0551 45.4277 44.7747 45.4277C42.495 45.4277 41.4853 47.2744 41.6084 48.5616Z" fill="#FAB682"/>
<path fill-rule="evenodd" clip-rule="evenodd" d="M44.3566 46.7482C45.5384 46.6099 46.8502 47.3141 46.7156 48.6891C46.6928 48.9209 45.169 48.9317 45.4958 49.3454C45.8887 49.8431 46.5773 49.6327 46.7778 49.4673C46.6833 49.9801 45.2813 50.3667 44.9646 49.4641C44.811 49.0251 45.1423 48.4655 46.0639 48.4453C45.8709 47.4045 45.1671 47.0842 44.5083 47.1821C43.1597 47.3824 43.0168 48.0102 42.9248 48.4011C42.7046 47.8902 43.0454 46.903 44.3566 46.7482Z" fill="#F57D5C"/>
<path fill-rule="evenodd" clip-rule="evenodd" d="M31.1727 104.944C30.4054 107.422 29.5695 111.334 30.5323 114.655C32.0777 119.987 42.4861 146.9 42.4861 146.9L46.8139 143.854C46.8139 143.854 41.2542 115.758 40.9452 113.327C40.9452 113.327 42.4836 110.778 43.4901 106.941C41.5582 107.12 39.2658 106.74 38.0727 106.545C36.8802 106.349 33.2575 105.565 31.1727 104.944Z" fill="#FAB682"/>
<path fill-rule="evenodd" clip-rule="evenodd" d="M94.8591 59.1128L103.671 59.7779C104.322 59.8271 104.805 60.3046 104.746 60.8389L102.954 76.843C102.894 77.378 102.313 77.7746 101.663 77.7254L92.8497 77.0603C92.1992 77.011 91.7156 76.5335 91.7752 75.9992L93.5669 59.9951C93.6265 59.4602 94.2079 59.0635 94.8591 59.1128Z" fill="#0C3569"/>
<path fill-rule="evenodd" clip-rule="evenodd" d="M102.604 60.6077C103.108 60.6456 103.481 61.015 103.436 61.4294L103.169 63.8042C103.123 64.2179 102.674 64.5255 102.17 64.4876C101.666 64.449 101.291 64.0796 101.338 63.6665L101.603 61.2904C101.65 60.8773 102.1 60.5698 102.604 60.6077Z" fill="#040606"/>
<path fill-rule="evenodd" clip-rule="evenodd" d="M102.555 61.0445C102.879 61.0692 103.118 61.3048 103.089 61.5713C103.059 61.8378 102.771 62.0343 102.447 62.0096C102.122 61.985 101.883 61.7488 101.913 61.4829C101.943 61.2163 102.23 61.0199 102.555 61.0445Z" fill="#252627"/>
<path fill-rule="evenodd" clip-rule="evenodd" d="M102.286 63.4499C102.478 63.4645 102.618 63.604 102.601 63.7619C102.583 63.9192 102.413 64.0348 102.222 64.0203C102.03 64.0057 101.889 63.8668 101.907 63.7089C101.924 63.5516 102.094 63.4354 102.286 63.4499Z" fill="white"/>
<path fill-rule="evenodd" clip-rule="evenodd" d="M102.42 62.2472C102.745 62.2718 102.984 62.5074 102.953 62.7746C102.924 63.0405 102.637 63.2369 102.312 63.2123C101.987 63.1876 101.749 62.952 101.779 62.6855C101.808 62.419 102.095 62.2226 102.42 62.2472Z" fill="#252627"/>
<path fill-rule="evenodd" clip-rule="evenodd" d="M43.3571 205.194C49.7462 205.448 47.7369 210.757 47.5306 213.054C47.325 215.35 50.4678 216.112 50.5707 218.144C50.6735 220.174 48.819 222.604 42.4039 222.604C35.9893 222.604 33.8772 220.287 33.8772 216.833C33.8772 213.379 37.345 213.058 37.345 210.938C37.345 208.818 35.5159 205.332 43.3571 205.194Z" fill="#8ED7FF" fill-opacity="0.3"/>
<path fill-rule="evenodd" clip-rule="evenodd" d="M39.1074 215.98C40.5265 215.072 42.838 215.247 44.2558 216.063C44.41 216.19 44.41 216.396 44.2558 216.523C44.1009 216.649 43.8503 216.649 43.6954 216.523C42.6806 215.961 40.6655 215.806 39.6475 216.456C39.487 216.579 39.2363 216.571 39.0878 216.44C38.9386 216.308 38.9475 216.102 39.1074 215.98Z" fill="#040606"/>
<path fill-rule="evenodd" clip-rule="evenodd" d="M39.6055 213.853C40.7962 213.264 42.7693 213.152 43.8685 213.967C44.0145 214.101 44.0006 214.307 43.8374 214.427C43.675 214.547 43.4243 214.535 43.2783 214.401C42.5942 213.901 40.8615 213.992 40.1247 214.343C39.9597 214.461 39.7096 214.447 39.5662 214.311C39.4228 214.175 39.4399 213.97 39.6055 213.853Z" fill="#040606"/>
<path fill-rule="evenodd" clip-rule="evenodd" d="M39.6614 212.138C40.5055 211.181 43.0328 211.091 44.073 212.107C44.1942 212.256 44.1453 212.459 43.9638 212.559C43.7823 212.658 43.536 212.618 43.4142 212.468C42.7598 211.831 40.781 211.995 40.364 212.437C40.2631 212.597 40.0245 212.659 39.8303 212.577C39.6361 212.494 39.5605 212.297 39.6614 212.138Z" fill="#040606"/>
<path fill-rule="evenodd" clip-rule="evenodd" d="M43.2992 209.381C44.7011 209.443 45.9933 209.246 46.3722 208.651C46.112 208.119 44.7887 208.582 43.2992 209.381ZM41.3812 209.145C40.5098 208.333 39.7895 207.699 39.0203 207.714C38.9993 207.727 38.9759 207.742 38.9708 207.759C38.8045 208.333 39.9431 208.853 41.3812 209.145ZM37.9833 212.359C38.9371 211.224 39.9653 210.348 40.9782 209.687C38.8908 209.117 37.4019 208.022 38.4796 207.236C39.4341 206.54 40.9274 207.725 42.2767 208.946C45.648 207.29 48.3809 207.95 46.8577 209.184C46.0314 209.855 44.79 210.096 43.501 210.065C43.9434 210.458 44.3356 210.775 44.6427 210.92C45.7147 211.428 46.0238 211.475 47.1801 211.821C47.3889 211.874 47.5063 212.056 47.4422 212.227C47.3775 212.399 47.156 212.496 46.9466 212.443L45.5776 212.033C44.2099 211.548 43.1564 210.747 42.2742 209.965C40.7332 210.894 39.231 212.013 38.703 212.63C38.6116 212.794 38.3767 212.865 38.1775 212.791C37.9795 212.716 37.8919 212.522 37.9833 212.359Z" fill="#040606"/>
<path fill-rule="evenodd" clip-rule="evenodd" d="M41.7634 107.027C42.6412 105.438 45.831 100.001 46.2847 90.9708C46.6135 93.3374 46.814 95.3459 46.814 96.2624C46.814 99.6818 45.89 106.433 45.89 106.433C44.9666 106.842 43.3475 107.006 41.7634 107.027Z" fill="#0C3569"/>
<path fill-rule="evenodd" clip-rule="evenodd" d="M48.6292 142.474C46.3222 145.178 44.3966 147.176 40.2701 147.606C40.0517 147.606 39.874 147.461 39.874 147.281C39.874 147.101 40.0517 146.956 40.2701 146.956C44.0031 146.563 45.8716 144.577 47.9355 142.16C48.0415 142.002 48.2826 141.945 48.4743 142.032C48.6653 142.119 48.7351 142.317 48.6292 142.474Z" fill="#040606"/>
<path fill-rule="evenodd" clip-rule="evenodd" d="M104.481 69.9952C104.481 69.9952 100.426 66.5511 99.6157 67.357C98.8053 68.1636 103.144 71.11 103.144 71.11C103.144 71.11 98.4169 68.5564 98.2817 69.6314C98.1465 70.707 102.873 73.529 102.873 73.529C102.873 73.529 98.5521 72.185 98.2817 73.3945C98.0113 74.604 102.333 75.276 102.333 75.276C102.333 75.276 97.8768 75.276 97.6064 75.948C97.3361 76.6201 103.414 78.0986 103.414 78.0986L104.481 69.9952Z" fill="#FAB682"/>
<path d="M54.0796 46.3208C54.1513 46.2393 54.2262 46.1617 54.3061 46.0884C54.3487 46.0499 54.3924 46.0126 54.4362 45.976C54.4921 45.9292 54.4439 45.9823 54.4166 45.9899C54.4362 45.9842 54.4616 45.9564 54.4781 45.9444C54.5663 45.8812 54.6584 45.8238 54.7529 45.7707C54.8031 45.7423 54.8538 45.7158 54.9053 45.6905C54.9287 45.6791 54.9516 45.6684 54.9744 45.6576C54.9903 45.6507 55.0918 45.6033 55.015 45.6393C54.9452 45.6716 55.0246 45.6368 55.0392 45.6311C55.0633 45.6216 55.0874 45.6134 55.1115 45.6046C55.1655 45.5857 55.2207 45.568 55.2753 45.5522C55.38 45.5225 55.4853 45.4979 55.5926 45.4789C55.618 45.4745 55.6434 45.4713 55.6681 45.4669C55.743 45.4536 55.5621 45.4764 55.6377 45.4713C55.6954 45.4675 55.7519 45.46 55.8096 45.4574C55.9245 45.4517 56.0394 45.453 56.1543 45.4606C56.438 45.4783 56.7096 45.1991 56.6969 44.9199C56.6829 44.6124 56.4583 44.3995 56.1543 44.3799C55.0988 44.3136 54.0078 44.7646 53.3123 45.5572C53.125 45.7694 53.0863 46.1149 53.3123 46.3208C53.5166 46.5078 53.8803 46.5482 54.0796 46.3208Z" fill="#040606"/>
<path d="M63.7835 47.2329C63.8902 47.2001 63.998 47.1723 64.1072 47.1521C64.1415 47.1452 64.3109 47.0959 64.1694 47.1401C64.2189 47.1243 64.2849 47.1287 64.3357 47.1256C64.4474 47.1186 64.5591 47.118 64.6702 47.1243C64.726 47.1268 64.7812 47.1325 64.8371 47.1369C64.9513 47.1458 64.7336 47.1186 64.879 47.1433C64.9818 47.1609 65.0846 47.183 65.1849 47.2108C65.2845 47.238 65.414 47.2626 65.5016 47.3169C65.3829 47.2437 65.5358 47.3327 65.5631 47.346C65.6139 47.37 65.6628 47.3959 65.7116 47.4224C65.8094 47.4767 65.9027 47.5367 65.9934 47.6012C66.2257 47.7654 66.6078 47.6492 66.7366 47.4073C66.8839 47.1294 66.7899 46.8432 66.5418 46.6683C65.6755 46.0556 64.5083 45.882 63.4948 46.1908C63.2231 46.2736 63.0232 46.5723 63.1152 46.8553C63.2041 47.1275 63.4922 47.3214 63.7835 47.2329Z" fill="#040606"/>
<path d="M56.431 55.7182C58.0284 57.0427 60.3741 57.272 62.1778 56.2153C62.7795 55.8629 62.2337 54.9287 61.6301 55.2824C60.272 56.0776 58.4194 55.9664 57.1983 54.954C56.9736 54.7677 56.6512 54.7348 56.431 54.954C56.2381 55.146 56.2044 55.5306 56.431 55.7182Z" fill="#040606"/>
</svg>
