<svg width="121" height="121" viewBox="0 0 121 121" fill="none" xmlns="http://www.w3.org/2000/svg">
<path d="M25.2083 55.4584L32.7708 32.7709H88.2292L95.7917 55.4584M88.2292 80.6667C86.2235 80.6667 84.2999 79.8699 82.8817 78.4517C81.4634 77.0335 80.6667 75.1099 80.6667 73.1042C80.6667 71.0985 81.4634 69.175 82.8817 67.7567C84.2999 66.3385 86.2235 65.5417 88.2292 65.5417C90.2349 65.5417 92.1584 66.3385 93.5767 67.7567C94.9949 69.175 95.7917 71.0985 95.7917 73.1042C95.7917 75.1099 94.9949 77.0335 93.5767 78.4517C92.1584 79.8699 90.2349 80.6667 88.2292 80.6667ZM32.7708 80.6667C30.7651 80.6667 28.8416 79.8699 27.4233 78.4517C26.0051 77.0335 25.2083 75.1099 25.2083 73.1042C25.2083 71.0985 26.0051 69.175 27.4233 67.7567C28.8416 66.3385 30.7651 65.5417 32.7708 65.5417C34.7765 65.5417 36.7001 66.3385 38.1183 67.7567C39.5366 69.175 40.3333 71.0985 40.3333 73.1042C40.3333 75.1099 39.5366 77.0335 38.1183 78.4517C36.7001 79.8699 34.7765 80.6667 32.7708 80.6667ZM95.3883 30.25C94.38 27.3259 91.5567 25.2084 88.2292 25.2084H32.7708C29.4433 25.2084 26.62 27.3259 25.6117 30.25L15.125 60.5V100.833C15.125 102.171 15.6562 103.453 16.6017 104.398C17.5472 105.344 18.8295 105.875 20.1667 105.875H25.2083C26.5455 105.875 27.8278 105.344 28.7733 104.398C29.7188 103.453 30.25 102.171 30.25 100.833V95.7917H90.75V100.833C90.75 102.171 91.2812 103.453 92.2267 104.398C93.1722 105.344 94.4545 105.875 95.7917 105.875H100.833C102.17 105.875 103.453 105.344 104.398 104.398C105.344 103.453 105.875 102.171 105.875 100.833V60.5L95.3883 30.25Z" fill="#0C3569"/>
</svg>
